<svg width="28" height="28" viewBox="0 0 28 28" fill="none" xmlns="http://www.w3.org/2000/svg">
<g clip-path="url(#clip0_323_749)">
<rect width="28" height="28" rx="1.2" fill="white"/>
<path d="M5.83903 10.5033C6.48337 10.5033 7.0057 11.0257 7.0057 11.67C8.91293 11.67 10.6674 12.3238 12.0574 13.4194L14.5891 13.42C16.1438 13.42 17.5406 14.0958 18.5019 15.1696L22.1724 15.17C24.4967 15.17 26.5035 16.5295 27.4412 18.4966C24.6822 22.1373 20.2146 24.5033 15.1724 24.5033C11.9166 24.5033 9.16377 23.7996 6.93467 22.5691C6.77317 23.0165 6.34349 23.3367 5.83903 23.3367H2.33903C1.6947 23.3367 1.17236 22.8143 1.17236 22.17V11.67C1.17236 11.0257 1.6947 10.5033 2.33903 10.5033H5.83903ZM7.00688 14.0033L7.0057 19.8623L7.05862 19.9002C9.15141 21.3707 11.8802 22.17 15.1724 22.17C18.6771 22.17 21.9374 20.8218 24.3133 18.519L24.4684 18.3632L24.3293 18.246C23.788 17.8225 23.1239 17.5598 22.4116 17.5114L22.1724 17.5033H19.709C19.7941 17.8785 19.8391 18.269 19.8391 18.67V19.8367H9.33903V17.5033L17.2607 17.5022L17.2206 17.4106C16.7767 16.4847 15.8585 15.8295 14.7809 15.7595L14.5891 15.7533L11.1714 15.7532C10.1129 14.6736 8.63814 14.0037 7.00688 14.0033ZM4.67236 12.8367H3.5057V21.0033H4.67236V12.8367ZM21.0057 5.83667C22.9387 5.83667 24.5057 7.40367 24.5057 9.33667C24.5057 11.2697 22.9387 12.8367 21.0057 12.8367C19.0727 12.8367 17.5057 11.2697 17.5057 9.33667C17.5057 7.40367 19.0727 5.83667 21.0057 5.83667ZM21.0057 8.17C20.3614 8.17 19.8391 8.69233 19.8391 9.33667C19.8391 9.981 20.3614 10.5033 21.0057 10.5033C21.6501 10.5033 22.1724 9.981 22.1724 9.33667C22.1724 8.69233 21.6501 8.17 21.0057 8.17ZM12.8391 2.33667C14.772 2.33667 16.3391 3.90367 16.3391 5.83667C16.3391 7.76966 14.772 9.33667 12.8391 9.33667C10.906 9.33667 9.33903 7.76966 9.33903 5.83667C9.33903 3.90367 10.906 2.33667 12.8391 2.33667ZM12.8391 4.67C12.1947 4.67 11.6724 5.19233 11.6724 5.83667C11.6724 6.481 12.1947 7.00334 12.8391 7.00334C13.4834 7.00334 14.0057 6.481 14.0057 5.83667C14.0057 5.19233 13.4834 4.67 12.8391 4.67Z" fill="#111111"/>
</g>
<defs>
<clipPath id="clip0_323_749">
<rect width="28" height="28" rx="1.2" fill="white"/>
</clipPath>
</defs>
</svg>
