<svg width="44" height="44" viewBox="0 0 44 44" fill="none" xmlns="http://www.w3.org/2000/svg">
<rect x="1" y="1" width="42" height="42" rx="5" stroke="white" stroke-width="2"/>
<rect x="8" y="8" width="28" height="28" rx="1.2" fill="white"/>
<path d="M15 28.9999H29V14.9999H15V28.9999ZM24.3334 31.3333H19.6667V33.6666H17.3334V31.3333H13.8334C13.189 31.3333 12.6667 30.8109 12.6667 30.1666V26.6666H10.3334V24.3333H12.6667V19.6666H10.3334V17.3333H12.6667V13.8333C12.6667 13.1889 13.189 12.6666 13.8334 12.6666H17.3334V10.3333H19.6667V12.6666H24.3334V10.3333H26.6667V12.6666H30.1667C30.8111 12.6666 31.3334 13.1889 31.3334 13.8333V17.3333H33.6667V19.6666H31.3334V24.3333H33.6667V26.6666H31.3334V30.1666C31.3334 30.8109 30.8111 31.3333 30.1667 31.3333H26.6667V33.6666H24.3334V31.3333ZM17.3334 17.3333H26.6667V26.6666H17.3334V17.3333Z" fill="#111111"/>
</svg>
