<svg width="44" height="44" viewBox="0 0 44 44" fill="none" xmlns="http://www.w3.org/2000/svg">
<rect x="1" y="1" width="42" height="42" rx="5" stroke="white" stroke-width="2"/>
<rect x="8" y="8" width="28" height="28" rx="1.2" fill="white"/>
<path d="M22.0001 17.9166L24.4688 23.852L30.8766 24.3658L25.9946 28.5478L27.486 34.8007L22.0001 31.4499L16.5141 34.8007L18.0056 28.5478L13.1235 24.3658L19.5314 23.852L22.0001 17.9166ZM22.0001 23.9914L21.1384 26.064L18.9026 26.2431L20.606 27.7029L20.0845 29.8854L22.0001 28.7157L23.9146 29.8854L23.3942 27.7029L25.0965 26.2431L22.8617 26.064L22.0001 23.9914ZM17.3334 10.3333V20.8333H15.0001V10.3333H17.3334ZM29.0001 10.3333V20.8333H26.6668V10.3333H29.0001ZM23.1668 10.3333V16.1666H20.8335V10.3333H23.1668Z" fill="#111111"/>
</svg>
