<svg width="44" height="44" viewBox="0 0 44 44" fill="none" xmlns="http://www.w3.org/2000/svg">
<rect x="1" y="1" width="42" height="42" rx="5" stroke="white" stroke-width="2"/>
<g clip-path="url(#clip0_323_647)">
<rect x="8" y="8" width="28" height="28" rx="1.2" fill="white"/>
<path d="M14.1061 17.0181C15.7619 14.4005 18.679 12.6666 22.0002 12.6666C25.3215 12.6666 28.2386 14.4005 29.8945 17.0181L31.8664 15.7707C29.8009 12.5056 26.1547 10.3333 22.0002 10.3333C17.8458 10.3333 14.1996 12.5056 12.1342 15.7707L14.1061 17.0181ZM22.0002 31.3333C18.679 31.3333 15.7619 29.5994 14.1061 26.9817L12.1342 28.2291C14.1996 31.4943 17.8458 33.6666 22.0002 33.6666C26.1547 33.6666 29.8009 31.4943 31.8664 28.2291L29.8945 26.9817C28.2386 29.5994 25.3215 31.3333 22.0002 31.3333ZM22 17.3333C22.6443 17.3333 23.1667 17.8556 23.1667 18.4999C23.1667 19.1442 22.6443 19.6666 22 19.6666C21.3556 19.6666 20.8333 19.1442 20.8333 18.4999C20.8333 17.8556 21.3556 17.3333 22 17.3333ZM22 21.9999C23.933 21.9999 25.5 20.433 25.5 18.4999C25.5 16.5669 23.933 14.9999 22 14.9999C20.0669 14.9999 18.5 16.5669 18.5 18.4999C18.5 20.433 20.0669 21.9999 22 21.9999ZM22 25.4999C20.7113 25.4999 19.6667 26.5446 19.6667 27.8333H17.3333C17.3333 25.256 19.4227 23.1666 22 23.1666C24.5773 23.1666 26.6667 25.256 26.6667 27.8333H24.3333C24.3333 26.5446 23.2887 25.4999 22 25.4999ZM11.5 20.8333C10.8557 20.8333 10.3333 21.3556 10.3333 21.9999C10.3333 22.6443 10.8557 23.1666 11.5 23.1666C12.1443 23.1666 12.6667 22.6443 12.6667 21.9999C12.6667 21.3556 12.1443 20.8333 11.5 20.8333ZM8 21.9999C8 20.0669 9.56701 18.4999 11.5 18.4999C13.433 18.4999 15 20.0669 15 21.9999C15 23.933 13.433 25.4999 11.5 25.4999C9.56701 25.4999 8 23.933 8 21.9999ZM31.3333 21.9999C31.3333 21.3556 31.8556 20.8333 32.5 20.8333C33.1443 20.8333 33.6667 21.3556 33.6667 21.9999C33.6667 22.6443 33.1443 23.1666 32.5 23.1666C31.8556 23.1666 31.3333 22.6443 31.3333 21.9999ZM32.5 18.4999C30.5669 18.4999 29 20.0669 29 21.9999C29 23.933 30.5669 25.4999 32.5 25.4999C34.433 25.4999 36 23.933 36 21.9999C36 20.0669 34.433 18.4999 32.5 18.4999Z" fill="#111111"/>
</g>
<defs>
<clipPath id="clip0_323_647">
<rect x="8" y="8" width="28" height="28" rx="1.2" fill="white"/>
</clipPath>
</defs>
</svg>
