<svg width="549" height="540" viewBox="0 0 549 540" fill="none" xmlns="http://www.w3.org/2000/svg">
<rect width="549" height="540" rx="12" fill="#F7F8FA"/>
<path d="M50.3799 226.8L57.6599 226.23C57.6599 226.23 57.1699 220.12 63.5199 219.5C64.7402 219.358 65.9741 219.601 67.0497 220.195C68.1253 220.788 68.9889 221.702 69.5199 222.81C69.988 223.73 70.232 224.748 70.232 225.78C70.232 226.812 69.988 227.83 69.5199 228.75C68.4499 230.88 65.8899 232.94 60.9199 232.47L62.2199 248.87L69.4099 248.3L68.6499 238.69C68.6499 238.69 78.5399 235.29 77.6499 224.16C76.7999 213.52 67.0699 211.81 62.9799 212.16C59.8099 212.38 49.2299 214 50.3799 226.8Z" fill="#E0E0E0"/>
<path d="M69.6879 251.674L62.3906 252.251L62.9297 259.07L70.2269 258.493L69.6879 251.674Z" fill="#E0E0E0"/>
<path d="M402.37 287.63H406.31C406.307 287.181 406.395 286.735 406.567 286.321C406.74 285.906 406.995 285.53 407.316 285.216C407.637 284.901 408.017 284.655 408.436 284.491C408.854 284.326 409.301 284.248 409.75 284.26C410.41 284.233 411.062 284.41 411.617 284.768C412.172 285.126 412.603 285.647 412.85 286.26C413.057 286.777 413.138 287.335 413.088 287.89C413.037 288.444 412.856 288.979 412.56 289.45C411.9 290.55 410.43 291.56 407.77 291.09V300H411.67V294.79C413.271 294.321 414.674 293.339 415.662 291.995C416.651 290.65 417.17 289.018 417.14 287.35C417.14 281.58 411.97 280.24 409.75 280.24C408.06 280.26 402.29 280.67 402.37 287.63Z" fill="#E0E0E0"/>
<path d="M411.72 301.86H407.76V305.56H411.72V301.86Z" fill="#E0E0E0"/>
<path d="M51.5498 411.3L56.5498 412.02C56.6301 411.447 56.8242 410.896 57.1205 410.4C57.4167 409.903 57.8093 409.47 58.2752 409.128C58.741 408.785 59.2706 408.538 59.833 408.403C60.3953 408.268 60.979 408.246 61.5498 408.34C62.4009 408.431 63.2023 408.785 63.8423 409.353C64.4823 409.922 64.9289 410.676 65.1198 411.51C65.2887 412.204 65.2916 412.927 65.1282 413.622C64.9649 414.317 64.64 414.964 64.1798 415.51C63.1298 416.79 61.0698 417.81 57.7598 416.73L56.1998 428.12L61.1998 428.83L62.1998 422.17C64.3227 421.852 66.2832 420.848 67.7819 419.312C69.2806 417.775 70.2352 415.79 70.4998 413.66C71.5498 406.29 65.1798 403.66 62.3498 403.24C60.1698 402.93 52.7298 402.4 51.5498 411.3Z" fill="#F5F5F5"/>
<path d="M60.907 431.175L55.8481 430.454L55.1752 435.176L60.2341 435.897L60.907 431.175Z" fill="#F5F5F5"/>
<path d="M183.22 68.58L189.84 67.15C189.84 67.15 188.63 61.59 194.39 60.24C195.494 59.9564 196.659 60.0246 197.722 60.4352C198.785 60.8457 199.693 61.5781 200.32 62.53C200.857 63.3232 201.199 64.232 201.319 65.1825C201.439 66.1329 201.333 67.0982 201.01 68C200.29 70.09 198.19 72.31 193.56 72.49L196.8 87.42L203.35 86L201.5 77.26C201.5 77.26 210.17 72.89 207.97 62.77C205.88 53.09 196.7 52.72 192.97 53.53C190.09 54.14 180.56 56.93 183.22 68.58Z" fill="#F5F5F5"/>
<path d="M204.084 89.0654L197.438 90.5059L198.784 96.7117L205.429 95.2713L204.084 89.0654Z" fill="#F5F5F5"/>
<path d="M458.14 452.36L461.99 453.21C462.084 452.77 462.266 452.354 462.524 451.985C462.782 451.617 463.112 451.305 463.494 451.067C463.876 450.829 464.301 450.67 464.746 450.6C465.19 450.53 465.644 450.551 466.08 450.66C466.732 450.782 467.331 451.104 467.793 451.58C468.255 452.056 468.558 452.664 468.66 453.32C468.746 453.873 468.701 454.438 468.527 454.97C468.353 455.502 468.056 455.985 467.66 456.38C466.77 457.31 465.12 457.97 462.66 456.94L460.74 465.63L464.55 466.47L465.67 461.38C467.336 461.266 468.918 460.609 470.174 459.509C471.429 458.408 472.289 456.926 472.62 455.29C473.87 449.66 469.1 447.24 466.94 446.76C465.29 446.39 459.57 445.55 458.14 452.36Z" fill="#E0E0E0"/>
<path d="M464.226 468.256L460.359 467.402L459.561 471.015L463.427 471.869L464.226 468.256Z" fill="#E0E0E0"/>
<path d="M469.8 170.12H477.06C477.06 170.12 477.06 164.02 483.4 163.91C484.622 163.865 485.828 164.202 486.849 164.874C487.871 165.546 488.658 166.52 489.1 167.66C489.482 168.614 489.634 169.644 489.543 170.667C489.453 171.69 489.123 172.678 488.58 173.55C487.35 175.55 484.65 177.43 479.75 176.55V193H486.94V183.4C486.94 183.4 497.01 180.79 497.01 169.69C497.01 159.07 487.48 156.6 483.41 156.6C480.29 156.55 469.66 157.3 469.8 170.12Z" fill="#F5F5F5"/>
<path d="M487.02 196.32H479.73V203.13H487.02V196.32Z" fill="#F5F5F5"/>
<path d="M288.76 79L296.6 80.73C296.6 80.73 298.06 74.15 304.92 75.55C306.248 75.7909 307.469 76.4409 308.41 77.409C309.351 78.3772 309.966 79.6152 310.17 80.95C310.351 82.0726 310.265 83.2222 309.917 84.305C309.57 85.3877 308.971 86.3729 308.17 87.18C306.35 89.07 303 90.42 297.92 88.32L294.06 106L301.81 107.71L304.1 97.36C304.1 97.36 315.59 96.95 318.24 84.97C320.77 73.51 311.08 68.58 306.68 67.6C303.31 66.83 291.67 65.11 288.76 79Z" fill="#E0E0E0"/>
<path d="M301.109 111.337L293.239 109.598L291.617 116.94L299.487 118.679L301.109 111.337Z" fill="#E0E0E0"/>
<path d="M473.75 487C473.75 487.14 384.57 487.25 274.59 487.25C164.61 487.25 75.4199 487.11 75.4199 487C75.4199 486.89 164.57 486.75 274.59 486.75C384.61 486.75 473.75 486.83 473.75 487Z" fill="#263238"/>
<path d="M245.85 91.32L221.62 99.35L230.19 123.34L245.85 91.32Z" fill="#455A64"/>
<path d="M248.58 195.25L240.68 180.31C256.14 172.14 264.04 160.16 262.92 146.58C261.72 131.98 250.06 118.58 233.92 113.16L239.27 97.16C262.11 104.78 278.01 123.65 279.79 145.23C281.5 165.64 270.08 183.89 248.58 195.25Z" fill="#455A64"/>
<g opacity="0.3">
<path d="M262.16 157.19C262.16 157.19 269.67 159.63 279.42 154.26L278.42 161.58L260.42 168.41L260.03 162.92L262.16 157.19Z" fill="black"/>
</g>
<path d="M244.7 301.63C194.27 294.74 153.52 279.77 123.58 257.13C98.2099 238 88.0599 218.69 84.7299 212.36C76.0099 195.81 72.2599 177.91 73.8699 160.57C76.8699 128.72 100.03 109.5 114.87 104.36C127.44 100 144.18 100 155.2 101.87C167.392 103.98 179.156 108.078 190.02 114L179.88 132.66C171.059 127.845 161.51 124.507 151.61 122.78C142.05 121.14 129.26 121.84 121.84 124.41C113.99 127.12 97.1199 140.01 95.0199 162.52C93.7899 175.74 96.7299 189.52 103.52 202.44C106.31 207.73 114.8 223.85 136.38 240.17C163.38 260.58 200.8 274.17 247.58 280.57L244.7 301.63Z" fill="#FE5B71"/>
<g opacity="0.3">
<path d="M133.52 237.91L113.42 248.77L122.2 256.12L141.81 244.15L133.52 237.91Z" fill="black"/>
</g>
<g opacity="0.3">
<path d="M201.64 271.31C201.64 271.31 201.64 291.18 204.97 294.16L211.97 295.82L206.61 272.5L201.64 271.31Z" fill="black"/>
</g>
<path d="M174.3 139.07L200.83 131.86L193.02 105.55L174.3 139.07Z" fill="#FE5B71"/>
<path d="M378.5 473.21L375.5 452.88C436.87 443.88 469.01 394.28 479.97 373.37L498.17 382.91C485.71 406.61 449.17 462.85 378.5 473.21Z" fill="#FE5B71"/>
<path d="M501.04 396.64L496.96 364.71L465.77 379.06L501.04 396.64Z" fill="#FE5B71"/>
<g opacity="0.3">
<path d="M418.25 438.47L413.27 441.08L416.43 462.31L424.85 458.26L418.25 438.47Z" fill="black"/>
</g>
<path d="M194.3 460.62C166.5 456 127.04 444.08 96.8099 414.05C68.5599 386 55.0999 346.7 61.6699 311.52C65.0599 293.37 73.8599 275.72 87.1199 260.52C99.8131 246.097 115.356 234.459 132.77 226.34C161.93 212.65 197.51 206.84 241.55 208.55L240.9 225.44C199.62 223.83 166.6 229.13 139.95 241.64C107.49 256.88 83.8599 284.86 78.2899 314.64C72.7199 344.42 84.3899 377.91 108.72 402.08C135.8 428.98 171.72 439.71 197.1 443.97L194.3 460.62Z" fill="#455A64"/>
<g opacity="0.3">
<path d="M180.89 440.57L175.9 456.74L188.24 459.9L187.78 442.17L180.89 440.57Z" fill="black"/>
</g>
<path d="M194.5 230.88C192.093 218.027 194.617 204.74 201.569 193.665C208.52 182.59 219.389 174.54 232.01 171.12L234.61 170.42C263.09 164.42 284.08 185.29 289.27 213.93L308.38 323L270.77 356.23L249.77 344.23C247.96 336.23 244.08 319.71 244.02 319.72C243.96 319.73 215.93 322.85 208.28 295.99C204.61 283 199.17 255.68 194.5 230.88Z" fill="#AE7461"/>
<path d="M244.05 319.72C244.05 319.72 261.31 316.1 276.32 299.82C276.32 299.82 273.38 322.37 245.83 327.25L244.05 319.72Z" fill="#6F4439"/>
<path d="M210.14 253C210.405 254.004 211.049 254.866 211.937 255.403C212.826 255.94 213.888 256.111 214.9 255.88C215.398 255.782 215.871 255.587 216.293 255.304C216.714 255.021 217.075 254.658 217.354 254.234C217.634 253.811 217.826 253.336 217.919 252.837C218.013 252.338 218.007 251.826 217.9 251.33C217.636 250.324 216.99 249.46 216.099 248.923C215.209 248.385 214.144 248.216 213.13 248.45C212.632 248.547 212.159 248.743 211.738 249.026C211.317 249.309 210.957 249.673 210.679 250.096C210.4 250.52 210.209 250.995 210.117 251.494C210.024 251.992 210.032 252.505 210.14 253Z" fill="#263238"/>
<path d="M203.5 241.23C204.11 241.6 206.44 238.65 210.59 237.54C214.74 236.43 218.33 237.67 218.59 237.04C218.75 236.76 218.02 235.98 216.43 235.38C214.303 234.621 211.994 234.54 209.82 235.15C207.664 235.729 205.748 236.979 204.35 238.72C203.39 240 203.2 241.07 203.5 241.23Z" fill="#263238"/>
<path d="M245.61 243.94C245.877 244.944 246.524 245.805 247.414 246.341C248.304 246.877 249.368 247.045 250.38 246.81C250.879 246.715 251.354 246.521 251.777 246.239C252.2 245.957 252.562 245.593 252.841 245.169C253.121 244.745 253.313 244.269 253.405 243.769C253.498 243.269 253.489 242.756 253.38 242.26C253.113 241.258 252.468 240.399 251.58 239.863C250.692 239.328 249.631 239.158 248.62 239.39C248.121 239.486 247.647 239.681 247.224 239.964C246.802 240.246 246.44 240.609 246.159 241.033C245.879 241.457 245.686 241.932 245.592 242.431C245.497 242.93 245.504 243.443 245.61 243.94Z" fill="#263238"/>
<path d="M244.35 231.16C244.97 231.53 247.35 228.58 251.44 227.47C255.53 226.36 259.19 227.6 259.5 226.97C259.66 226.69 258.93 225.91 257.34 225.31C255.208 224.558 252.897 224.481 250.72 225.09C248.566 225.667 246.65 226.914 245.25 228.65C244.25 230 244.06 231 244.35 231.16Z" fill="#263238"/>
<path d="M238.14 267C238.14 266.76 235.4 267 231.14 267.61C230.05 267.79 228.99 267.85 228.62 267.18C228.25 266.51 228.29 265.18 228.47 263.85C228.77 261.02 229.08 258.06 229.41 254.95C230.64 242.31 231.22 232.02 230.71 231.95C230.2 231.88 228.79 242.12 227.57 254.76C227.29 257.867 227.023 260.84 226.77 263.68C226.7 264.99 226.38 266.54 227.35 267.98C227.6 268.318 227.923 268.595 228.296 268.789C228.668 268.983 229.08 269.089 229.5 269.1C230.128 269.097 230.752 269.017 231.36 268.86C235.58 268 238.19 267.26 238.14 267Z" fill="#263238"/>
<path d="M260.66 217.31C260.11 216.2 255.91 217.22 250.84 217.16C245.77 217.1 241.57 216.16 241.02 217.3C240.78 217.83 241.6 218.84 243.36 219.79C245.695 220.931 248.26 221.525 250.86 221.525C253.459 221.525 256.025 220.931 258.36 219.79C260.07 218.86 260.9 217.84 260.66 217.31Z" fill="#263238"/>
<path d="M200 229.1C201.11 229.83 204.24 227.98 208.3 226.89C212.36 225.8 215.98 225.61 216.52 224.42C216.75 223.85 215.96 223.04 214.23 222.53C211.87 221.949 209.397 222.011 207.07 222.71C204.73 223.328 202.604 224.572 200.92 226.31C199.73 227.65 199.5 228.74 200 229.1Z" fill="#263238"/>
<path d="M292.5 233.86C292.9 233.54 309.6 223.97 314.02 242.56C318.44 261.15 297.21 262.36 297.02 261.83C296.83 261.3 292.5 233.86 292.5 233.86Z" fill="#AE7461"/>
<path d="M302.67 252.83C302.74 252.75 303.05 252.98 303.67 253.1C304.518 253.239 305.387 253.049 306.1 252.57C307.9 251.38 308.81 247.87 308.1 244.5C307.771 242.896 307.087 241.386 306.1 240.08C305.788 239.547 305.353 239.096 304.831 238.766C304.309 238.435 303.716 238.234 303.1 238.18C302.704 238.167 302.317 238.295 302.006 238.54C301.695 238.785 301.48 239.132 301.4 239.52C301.27 240.1 301.48 240.44 301.4 240.52C301.32 240.6 300.93 240.3 300.89 239.52C300.888 239.034 301.05 238.562 301.35 238.18C301.77 237.671 302.374 237.347 303.03 237.28C304.48 237.04 306.09 238.05 307.09 239.36C308.267 240.779 309.077 242.465 309.45 244.27C310.22 248.04 309.13 252 306.63 253.42C306.165 253.682 305.647 253.837 305.114 253.873C304.581 253.909 304.047 253.826 303.55 253.63C302.81 253.27 302.61 252.88 302.67 252.83Z" fill="#6F4439"/>
<path d="M150.23 214.94C150.297 213.77 150.817 212.672 151.68 211.88C153.5 210.11 155.99 209.69 158.35 209.08C164.248 207.552 169.72 204.7 174.35 200.74C172.294 200.282 170.323 199.503 168.51 198.43C164.79 196.16 161.96 191.98 162.38 187.64C162.37 187.233 162.455 186.83 162.629 186.461C162.802 186.093 163.06 185.771 163.38 185.52C164.49 184.86 165.83 185.79 166.9 186.52C170.41 188.94 173.28 189.66 177.31 188.25C179.754 187.502 181.997 186.209 183.87 184.47L184.04 184.16C184.77 182.93 185.48 181.75 186.19 180.61C191.52 172 196.38 165.76 201.97 161.79C210.16 155.96 224.97 150.85 235.02 151.06C245.07 151.27 255.41 156.91 259.02 166.28C263.25 160.53 271.22 158.66 278.3 159.7L278.45 159.59C286.25 160.43 292.16 167.05 296.04 173.88C296.26 174.25 296.45 174.63 296.66 175.01C300.014 178.311 304.112 180.756 308.61 182.14C309.4 182.38 310.31 182.69 310.61 183.47C310.682 183.874 310.649 184.289 310.514 184.676C310.379 185.063 310.147 185.409 309.84 185.68C308.397 187.323 306.607 188.624 304.6 189.49C305.663 191.098 306.867 192.608 308.2 194C309.34 195.19 310.7 196.6 310.34 198.2C310.139 198.805 309.759 199.335 309.25 199.719C308.741 200.104 308.127 200.323 307.49 200.35C306.217 200.369 304.954 200.124 303.78 199.63L307.57 204.82C305.062 205.885 302.339 206.347 299.62 206.17C299.74 213.4 301.62 226.38 300.98 231.45C296.07 232.72 294.75 232.45 292.46 233.89C289.46 235.73 292.09 241.13 287.51 240.51C285.19 240.2 279.98 232.91 278.74 230.91C270.543 217.583 265.308 202.648 263.39 187.12C259.641 184.634 255.448 182.896 251.04 182L251.43 182.21C243.2 181.4 233.99 180.86 227.64 186.16C222.71 190.26 220.82 196.85 217.75 202.48C211.93 213.15 204.09 219.98 192.4 223.32C193.3 231.78 196.2 245.26 197.64 253.01L187.43 239.26V239.33C186.69 238.55 186.03 237.75 185.43 236.95L185.22 236.71C184.219 235.38 183.151 234.102 182.02 232.88L181.96 232.96C178.69 237.61 171.24 233.48 173.44 228.24C173.88 227.198 174.473 226.227 175.2 225.36C174.48 226.493 173.479 227.42 172.294 228.051C171.11 228.682 169.782 228.995 168.44 228.96C167.102 228.879 165.828 228.359 164.815 227.481C163.803 226.602 163.108 225.414 162.84 224.1C162.727 223.2 162.853 222.285 163.203 221.448C163.554 220.611 164.119 219.881 164.84 219.33C161.534 220.402 157.984 220.468 154.64 219.52C152.5 218.85 150.15 217.51 150.23 214.94Z" fill="#263238"/>
<path d="M252.39 171.45C253.54 171.981 254.65 172.596 255.71 173.29C258.477 175.367 260.66 178.122 262.05 181.29C263.055 183.453 263.843 185.711 264.4 188.03C265.01 190.53 265.4 193.26 265.94 196.13C266.396 199.167 267.04 202.173 267.87 205.13C268.335 206.688 268.917 208.209 269.61 209.68C270.244 211.28 271.276 212.692 272.61 213.78C273.21 214.196 273.909 214.45 274.636 214.514C275.364 214.579 276.096 214.454 276.76 214.15C278.045 213.593 279.103 212.617 279.76 211.38C281.02 208.92 280.84 206.22 280.76 203.84L280.2 204.04C281.512 205.893 283.089 207.544 284.88 208.94C286.595 210.236 288.746 210.816 290.88 210.56C291.868 210.427 292.799 210.022 293.57 209.39C294.281 208.781 294.788 207.967 295.02 207.06C295.255 206.226 295.255 205.344 295.02 204.51C294.796 203.735 294.308 203.062 293.64 202.61L293.42 202.93C295.479 204.406 297.827 205.429 300.31 205.93C300.969 206.069 301.638 206.159 302.31 206.2C302.536 206.229 302.764 206.229 302.99 206.2C302.772 206.136 302.547 206.095 302.32 206.08C301.648 205.996 300.98 205.875 300.32 205.72C297.904 205.141 295.626 204.087 293.62 202.62L293.39 202.95C293.976 203.413 294.402 204.048 294.608 204.765C294.815 205.483 294.791 206.247 294.54 206.95C294.319 207.76 293.859 208.485 293.22 209.03C292.513 209.58 291.669 209.925 290.78 210.03C288.792 210.243 286.798 209.685 285.21 208.47C283.482 207.091 281.96 205.471 280.69 203.66L280.09 202.88V203.88C280.2 206.26 280.33 208.88 279.18 211.08C278.586 212.177 277.648 213.048 276.51 213.56C275.946 213.822 275.323 213.931 274.704 213.877C274.084 213.823 273.49 213.606 272.98 213.25C271.735 212.231 270.774 210.909 270.19 209.41C269.506 207.968 268.931 206.477 268.47 204.95C267.641 202.032 266.99 199.067 266.52 196.07C266.02 193.2 265.52 190.47 264.91 187.94C264.329 185.591 263.505 183.308 262.45 181.13C260.997 177.926 258.719 175.166 255.85 173.13C254.799 172.38 253.63 171.812 252.39 171.45Z" fill="#455A64"/>
<path d="M174.63 218.07C174.63 218.07 174.71 218.12 174.89 218.2L175.69 218.53C176.12 218.721 176.565 218.878 177.02 219C177.63 219.192 178.251 219.349 178.88 219.47C182.922 220.254 187.095 220.013 191.02 218.77C196.866 216.954 202.059 213.48 205.97 208.77C210.47 203.56 213.85 196.67 216.17 189.15C217.36 185.38 218.17 181.62 219.17 178.08C220.067 174.657 221.444 171.378 223.26 168.34C224.908 165.608 227.21 163.329 229.96 161.71C231.208 161.016 232.558 160.523 233.96 160.25C235.278 160.004 236.625 159.944 237.96 160.07C242.015 160.446 245.779 162.339 248.5 165.37C249.43 166.524 250.229 167.778 250.88 169.11C250.864 169.013 250.834 168.918 250.79 168.83L250.46 168.03C249.985 167.022 249.391 166.076 248.69 165.21C247.553 163.864 246.201 162.715 244.69 161.81C242.662 160.612 240.401 159.862 238.06 159.61C236.696 159.477 235.32 159.527 233.97 159.76C232.504 160.034 231.09 160.537 229.78 161.25C226.934 162.888 224.55 165.22 222.85 168.03C220.977 171.102 219.562 174.43 218.65 177.91C217.6 181.48 216.8 185.23 215.65 188.96C213.35 196.43 210.01 203.24 205.65 208.39C201.82 213.035 196.74 216.484 191.01 218.33C187.157 219.588 183.057 219.893 179.06 219.22C177.562 218.925 176.083 218.541 174.63 218.07Z" fill="#455A64"/>
<path d="M169.29 206.72C169.648 206.919 170.032 207.067 170.43 207.16C171.489 207.5 172.572 207.761 173.67 207.94C175.299 208.213 176.948 208.347 178.6 208.34C182.663 208.321 186.682 207.491 190.42 205.9C191.941 205.254 193.403 204.478 194.79 203.58C195.725 202.98 196.614 202.312 197.45 201.58C198.04 201.06 198.35 200.76 198.32 200.72C198.29 200.68 196.93 201.72 194.54 203.18C193.147 204.009 191.693 204.731 190.19 205.34C186.499 206.83 182.569 207.639 178.59 207.73C176.966 207.761 175.342 207.674 173.73 207.47C170.98 207.12 169.32 206.6 169.29 206.72Z" fill="#455A64"/>
<path d="M253.5 276.46C253.57 276.87 250.43 277.77 246.62 278.97C242.81 280.17 239.7 281.22 239.53 280.84C239.36 280.46 242.26 278.84 246.18 277.57C250.1 276.3 253.5 276.07 253.5 276.46Z" fill="#263238"/>
<path d="M239.5 218.94C239.073 219.178 238.587 219.289 238.1 219.26C236.921 219.278 235.762 218.947 234.77 218.31C233.766 217.692 232.964 216.795 232.46 215.73C232.222 215.303 232.111 214.818 232.14 214.33C232.373 214.731 232.583 215.145 232.77 215.57C233.325 216.517 234.1 217.316 235.03 217.9C235.96 218.478 237.017 218.821 238.11 218.9C238.574 218.89 239.037 218.903 239.5 218.94Z" fill="#6F4439"/>
<path d="M256.95 279.41C257.077 278.504 257.077 277.586 256.95 276.68C256.687 275.806 256.314 274.969 255.84 274.19C255.84 274.19 256.17 274.31 256.53 274.71C256.987 275.257 257.3 275.909 257.444 276.607C257.587 277.305 257.554 278.027 257.35 278.71C257.21 279.17 257.01 279.44 256.95 279.41Z" fill="#6F4439"/>
<path d="M153.5 281.39C153.5 281.39 175.4 236.97 176.9 235.18C178.4 233.39 186.38 214.82 186.38 214.82L197.5 201.48C197.5 201.48 202.74 202.27 199.41 209.04L194.68 218.04L212.07 200.57C212.07 200.57 217.23 201.17 215.22 206.64C213.73 210.71 208.42 217 208.42 217L224.03 203.45C224.03 203.45 230.53 204.45 227.41 211.27C225.41 215.7 207.18 235.81 207.18 235.81C207.18 235.81 216.26 230.2 219.18 228.34C222.1 226.48 225.01 222.43 227.13 222.81C229.25 223.19 232.95 226.48 227.43 232.74C221.91 239 206.43 248.98 204.14 250.22L201.87 251.46C201.87 251.46 199.19 258.46 195.4 261.78C195.4 261.78 189.17 281.52 186.03 286.95C183.785 290.62 180.7 293.705 177.03 295.95L167.45 321.83L140 303L153.5 281.39Z" fill="#AE7461"/>
<path d="M153.5 281.39C153.5 281.39 153.21 281.89 152.63 282.83C152.05 283.77 151.19 285.19 150.06 287.03L140.14 303.03V302.89L167.5 321.78L167.26 321.85C170.13 314.09 173.36 305.35 176.82 295.96C176.836 295.922 176.864 295.89 176.9 295.87C179.523 294.25 181.858 292.206 183.81 289.82C184.822 288.589 185.691 287.247 186.4 285.82C187.1 284.37 187.75 282.82 188.4 281.31C190.83 275.13 193.03 268.55 195.21 261.76C195.224 261.726 195.244 261.696 195.27 261.67C196.699 260.305 197.925 258.743 198.91 257.03C199.975 255.232 200.905 253.357 201.69 251.42C201.708 251.375 201.74 251.337 201.78 251.31C202.93 250.67 204.11 250.07 205.22 249.37C206.33 248.67 207.47 247.96 208.59 247.22C210.83 245.74 213.07 244.22 215.29 242.62C217.51 241.02 219.74 239.36 221.9 237.62C224.108 235.894 226.139 233.951 227.96 231.82C228.865 230.743 229.545 229.495 229.96 228.15C230.169 227.496 230.207 226.799 230.073 226.125C229.938 225.452 229.634 224.824 229.19 224.3C228.733 223.789 228.15 223.407 227.5 223.19C227.179 223.096 226.842 223.075 226.511 223.126C226.181 223.178 225.867 223.302 225.59 223.49C224.387 224.285 223.268 225.2 222.25 226.22C221.186 227.254 220.016 228.172 218.76 228.96L214.99 231.32L207.28 236C207.255 236.016 207.227 236.028 207.198 236.033C207.169 236.038 207.139 236.038 207.11 236.031C207.081 236.025 207.054 236.012 207.03 235.995C207.006 235.978 206.985 235.955 206.97 235.93C206.942 235.891 206.926 235.844 206.926 235.795C206.926 235.747 206.942 235.699 206.97 235.66L211.17 230.95C215.17 226.39 219.17 221.84 222.87 217.2C223.8 216.04 224.71 214.87 225.57 213.67C226.474 212.53 227.177 211.245 227.65 209.87C227.903 209.215 228.012 208.513 227.969 207.813C227.926 207.112 227.732 206.429 227.4 205.81C226.995 205.243 226.481 204.762 225.889 204.395C225.297 204.028 224.638 203.781 223.95 203.67H224.13L208.5 217.2C208.459 217.241 208.403 217.264 208.345 217.264C208.287 217.264 208.231 217.241 208.19 217.2C208.158 217.158 208.141 217.107 208.141 217.055C208.141 217.003 208.158 216.952 208.19 216.91C210.426 214.281 212.411 211.449 214.12 208.45C214.533 207.717 214.869 206.943 215.12 206.14C215.395 205.372 215.481 204.548 215.37 203.74C215.247 202.947 214.824 202.231 214.19 201.74C213.553 201.254 212.803 200.938 212.01 200.82L212.18 200.76L194.8 218.2C194.763 218.237 194.712 218.257 194.66 218.257C194.608 218.257 194.557 218.237 194.52 218.2C194.494 218.165 194.48 218.123 194.48 218.08C194.48 218.037 194.494 217.995 194.52 217.96L199.15 209.17C199.507 208.459 199.805 207.72 200.04 206.96C200.151 206.586 200.238 206.205 200.3 205.82C200.335 205.441 200.335 205.059 200.3 204.68C200.245 203.93 199.93 203.223 199.41 202.68C198.88 202.163 198.208 201.815 197.48 201.68L197.64 201.61L186.5 214.93C184.23 220.17 182.03 225.16 179.84 229.83C179.29 231 178.74 232.15 178.17 233.27C177.88 233.83 177.59 234.37 177.26 234.91C176.93 235.45 176.59 235.91 176.26 236.46C175.08 238.58 174.01 240.68 172.96 242.7C168.8 250.8 165.29 257.82 162.4 263.57L155.77 276.82C155.02 278.33 154.44 279.48 154.04 280.26C153.64 281.04 153.44 281.43 153.44 281.43C153.44 281.43 153.62 281.03 154 280.24L155.69 276.77L162.23 263.48C165.09 257.72 168.58 250.69 172.72 242.57C173.77 240.57 174.83 238.45 176.01 236.32C176.315 235.779 176.649 235.255 177.01 234.75C177.33 234.24 177.62 233.68 177.9 233.13C178.47 232.02 179.01 230.87 179.56 229.7C181.74 225.03 183.93 220.04 186.19 214.79L197.34 201.45C197.359 201.427 197.384 201.409 197.412 201.398C197.44 201.388 197.47 201.385 197.5 201.39C198.313 201.537 199.06 201.931 199.64 202.52C200.224 203.119 200.578 203.905 200.64 204.74C200.685 205.149 200.685 205.561 200.64 205.97C200.578 206.375 200.491 206.776 200.38 207.17C200.134 207.95 199.826 208.709 199.46 209.44L194.84 218.25L194.53 218.02C200.09 212.42 205.887 206.597 211.92 200.55C211.946 200.536 211.975 200.529 212.005 200.529C212.035 200.529 212.064 200.536 212.09 200.55C212.958 200.677 213.78 201.021 214.48 201.55C215.194 202.103 215.67 202.908 215.81 203.8C215.939 204.674 215.853 205.566 215.56 206.4C215.314 207.23 214.979 208.032 214.56 208.79C212.838 211.822 210.829 214.682 208.56 217.33L208.25 217.03L223.86 203.47C223.883 203.45 223.91 203.436 223.94 203.427C223.969 203.419 224 203.416 224.03 203.42C224.774 203.56 225.487 203.827 226.14 204.21C226.812 204.583 227.38 205.119 227.79 205.77C228.157 206.443 228.375 207.187 228.428 207.951C228.482 208.716 228.37 209.483 228.1 210.2C227.869 210.917 227.564 211.607 227.19 212.26C226.82 212.91 226.38 213.51 225.96 214.12C225.08 215.33 224.17 216.5 223.24 217.67C219.51 222.32 215.55 226.87 211.52 231.44L207.32 236.15L207.04 235.81L214.62 231.07C217.12 229.45 219.75 228.07 221.82 226.07C222.868 225.028 224.017 224.094 225.25 223.28C225.586 223.092 225.946 222.95 226.32 222.86C226.713 222.78 227.121 222.808 227.5 222.94C228.213 223.126 228.867 223.491 229.4 224C229.894 224.576 230.233 225.269 230.385 226.012C230.537 226.756 230.498 227.526 230.27 228.25C229.85 229.651 229.153 230.954 228.22 232.08C226.383 234.241 224.329 236.208 222.09 237.95C219.92 239.72 217.7 241.38 215.47 242.95C213.24 244.52 210.99 246.08 208.74 247.55C207.62 248.29 206.5 249.01 205.36 249.71C204.22 250.41 203.05 251.02 201.91 251.66L202 251.55C201.212 253.512 200.269 255.408 199.18 257.22C198.189 258.981 196.949 260.591 195.5 262L195.56 261.9C193.37 268.71 191.17 275.28 188.72 281.48C188.11 283.02 187.46 284.54 186.72 286.01C185.994 287.464 185.108 288.832 184.08 290.09C182.104 292.506 179.738 294.574 177.08 296.21L177.16 296.12L167.5 322C167.494 322.019 167.485 322.037 167.472 322.052C167.459 322.067 167.443 322.079 167.425 322.088C167.407 322.096 167.388 322.101 167.368 322.101C167.348 322.102 167.328 322.098 167.31 322.09L139.97 303.15C139.954 303.13 139.945 303.106 139.945 303.08C139.945 303.054 139.954 303.03 139.97 303.01C144.3 296.09 147.68 290.7 149.97 287.01L152.59 282.85C153.13 281.87 153.5 281.39 153.5 281.39Z" fill="#6F4439"/>
<path d="M210.91 214.19C210.63 214.621 210.312 215.026 209.96 215.4C209.32 216.16 208.37 217.25 207.19 218.57C204.8 221.21 201.44 224.8 197.48 228.51C194.695 231.145 191.771 233.629 188.72 235.95C186.825 236.486 185.031 237.331 183.41 238.45C182.25 239.25 181.67 239.8 181.64 239.77C181.61 239.74 181.76 239.6 182.03 239.34C182.431 238.965 182.852 238.611 183.29 238.28C184.894 237.087 186.695 236.183 188.61 235.61H188.55C191.08 233.61 194.1 231.06 197.23 228.12C201.23 224.42 204.57 220.88 207.01 218.3L209.89 215.23C210.204 214.859 210.545 214.511 210.91 214.19Z" fill="#6F4439"/>
<path d="M195.5 217C195.022 217.739 194.472 218.429 193.86 219.06C192.8 220.29 191.29 221.95 189.57 223.74L185.17 228.3C184.588 228.961 183.956 229.576 183.28 230.14C183.763 229.405 184.315 228.719 184.93 228.09C186.01 226.87 187.54 225.22 189.25 223.43L193.63 218.85C194.204 218.186 194.829 217.567 195.5 217Z" fill="#6F4439"/>
<path d="M207.58 235.59C207.389 235.789 207.174 235.964 206.94 236.11C206.51 236.42 205.88 236.85 205.08 237.37C202.995 238.691 200.838 239.896 198.62 240.98C196.399 242.057 194.118 243.009 191.79 243.83C190.89 244.14 190.16 244.38 189.65 244.52C189.393 244.615 189.124 244.676 188.85 244.7C189.77 244.259 190.715 243.872 191.68 243.54C193.43 242.84 195.83 241.83 198.42 240.54C201.01 239.25 203.28 238.02 204.91 237.07C205.77 236.524 206.662 236.03 207.58 235.59Z" fill="#6F4439"/>
<path d="M150.07 284.86C149.07 286.13 120.73 328.86 120.73 328.86C120.73 328.86 93.9298 370.62 90.0098 382.37C84.2898 399.52 83.0098 429.26 101.51 437.23C120.01 445.2 126.38 445.46 148.7 436.85C162.558 431.393 175.556 423.963 187.29 414.79L182.91 337.07L164.91 346.31L180.4 304.72L150.07 284.86Z" fill="#E0E0E0"/>
<path d="M388.5 351C388.5 351 402.91 362.53 408.13 401.82C411.42 426.63 420.77 486.74 420.77 486.74L366.29 486.86C366.29 486.86 355.34 409.3 356.46 408.13C357.58 406.96 388.5 351 388.5 351Z" fill="#E0E0E0"/>
<path d="M182.91 337.07L244.24 329.2C244.24 329.2 255.81 347.73 278.46 344.11C310.26 339.03 309.46 316.6 309.46 316.6C309.46 316.6 362.38 334.77 372.62 339.36C378.698 342.036 384.118 346.009 388.5 351C388.5 351 369.7 424 369.11 424.88C368.52 425.76 364.96 487.55 366.29 486.88C366.86 486.58 193.68 486.88 190.81 486.88L185.6 413.2L167.5 350.36L182.91 337.07Z" fill="#E0E0E0"/>
<path d="M172.95 325.66C172.887 325.906 172.803 326.147 172.7 326.38C172.51 326.89 172.25 327.56 171.92 328.38C171.25 330.15 170.26 332.7 169.1 335.89C166.76 342.24 163.76 351.1 160.53 360.89C158.93 365.82 157.22 370.43 156.27 374.8C155.74 376.98 155.27 379.05 154.72 380.97C154.224 382.756 153.626 384.512 152.93 386.23C152.31 387.81 151.8 389.23 151.37 390.52C150.997 391.613 150.556 392.682 150.05 393.72C149.64 394.57 149.31 395.23 149.05 395.72C148.943 395.952 148.82 396.176 148.68 396.39C148.762 396.148 148.859 395.91 148.97 395.68L149.87 393.68C150.346 392.638 150.76 391.57 151.11 390.48C151.51 389.2 152.01 387.74 152.62 386.16C153.984 382.441 155.06 378.623 155.84 374.74C156.78 370.35 158.49 365.74 160.08 360.79C163.31 350.98 166.36 342.13 168.78 335.79C169.98 332.63 171.01 330.08 171.78 328.33L172.64 326.33C172.723 326.098 172.827 325.874 172.95 325.66Z" fill="#263238"/>
<path d="M187.77 443.26C187.737 443.092 187.713 442.921 187.7 442.75C187.7 442.38 187.63 441.89 187.57 441.28C187.47 439.95 187.32 438.08 187.13 435.73C186.78 430.94 186.3 424.22 185.72 416.35C184.64 411.46 183.37 406.1 181.88 400.53C178.8 388.99 175.17 378.77 171.71 371.75C170.371 368.976 168.833 366.303 167.11 363.75C166.48 362.85 165.94 362.2 165.6 361.75L165.21 361.22L165.09 361.03C165.09 361.03 165.15 361.08 165.25 361.19L165.67 361.69C166.03 362.14 166.6 362.78 167.25 363.69C169.04 366.227 170.625 368.902 171.99 371.69C175.54 378.69 179.23 388.94 182.31 400.49C183.81 406.07 185.06 411.44 186.13 416.34C186.64 424.22 187.07 430.94 187.38 435.73C187.51 438.08 187.62 439.96 187.7 441.29C187.7 441.91 187.7 442.4 187.76 442.76C187.787 442.925 187.79 443.094 187.77 443.26Z" fill="#263238"/>
<path d="M366.27 486.89C366.27 486.7 366.27 486.4 366.27 486.05C366.27 485.29 366.27 484.21 366.27 482.84C366.27 480.02 366.27 475.99 366.32 471.03C366.4 461.03 366.51 447.25 366.63 432.03V431.79C368.63 416.64 370.52 402.93 371.86 392.97L373.5 381.19C373.7 379.82 373.86 378.75 373.97 377.99C374.02 377.65 374.07 377.37 374.1 377.16C374.109 377.065 374.129 376.971 374.16 376.88C374.169 376.976 374.169 377.074 374.16 377.17L374.07 378.01C373.98 378.77 373.85 379.84 373.68 381.21C373.33 384.02 372.82 388.03 372.19 392.99C370.88 402.99 369.07 416.66 367.08 431.82V432.06C366.91 447.29 366.75 461.06 366.63 471.06C366.55 476.06 366.49 480.06 366.44 482.87C366.44 484.24 366.39 485.32 366.37 486.08C366.37 486.427 366.37 486.707 366.37 486.92C366.26 487.08 366.28 486.89 366.27 486.89Z" fill="#263238"/>
<path d="M270.36 366.65L256.22 486.57L297.58 486.77L279.73 366.65H270.36Z" fill="#FE5B71"/>
<g opacity="0.3">
<path d="M87.96 390C87.96 390 113.05 433.41 154.69 434.36L164.19 428.73L93.44 372.56C93.44 372.56 89.25 383.34 87.96 390Z" fill="black"/>
</g>
<path d="M238.14 329.49L243.55 319.82C243.55 319.82 274.74 343.54 274.31 344.03C274.31 344.03 307.08 308.47 307.6 307.94L314.85 318.71C314.85 318.71 285.9 356 285.5 356.32C285.1 356.64 267.27 353.1 267.27 353.1L252.19 346L238.14 329.49Z" fill="#E0E0E0"/>
<path d="M265.63 358.58L270.85 368.88H280.23L283.92 356.99L276.99 348.83H272.89L265.63 358.58Z" fill="#FE5B71"/>
<path d="M274.77 346.26C274.727 346.367 274.67 346.468 274.6 346.56L274.05 347.36L271.92 350.36L264.36 360.65L264.19 360.88L264.01 360.67L257.01 353.04C251.78 347.3 247.09 342.04 243.79 338.18C242.13 336.25 240.79 334.66 239.94 333.54C239.49 332.98 239.18 332.54 238.94 332.23C238.82 332.081 238.716 331.92 238.63 331.75C238.777 331.873 238.908 332.015 239.02 332.17C239.27 332.45 239.61 332.88 240.08 333.42C241 334.5 242.35 336.05 244.08 337.95C247.45 341.76 252.17 346.95 257.4 352.71L264.4 360.36H264.05L271.75 350.18L273.99 347.28C274.23 346.98 274.44 346.73 274.6 346.52C274.648 346.428 274.705 346.341 274.77 346.26Z" fill="#263238"/>
<path d="M315.31 320.94C315.67 321.08 313.62 324.23 310.08 328.99C306.54 333.75 301.51 340.28 295.88 347.39C292.36 351.85 289.02 356.01 286.13 359.57L285.97 359.77L285.8 359.57L277.8 349.98L275.5 347.26L274.92 346.53C274.85 346.447 274.789 346.357 274.74 346.26C274.828 346.328 274.908 346.405 274.98 346.49L275.6 347.17L277.93 349.82L286.1 359.3H285.77L295.47 347.09C301.1 339.97 306.17 333.51 309.78 328.78C313.39 324.05 315.5 321 315.31 320.94Z" fill="#263238"/>
<path d="M270.14 368.16C270.387 367.24 270.722 366.346 271.14 365.49C271.81 363.87 272.79 361.66 274 359.27C275.21 356.88 276.41 354.78 277.33 353.27C277.785 352.441 278.314 351.654 278.91 350.92C278.556 351.795 278.128 352.638 277.63 353.44C276.79 354.98 275.63 357.1 274.44 359.44C273.25 361.78 272.2 364 271.44 365.58C271.075 366.473 270.641 367.335 270.14 368.16Z" fill="#263238"/>
<path d="M280 368.72C276.761 369.04 273.499 369.04 270.26 368.72C273.498 368.387 276.762 368.387 280 368.72Z" fill="#263238"/>
<g opacity="0.3">
<path d="M241.75 335.57L265.59 364.57L276.96 348.64L274.77 346.26L264.17 360.49L241.75 335.57Z" fill="black"/>
</g>
<g opacity="0.3">
<path d="M276.96 348.64C278.18 350.27 283.89 366.08 286.06 366.29C288.23 366.5 313.35 324.24 313.35 324.24L285.97 359.43L276.96 348.64Z" fill="black"/>
</g>
<g opacity="0.3">
<path d="M148.99 395.69L146.5 401.93C146.5 401.93 156.15 402.93 159.5 384.13C162.85 365.33 162.89 353.91 162.89 353.91L148.99 395.69Z" fill="black"/>
</g>
<g opacity="0.3">
<path d="M370.17 486.9L368.38 421.65L367.01 432L366.24 486.82L370.17 486.9Z" fill="black"/>
</g>
<g opacity="0.3">
<path d="M220.05 334.59C220.05 334.59 236.35 348.92 264.38 348.83C292.41 348.74 309.69 340.66 327.76 325.02L317.5 321.46C317.5 321.46 301.02 332.69 275.11 333.18C249.2 333.67 233.32 332.3 233.32 332.3L220.05 334.59Z" fill="black"/>
</g>
<path opacity="0.3" d="M256.9 487C256.9 487 264.05 475.71 275.67 469.8C287.83 463.62 294.29 463.8 294.29 463.8L292.89 454.38L275.67 454.84L260.33 466.84L258.23 474.64L256.9 487Z" fill="black"/>
<g opacity="0.3">
<path d="M190.82 484.56C190.82 484.56 197.3 474.95 210.31 463.84C223.32 452.73 293.26 411.52 293.26 411.52L394.81 358.16L388.98 350.93L227.5 429.31L188.28 463.58L190.82 484.56Z" fill="black"/>
</g>
<path d="M189.18 486.59H172.25C173.44 462.78 185.39 445.59 212.35 426.93C237.12 409.78 275.52 390.64 328.67 364.14C348.14 354.43 370.2 343.43 394.37 331.14C408.551 323.989 420.993 313.817 430.82 301.34L444.16 311.72C432.803 326.155 418.423 337.927 402.03 346.21C377.8 358.52 355.71 369.54 336.21 379.26C233.44 430.5 190.95 450.89 189.18 486.59Z" fill="#455A64"/>
<path d="M184.5 435.71C141.56 435.71 101.74 406.76 89.0101 379.19C85.3101 371.19 79.1501 355.63 79.4301 341.46C79.6501 330.19 83.9601 314.04 95.3601 305.6C100.77 301.6 108.36 298.75 116.19 297.76C125.03 296.66 133.12 298.07 138.95 301.76L128.44 318.45C124.17 315.76 112.6 317.4 107.09 321.45C102.73 324.67 99.3101 333.45 99.1501 341.84C99.0001 349.31 101.83 359.9 106.91 370.91C111.91 381.77 123.22 393.33 137.11 401.83C152.76 411.41 170.37 416.44 186.68 415.95L187.25 435.66C186.29 435.69 185.37 435.71 184.5 435.71Z" fill="#FE5B71"/>
<g opacity="0.3">
<path d="M124.34 317.22L130.08 298.22C130.08 298.22 136.59 299.93 138.65 301.77L128.25 318.17" fill="black"/>
</g>
<g opacity="0.3">
<path d="M172.42 342.61C172.82 342.41 234.42 392.44 279.53 403.96C324.64 415.48 361.92 417.47 376.43 414.47C390.94 411.47 409.22 406.31 409.22 406.31L407.1 392.36C407.1 392.36 354.16 396.45 319.62 394.2C285.08 391.95 201.73 342.61 201.73 342.61L185.18 334.67L172.42 342.61Z" fill="black"/>
</g>
<path d="M349.99 410C335.451 409.916 320.959 408.321 306.75 405.24C280 399.55 250.32 383.88 230.32 372.59C225.32 369.76 219.88 366.59 213.74 362.98C209.59 360.53 205.57 358.13 201.74 355.84C187.79 347.5 175.46 340.41 168.5 337.64C170.64 331.03 172.87 324.72 175.2 318.77C183.63 322.12 196.57 329.77 211.85 338.91C215.67 341.19 219.66 343.57 223.78 346.01C229.78 349.57 235.13 352.65 240.03 355.42C258.9 366.07 286.76 380.83 310.86 385.95C337.86 391.69 376.73 394.6 408.63 375.95C423.5 367.13 435.55 355 442.5 341.67C450.43 326.46 451.9 310.09 446.87 293.01C439.42 267.73 413.64 253.71 382.71 258.15C363.42 260.91 346.71 268.67 331.92 275.51C320.78 280.67 311.16 285.13 302.06 286.74L298.63 267.32C305.2 266.16 313.74 262.2 323.63 257.62C338.83 250.57 357.76 241.8 379.91 238.62C399.91 235.75 418.78 238.95 434.36 247.89C449.56 256.502 460.824 270.677 465.78 287.43C472.21 309.26 470.21 331.17 459.98 350.78C451.22 367.58 436.91 382.13 418.59 392.87C396.67 405.72 372.42 410 349.99 410Z" fill="#FE5B71"/>
<g opacity="0.3">
<path d="M381.77 238.52C384.26 245.95 382.77 258.45 382.77 258.45L378.33 258.88C378.733 252.271 378.129 245.638 376.54 239.21L381.77 238.52Z" fill="black"/>
</g>
<g opacity="0.3">
<path d="M404.98 238.29C405.898 244.925 405.898 251.655 404.98 258.29L400.58 257.49V237.79L404.98 238.29Z" fill="black"/>
</g>
<g opacity="0.3">
<path d="M449.5 305.45L449.77 311.63C449.77 311.63 462.14 300.17 464.24 283.13C463.221 280.027 461.898 277.033 460.29 274.19L449.5 305.45Z" fill="black"/>
</g>
<g opacity="0.3">
<path d="M305.76 265.27C305.76 265.6 308.85 284.9 308.85 284.9C306.509 285.762 304.101 286.43 301.65 286.9L298.56 267.22C301.044 266.934 303.471 266.276 305.76 265.27Z" fill="black"/>
</g>
<path d="M265.39 343.76C255.637 343.863 245.949 342.168 236.81 338.76C233.24 337.37 228.25 335.17 222.96 332.85C218.49 330.85 213.87 328.85 209.46 327C203.23 324.4 195.07 324.74 193.36 328L178.36 320.11C184.97 307.43 202.89 305.92 215.94 311.37C220.49 313.28 225.19 315.37 229.73 317.37C234.85 319.62 239.68 321.75 242.91 323.01C253.96 327.31 268.58 328.07 282.02 325.01C299.23 321.12 320.85 307.58 332.33 293.5C344.51 278.56 348.52 261.18 343.33 245.81C338.43 231.3 314 221.6 300.67 222.95L298.96 206.13C318.22 204.13 351.29 216.56 359.34 240.41C366.43 261.41 361.34 284.64 345.43 304.18C331.63 321.11 306.53 336.8 285.74 341.49C279.062 342.999 272.236 343.76 265.39 343.76Z" fill="#455A64"/>
<path d="M239.91 486.58C239.91 475.08 246.82 462.64 258.44 453.31C287.08 430.31 328.96 435.26 351.38 440.26L347.7 456.76C302.37 446.66 278.95 458.52 269.02 466.49C260.02 473.73 256.81 481.83 256.81 486.56L239.91 486.58Z" fill="#455A64"/>
<path d="M338.92 461.32L363.83 452.04L346.22 432.03L338.92 461.32Z" fill="#455A64"/>
<g opacity="0.3">
<path d="M307.78 206.07L306.35 222.89H300.85L299.26 206C302.089 205.618 304.958 205.641 307.78 206.07Z" fill="black"/>
</g>
<g opacity="0.3">
<path d="M180.89 316.39C180.89 316.39 195.19 326.39 195 326.39C194.292 326.714 193.714 327.267 193.36 327.96L178.36 320.07C179.098 318.774 179.944 317.543 180.89 316.39Z" fill="black"/>
</g>
<path d="M320.12 135.14L299.97 163.11L332.2 173.39L320.12 135.14Z" fill="#455A64"/>
<path d="M418 336.76L411.24 321.27H411.13C411.25 321.22 423.01 315.53 434.7 295.36C446.49 275.02 446.39 244.1 446.37 242.04C444.37 203.81 427.46 177.28 396.01 163.18L395.5 163C384.829 158.303 373.32 155.811 361.663 155.672C350.005 155.532 338.439 157.75 327.66 162.19L320.29 165.24L313.84 149.61L321.22 146.61C334.114 141.302 347.949 138.654 361.892 138.826C375.835 138.998 389.6 141.985 402.36 147.61L402.94 147.86C440.17 164.56 461.03 196.92 463.28 241.45V241.7C463.28 243.21 463.89 278.87 449.35 303.95C434.81 329.03 419.68 336 418 336.76Z" fill="#455A64"/>
<path d="M373.57 339.91L355.37 332.76C357.601 326.79 360.203 320.965 363.16 315.32C366.91 307.91 370.78 300.25 373.85 290.59C384.98 255.59 383.48 236.32 376.52 210.95L395.52 205.72C403.34 234.19 405.19 257.09 392.63 296.57C389.08 307.74 384.63 316.49 380.75 324.21C378.051 329.298 375.654 334.54 373.57 339.91Z" fill="#FE5B71"/>
<path d="M403.43 206.55L378.48 182.58L364.97 214.53L403.43 206.55Z" fill="#FE5B71"/>
<g opacity="0.3">
<path d="M355.37 332.74L357.05 328.6L375.34 335.13L373.57 339.91L355.37 332.74Z" fill="black"/>
</g>
<path d="M405.723 166.472C432.842 163.458 452.384 139.031 449.371 111.912C446.358 84.7922 421.93 65.2503 394.811 68.2636C367.692 71.2769 348.15 95.7042 351.163 122.824C354.176 149.943 378.604 169.485 405.723 166.472Z" fill="white"/>
<path d="M352.35 116.29C352.405 116.027 352.436 115.759 352.44 115.49C352.44 114.92 352.54 114.14 352.61 113.14C352.61 112.62 352.68 112.04 352.72 111.41C352.76 110.78 352.93 110.09 353.04 109.34C353.248 107.615 353.582 105.907 354.04 104.23C355.203 99.6036 357.061 95.1801 359.55 91.11C366.107 80.3024 376.545 72.4081 388.729 69.0418C400.914 65.6754 413.924 67.0914 425.1 73C427.188 74.1477 429.193 75.4409 431.1 76.87C433.059 78.3251 434.92 79.9086 436.67 81.61C438.403 83.3843 440.017 85.2718 441.5 87.26C444.549 91.3621 446.913 95.9314 448.5 100.79C450.114 105.801 450.97 111.026 451.04 116.29C450.978 121.554 450.125 126.779 448.51 131.79C446.915 136.645 444.551 141.213 441.51 145.32C440.034 147.327 438.423 149.231 436.69 151.02C434.942 152.724 433.081 154.307 431.12 155.76C429.213 157.189 427.208 158.482 425.12 159.63C423.048 160.712 420.907 161.654 418.71 162.45C407.953 166.348 396.176 166.385 385.396 162.554C374.616 158.722 365.503 151.262 359.62 141.45C357.133 137.379 355.275 132.956 354.11 128.33C353.653 126.653 353.319 124.945 353.11 123.22C353 122.47 352.86 121.78 352.79 121.15C352.72 120.52 352.71 119.94 352.68 119.42C352.61 118.42 352.55 117.64 352.51 117.07C352.505 116.798 352.475 116.527 352.42 116.26C352.402 116.53 352.402 116.8 352.42 117.07C352.42 117.65 352.42 118.43 352.49 119.43C352.49 119.96 352.49 120.54 352.56 121.17C352.63 121.8 352.74 122.5 352.83 123.26C353.039 125.002 353.373 126.726 353.83 128.42C354.937 133.109 356.762 137.598 359.24 141.73C362.839 147.83 367.696 153.094 373.488 157.172C379.28 161.25 385.873 164.048 392.83 165.38C401.621 167.04 410.696 166.312 419.11 163.27C421.351 162.471 423.533 161.515 425.64 160.41C427.78 159.247 429.835 157.934 431.79 156.48C433.791 155.002 435.692 153.391 437.48 151.66C439.246 149.84 440.886 147.902 442.39 145.86C445.507 141.676 447.929 137.016 449.56 132.06C451.215 126.954 452.088 121.627 452.15 116.26C452.067 110.9 451.173 105.583 449.5 100.49C447.865 95.5355 445.444 90.8761 442.33 86.69C440.82 84.653 439.176 82.7187 437.41 80.9C435.628 79.1661 433.73 77.5557 431.73 76.08C427.888 73.1607 423.609 70.8689 419.05 69.29C410.636 66.2482 401.561 65.5196 392.77 67.18C385.813 68.5123 379.22 71.3103 373.428 75.3881C367.636 79.4658 362.779 84.7298 359.18 90.83C356.701 94.9611 354.876 99.4509 353.77 104.14C353.312 105.834 352.978 107.558 352.77 109.3C352.68 110.05 352.55 110.75 352.5 111.38C352.45 112.01 352.45 112.6 352.43 113.13C352.43 114.13 352.38 114.91 352.36 115.49C352.338 115.756 352.335 116.023 352.35 116.29Z" fill="#263238"/>
<path d="M389.5 104.06H396.14C396.14 104.06 396.14 98.48 401.94 98.38C403.057 98.3411 404.158 98.6503 405.092 99.2648C406.025 99.8793 406.744 100.769 407.15 101.81C407.496 102.682 407.633 103.623 407.55 104.557C407.466 105.491 407.165 106.393 406.67 107.19C405.55 109.05 403.08 110.74 398.6 109.95V124.95H405.17V116.16C405.17 116.16 414.38 113.77 414.38 103.62C414.38 93.91 405.67 91.62 401.94 91.62C399.07 91.65 389.36 92.34 389.5 104.06Z" fill="#263238"/>
<path d="M405.23 128.02H398.56V134.25H405.23V128.02Z" fill="#263238"/>
<path d="M367.86 174.432C370.635 171.357 370.391 166.614 367.316 163.839C364.241 161.064 359.498 161.308 356.724 164.383C353.949 167.459 354.192 172.201 357.268 174.976C360.343 177.751 365.085 177.507 367.86 174.432Z" fill="white"/>
<path d="M354.79 169.39C354.89 169.39 354.9 168.72 355.23 167.61C355.701 166.053 356.666 164.691 357.98 163.73C359.024 162.97 360.258 162.514 361.545 162.412C362.833 162.31 364.123 162.566 365.274 163.152C366.425 163.738 367.391 164.63 368.066 165.731C368.741 166.832 369.098 168.099 369.098 169.39C369.098 170.681 368.741 171.948 368.066 173.049C367.391 174.15 366.425 175.042 365.274 175.628C364.123 176.214 362.833 176.47 361.545 176.368C360.258 176.266 359.024 175.81 357.98 175.05C356.666 174.089 355.701 172.727 355.23 171.17C354.9 170.06 354.89 169.39 354.79 169.39C354.624 170.006 354.624 170.654 354.79 171.27C355.138 173.006 356.095 174.559 357.49 175.65C358.528 176.476 359.76 177.023 361.069 177.24C362.378 177.457 363.72 177.337 364.97 176.89C366.501 176.322 367.821 175.299 368.753 173.958C369.686 172.617 370.186 171.023 370.186 169.39C370.186 167.757 369.686 166.163 368.753 164.822C367.821 163.482 366.501 162.458 364.97 161.89C363.72 161.446 362.378 161.327 361.069 161.544C359.761 161.761 358.529 162.307 357.49 163.13C356.099 164.224 355.142 165.776 354.79 167.51C354.624 168.126 354.624 168.774 354.79 169.39Z" fill="#263238"/>
<path d="M162.638 167.129C164.964 152.909 155.322 139.496 141.102 137.17C126.882 134.844 113.469 144.486 111.142 158.706C108.816 172.926 118.458 186.339 132.678 188.665C146.899 190.992 160.312 181.35 162.638 167.129Z" fill="white"/>
<path d="M162.99 162.93C162.958 162.792 162.942 162.651 162.94 162.51C162.94 162.21 162.89 161.8 162.85 161.27C162.85 161 162.85 160.69 162.79 160.36C162.73 160.03 162.68 159.67 162.62 159.27C162.508 158.364 162.324 157.467 162.07 156.59C161.458 154.155 160.484 151.826 159.18 149.68C157.466 146.833 155.222 144.342 152.57 142.34C149.365 139.9 145.631 138.249 141.67 137.52C137.123 136.683 132.436 137.073 128.09 138.65C125.744 139.479 123.542 140.666 121.56 142.17C120.528 142.937 119.549 143.772 118.63 144.67C117.717 145.612 116.868 146.614 116.09 147.67C114.488 149.831 113.242 152.235 112.4 154.79C110.627 160.079 110.627 165.801 112.4 171.09C113.242 173.645 114.488 176.049 116.09 178.21C116.868 179.263 117.713 180.266 118.62 181.21C119.544 182.1 120.523 182.931 121.55 183.7C122.562 184.435 123.621 185.103 124.72 185.7C125.809 186.267 126.935 186.762 128.09 187.18C132.439 188.757 137.129 189.151 141.68 188.32C145.289 187.636 148.712 186.198 151.728 184.101C154.743 182.004 157.283 179.295 159.18 176.15C160.484 174.008 161.458 171.682 162.07 169.25C162.324 168.369 162.508 167.47 162.62 166.56C162.68 166.17 162.76 165.8 162.79 165.47C162.82 165.14 162.79 164.83 162.85 164.56C162.85 164.04 162.92 163.63 162.94 163.32C162.942 163.179 162.958 163.038 162.99 162.9C163.003 163.04 163.003 163.18 162.99 163.32C162.99 163.63 162.99 164.04 162.99 164.57V165.48C162.99 165.82 162.9 166.18 162.85 166.58C162.743 167.494 162.573 168.4 162.34 169.29C161.753 171.755 160.792 174.116 159.49 176.29C156.391 181.559 151.545 185.577 145.793 187.646C140.041 189.716 133.746 189.707 128 187.62C126.821 187.194 125.672 186.69 124.56 186.11C123.436 185.497 122.356 184.805 121.33 184.04C120.275 183.264 119.273 182.419 118.33 181.51C117.401 180.554 116.539 179.535 115.75 178.46C114.105 176.261 112.828 173.809 111.97 171.2C111.102 168.514 110.644 165.713 110.61 162.89C110.642 160.067 111.104 157.264 111.98 154.58C112.839 151.973 114.112 149.522 115.75 147.32C116.541 146.263 117.403 145.26 118.33 144.32C119.273 143.411 120.275 142.566 121.33 141.79C122.356 141.025 123.436 140.333 124.56 139.72C129.862 136.952 135.936 136.033 141.82 137.11C145.48 137.809 148.949 139.28 151.996 141.425C155.043 143.57 157.598 146.34 159.49 149.55C160.794 151.723 161.755 154.084 162.34 156.55C162.573 157.44 162.743 158.346 162.85 159.26C162.9 159.66 162.96 160.02 162.99 160.36V161.28C162.99 161.8 162.99 162.21 162.99 162.52C163.003 162.656 163.003 162.794 162.99 162.93Z" fill="#263238"/>
<path d="M128.93 157.93H133.19C133.187 157.444 133.282 156.963 133.469 156.515C133.656 156.067 133.931 155.661 134.278 155.321C134.625 154.982 135.037 154.715 135.489 154.538C135.941 154.361 136.425 154.277 136.91 154.29C137.627 154.26 138.336 154.456 138.935 154.851C139.535 155.246 139.995 155.819 140.25 156.49C140.477 157.048 140.568 157.651 140.516 158.251C140.464 158.851 140.27 159.43 139.95 159.94C139.23 161.13 137.64 162.22 134.77 161.71V171.32H138.99V165.69C140.714 165.185 142.225 164.13 143.292 162.685C144.36 161.241 144.924 159.486 144.9 157.69C144.9 151.46 139.31 150.01 136.9 150.01C135.08 150 128.85 150.41 128.93 157.93Z" fill="#263238"/>
<path d="M139.04 173.3H134.76V177.3H139.04V173.3Z" fill="#263238"/>
<path d="M174.58 175.3C174.582 176.169 174.326 177.018 173.845 177.742C173.364 178.465 172.679 179.029 171.877 179.363C171.075 179.697 170.192 179.785 169.339 179.617C168.487 179.449 167.704 179.031 167.089 178.418C166.474 177.804 166.055 177.022 165.885 176.17C165.715 175.318 165.801 174.435 166.133 173.632C166.465 172.83 167.028 172.143 167.75 171.661C168.472 171.178 169.321 170.92 170.19 170.92C171.352 170.92 172.467 171.381 173.29 172.202C174.113 173.023 174.577 174.137 174.58 175.3Z" fill="white"/>
<path d="M174.58 175.3C174.52 175.3 174.52 174.91 174.32 174.3C174.045 173.388 173.48 172.591 172.71 172.03C172.096 171.575 171.367 171.299 170.606 171.233C169.844 171.167 169.079 171.314 168.396 171.657C167.713 172 167.139 172.526 166.737 173.176C166.335 173.826 166.121 174.576 166.12 175.34C166.121 176.104 166.335 176.854 166.737 177.504C167.139 178.154 167.713 178.68 168.396 179.023C169.079 179.366 169.844 179.513 170.606 179.447C171.367 179.381 172.096 179.105 172.71 178.65C173.482 178.091 174.048 177.293 174.32 176.38C174.52 175.73 174.52 175.38 174.58 175.38C174.675 175.74 174.675 176.12 174.58 176.48C174.375 177.494 173.815 178.402 173 179.04C172.392 179.523 171.67 179.844 170.904 179.971C170.138 180.099 169.352 180.03 168.62 179.77C167.709 179.452 166.92 178.859 166.361 178.072C165.803 177.285 165.503 176.345 165.503 175.38C165.503 174.415 165.803 173.475 166.361 172.688C166.92 171.901 167.709 171.308 168.62 170.99C169.352 170.733 170.138 170.665 170.904 170.793C171.669 170.92 172.39 171.239 173 171.72C173.811 172.361 174.37 173.268 174.58 174.28C174.663 174.615 174.663 174.965 174.58 175.3Z" fill="#263238"/>
<path d="M444.33 429.15C463.765 429.15 479.52 413.395 479.52 393.96C479.52 374.525 463.765 358.77 444.33 358.77C424.895 358.77 409.14 374.525 409.14 393.96C409.14 413.395 424.895 429.15 444.33 429.15Z" fill="white"/>
<path d="M479.5 394C479.459 393.813 479.436 393.622 479.43 393.43C479.43 393.02 479.37 392.43 479.31 391.76C479.31 391.39 479.26 390.98 479.24 390.54C479.22 390.1 479.09 389.6 479.01 389.07C478.847 387.844 478.6 386.632 478.27 385.44C477.436 382.16 476.119 379.022 474.36 376.13C469.71 368.47 462.312 362.873 453.677 360.481C445.041 358.09 435.818 359.083 427.89 363.26C426.404 364.072 424.977 364.987 423.62 366C422.213 367.033 420.877 368.159 419.62 369.37C418.392 370.623 417.253 371.96 416.21 373.37C414.042 376.279 412.354 379.517 411.21 382.96C410.065 386.516 409.458 390.224 409.41 393.96C409.452 397.696 410.059 401.405 411.21 404.96C412.35 408.411 414.039 411.656 416.21 414.57C417.258 415.976 418.397 417.312 419.62 418.57C420.877 419.778 422.213 420.9 423.62 421.93C424.979 422.943 426.406 423.861 427.89 424.68C429.359 425.449 430.88 426.117 432.44 426.68C438.299 428.808 444.619 429.336 450.75 428.21C455.619 427.292 460.24 425.356 464.308 422.528C468.377 419.7 471.803 416.044 474.36 411.8C476.123 408.91 477.441 405.772 478.27 402.49C478.599 401.302 478.846 400.092 479.01 398.87C479.09 398.33 479.19 397.87 479.24 397.4C479.29 396.93 479.29 396.54 479.31 396.17C479.37 395.46 479.4 394.91 479.43 394.5C479.44 394.332 479.463 394.165 479.5 394C479.513 394.19 479.513 394.38 479.5 394.57C479.5 394.98 479.5 395.57 479.5 396.25C479.5 396.62 479.5 397.03 479.5 397.48C479.5 397.93 479.37 398.43 479.3 398.96C479.165 400.195 478.937 401.419 478.62 402.62C477.834 405.949 476.539 409.137 474.78 412.07C472.223 416.396 468.777 420.129 464.669 423.021C460.56 425.914 455.884 427.901 450.95 428.85C444.714 430.021 438.278 429.503 432.31 427.35C429.076 426.225 426.039 424.598 423.31 422.53C421.899 421.483 420.563 420.341 419.31 419.11C418.054 417.821 416.888 416.448 415.82 415C413.608 412.032 411.889 408.726 410.73 405.21C408.29 397.936 408.29 390.064 410.73 382.79C411.891 379.275 413.609 375.969 415.82 373C416.888 371.552 418.054 370.179 419.31 368.89C420.568 367.665 421.904 366.522 423.31 365.47C424.697 364.44 426.154 363.508 427.67 362.68C429.168 361.907 430.719 361.239 432.31 360.68C438.278 358.524 444.715 358.01 450.95 359.19C455.884 360.135 460.561 362.119 464.67 365.01C468.778 367.902 472.225 371.634 474.78 375.96C476.537 378.894 477.832 382.082 478.62 385.41C478.937 386.611 479.165 387.835 479.3 389.07C479.37 389.6 479.46 390.07 479.5 390.55C479.54 391.03 479.5 391.41 479.5 391.78C479.5 392.5 479.5 393.05 479.5 393.46C479.512 393.64 479.512 393.82 479.5 394Z" fill="#263238"/>
<path d="M434.83 386H439.91C439.907 385.42 440.02 384.846 440.244 384.311C440.467 383.776 440.795 383.291 441.209 382.886C441.623 382.48 442.115 382.162 442.654 381.949C443.194 381.737 443.77 381.635 444.35 381.65C445.207 381.617 446.054 381.853 446.771 382.324C447.488 382.796 448.04 383.48 448.35 384.28C448.617 384.946 448.723 385.665 448.659 386.379C448.594 387.094 448.362 387.783 447.98 388.39C447.12 389.82 445.23 391.11 441.8 390.51V402H446.8V395.29C448.863 394.682 450.671 393.413 451.944 391.679C453.218 389.945 453.887 387.841 453.85 385.69C453.85 378.25 447.19 376.53 444.33 376.53C442.17 376.48 434.73 377 434.83 386Z" fill="#263238"/>
<path d="M446.88 404.31H441.78V409.08H446.88V404.31Z" fill="#263238"/>
<path d="M407.03 355C407.028 356.155 407.369 357.286 408.009 358.247C408.65 359.209 409.561 359.959 410.628 360.403C411.695 360.846 412.869 360.963 414.003 360.739C415.136 360.515 416.178 359.959 416.996 359.143C417.813 358.327 418.371 357.286 418.597 356.153C418.823 355.02 418.708 353.845 418.266 352.777C417.824 351.71 417.076 350.797 416.115 350.155C415.155 349.513 414.025 349.17 412.87 349.17C411.323 349.17 409.839 349.784 408.744 350.877C407.649 351.97 407.032 353.453 407.03 355Z" fill="white"/>
<path d="M407.03 355C407.11 355 407.11 354.48 407.37 353.62C407.743 352.414 408.497 351.361 409.52 350.62C410.335 350.016 411.303 349.651 412.314 349.565C413.325 349.479 414.34 349.675 415.246 350.131C416.152 350.588 416.914 351.287 417.446 352.151C417.978 353.016 418.26 354.01 418.26 355.025C418.26 356.04 417.978 357.035 417.446 357.899C416.914 358.763 416.152 359.462 415.246 359.919C414.34 360.375 413.325 360.571 412.314 360.485C411.303 360.399 410.335 360.034 409.52 359.43C408.499 358.687 407.745 357.635 407.37 356.43C407.11 355.56 407.11 355.04 407.03 355.04C406.913 355.523 406.913 356.027 407.03 356.51C407.305 357.856 408.049 359.061 409.13 359.91C409.936 360.559 410.895 360.992 411.915 361.167C412.935 361.342 413.983 361.253 414.96 360.91C416.169 360.485 417.217 359.695 417.958 358.649C418.7 357.603 419.098 356.352 419.098 355.07C419.098 353.788 418.7 352.537 417.958 351.491C417.217 350.445 416.169 349.655 414.96 349.23C413.982 348.891 412.935 348.805 411.916 348.98C410.897 349.155 409.938 349.585 409.13 350.23C408.048 351.083 407.304 352.291 407.03 353.64C406.926 354.087 406.926 354.553 407.03 355Z" fill="#263238"/>
<path d="M125.865 455.715C129.784 442.857 122.537 429.256 109.678 425.337C96.8196 421.418 83.2186 428.665 79.2996 441.523C75.3806 454.382 82.6276 467.983 95.4863 471.902C108.345 475.821 121.946 468.574 125.865 455.715Z" fill="white"/>
<path d="M126.92 448.65C126.91 448.517 126.91 448.383 126.92 448.25C126.92 447.97 126.92 447.59 126.83 447.1C126.83 446.84 126.83 446.56 126.78 446.25C126.73 445.94 126.68 445.6 126.62 445.25C126.509 444.406 126.338 443.57 126.11 442.75C125.54 440.478 124.626 438.306 123.4 436.31C120.52 431.487 116.048 427.82 110.754 425.94C105.461 424.06 99.6771 424.084 94.4 426.01C93.3235 426.403 92.2745 426.867 91.26 427.4C90.2165 427.962 89.214 428.597 88.26 429.3C87.2881 430.002 86.3659 430.771 85.5 431.6C84.6496 432.478 83.8611 433.413 83.14 434.4C81.6541 436.403 80.4995 438.631 79.72 441C78.0666 445.935 78.0666 451.275 79.72 456.21C80.5031 458.594 81.6646 460.836 83.16 462.85C83.8845 463.837 84.6764 464.772 85.53 465.65C86.3873 466.493 87.2993 467.278 88.26 468C89.214 468.703 90.2165 469.338 91.26 469.9C95.3363 472.081 99.9531 473.047 104.562 472.682C109.171 472.317 113.578 470.636 117.26 467.84C119.716 465.975 121.787 463.652 123.36 461C124.583 459.002 125.496 456.831 126.07 454.56C126.297 453.736 126.468 452.897 126.58 452.05C126.64 451.68 126.71 451.35 126.74 451.05C126.77 450.75 126.74 450.45 126.79 450.2C126.79 449.71 126.86 449.32 126.88 449.04C126.869 448.91 126.869 448.78 126.88 448.65C126.891 448.78 126.891 448.91 126.88 449.04C126.88 449.33 126.88 449.71 126.88 450.2C126.88 450.46 126.88 450.74 126.88 451.06C126.88 451.38 126.79 451.71 126.74 452.06C126.649 452.914 126.492 453.76 126.27 454.59C125.726 456.893 124.832 459.098 123.62 461.13C120.727 466.048 116.204 469.797 110.836 471.728C105.467 473.659 99.5921 473.649 94.23 471.7C91.993 470.927 89.8934 469.803 88.01 468.37C87.0208 467.645 86.082 466.853 85.2 466C84.3302 465.105 83.5217 464.153 82.78 463.15C81.2531 461.096 80.0648 458.81 79.26 456.38C78.4515 453.872 78.0267 451.255 78 448.62C78.0258 445.987 78.4541 443.374 79.27 440.87C80.0678 438.437 81.2568 436.151 82.79 434.1C83.5278 433.097 84.333 432.144 85.2 431.25C86.0756 430.401 87.0078 429.613 87.99 428.89C89.8734 427.457 91.973 426.333 94.21 425.56C99.5748 423.619 105.45 423.615 110.817 425.549C116.184 427.483 120.706 431.233 123.6 436.15C124.812 438.179 125.705 440.381 126.25 442.68C126.47 443.51 126.627 444.356 126.72 445.21C126.72 445.58 126.83 445.92 126.86 446.21C126.89 446.5 126.86 446.81 126.86 447.06C126.86 447.56 126.86 447.94 126.86 448.22C126.893 448.361 126.913 448.505 126.92 448.65Z" fill="#263238"/>
<path d="M96 443.12H99.5C99.4999 442.72 99.5798 442.324 99.7349 441.956C99.89 441.587 100.117 441.253 100.403 440.974C100.689 440.694 101.028 440.475 101.4 440.328C101.773 440.181 102.17 440.111 102.57 440.12C103.161 440.097 103.745 440.258 104.24 440.583C104.735 440.907 105.116 441.378 105.33 441.93C105.515 442.391 105.589 442.89 105.546 443.385C105.503 443.88 105.343 444.358 105.08 444.78C104.48 445.78 103.17 446.66 100.8 446.24V454.18H104.3V449.53C105.729 449.111 106.981 448.235 107.862 447.035C108.744 445.835 109.207 444.379 109.18 442.89C109.18 437.75 104.57 436.55 102.59 436.55C101.08 436.55 95.94 436.92 96 443.12Z" fill="#263238"/>
<path d="M104.34 455.81H100.81V459.11H104.34V455.81Z" fill="#263238"/>
<path d="M118.55 417.7C118.548 418.814 118.876 419.903 119.494 420.831C120.111 421.758 120.99 422.481 122.018 422.909C123.047 423.336 124.179 423.449 125.272 423.233C126.365 423.017 127.369 422.482 128.157 421.695C128.946 420.908 129.483 419.905 129.701 418.812C129.919 417.72 129.808 416.587 129.382 415.558C128.956 414.529 128.235 413.649 127.309 413.03C126.383 412.411 125.294 412.08 124.18 412.08C122.688 412.08 121.258 412.672 120.202 413.726C119.147 414.779 118.552 416.209 118.55 417.7Z" fill="white"/>
<path d="M118.55 417.7C118.62 417.7 118.63 417.2 118.88 416.37C119.228 415.2 119.952 414.177 120.94 413.46C121.653 412.943 122.482 412.61 123.354 412.49C124.226 412.369 125.114 412.466 125.94 412.77C126.945 413.146 127.811 413.821 128.422 414.703C129.033 415.585 129.361 416.632 129.361 417.705C129.361 418.778 129.033 419.826 128.422 420.707C127.811 421.589 126.945 422.264 125.94 422.64C125.114 422.944 124.226 423.041 123.354 422.92C122.482 422.8 121.653 422.467 120.94 421.95C119.945 421.223 119.22 420.185 118.88 419C118.63 418.17 118.62 417.66 118.55 417.66C118.428 418.126 118.428 418.614 118.55 419.08C118.815 420.373 119.522 421.533 120.55 422.36C121.332 422.978 122.257 423.387 123.24 423.55C124.223 423.712 125.231 423.623 126.17 423.29C127.318 422.864 128.309 422.096 129.008 421.091C129.707 420.085 130.082 418.89 130.082 417.665C130.082 416.44 129.707 415.245 129.008 414.239C128.309 413.234 127.318 412.466 126.17 412.04C125.231 411.707 124.223 411.618 123.24 411.78C122.257 411.943 121.332 412.352 120.55 412.97C119.522 413.797 118.815 414.957 118.55 416.25C118.42 416.725 118.42 417.225 118.55 417.7Z" fill="#263238"/>
</svg>
