<svg width="551" height="551" viewBox="0 0 551 551" fill="none" xmlns="http://www.w3.org/2000/svg">
<rect width="551" height="551" rx="12" fill="#F7F8FA"/>
<path d="M396.709 45.2434L366.816 60.2362C365.721 60.7016 364.787 61.4788 364.131 62.4711C363.475 63.4633 363.126 64.6267 363.126 65.8163V79.7972C363.1 92.5072 366.806 104.945 373.786 115.567C379.172 123.743 386.316 134.26 398.201 140.259H403.557C416.792 136.171 426.664 125.47 432.694 116.272C439.673 105.65 443.379 93.2122 443.353 80.5024V65.8163C443.353 64.6282 443.005 63.4662 442.351 62.4743C441.697 61.4824 440.766 60.7042 439.674 60.2362L405.621 45.7238C404.098 45.0799 398.222 44.5996 396.709 45.2434Z" fill="#E0E0E0"/>
<path d="M395.503 45.7237L361.45 60.2361C360.355 60.7015 359.422 61.4788 358.766 62.471C358.11 63.4633 357.76 64.6267 357.761 65.8162V79.7972C357.762 92.7498 361.604 105.411 368.803 116.179C376.002 126.947 386.233 135.338 398.201 140.289C411.426 136.201 421.299 125.501 427.339 116.303C434.319 105.67 438.025 93.2219 437.998 80.5024V65.8162C437.999 64.6267 437.649 63.4633 436.993 62.471C436.337 61.4788 435.403 60.7015 434.309 60.2361L400.256 45.7237C399.503 45.4075 398.695 45.2446 397.879 45.2446C397.063 45.2446 396.256 45.4075 395.503 45.7237Z" fill="#F5F5F5"/>
<path d="M437.886 76.7108C437.932 76.9222 437.952 77.1384 437.947 77.3547C437.947 77.835 437.998 78.4482 438.029 79.2045C438.059 79.9608 438.11 80.993 438.029 82.1376C437.947 83.2823 438.029 84.5904 437.845 86.0212C437.661 87.452 437.61 89.0872 437.313 90.7122C437.18 91.5503 437.078 92.419 436.904 93.3081C436.731 94.1972 436.516 95.0966 436.322 96.0266C435.38 100.062 434.062 104 432.387 107.79C430.666 111.561 428.614 115.173 426.255 118.582C425.121 120.115 424.068 121.648 422.944 122.864C422.392 123.508 421.922 124.162 421.36 124.735L419.806 126.38C418.835 127.402 417.844 128.301 417.016 129.099C416.188 129.896 415.432 130.519 414.809 131.02L413.47 132.185C413.311 132.33 413.136 132.457 412.949 132.563C413.085 132.393 413.239 132.239 413.409 132.103L414.788 130.867C415.391 130.345 416.127 129.691 416.924 128.823C417.721 127.954 418.703 127.157 419.643 126.073L421.166 124.408C421.687 123.835 422.188 123.181 422.719 122.537C423.823 121.26 424.845 119.778 425.959 118.245C428.273 114.851 430.29 111.264 431.989 107.524C433.645 103.762 434.961 99.8594 435.923 95.8631L436.526 93.165C436.71 92.2861 436.823 91.4174 436.966 90.5896C437.272 88.9339 437.395 87.3703 437.548 85.9395C437.702 84.5087 437.722 83.221 437.804 82.0763C437.886 80.9317 437.875 79.9608 437.875 79.1534C437.875 78.346 437.875 77.7839 437.875 77.3036C437.858 77.1062 437.862 76.9075 437.886 76.7108Z" fill="#E0E0E0"/>
<path d="M395.34 107.105L375.809 91.5809L381.226 84.7642L394.328 95.1784L413.46 73.7675L419.95 79.5724L395.34 107.105Z" fill="white"/>
<path d="M487.606 121.75H483.906V101.627C483.906 99.3503 483.002 97.1668 481.392 95.5568C479.782 93.9468 477.598 93.0424 475.322 93.0424C473.045 93.0424 470.861 93.9468 469.251 95.5568C467.641 97.1668 466.737 99.3503 466.737 101.627V121.75H463.037V101.627C463.037 98.3745 464.329 95.2551 466.629 92.9552C468.929 90.6553 472.048 89.3632 475.301 89.3632C478.554 89.3632 481.673 90.6553 483.973 92.9552C486.273 95.2551 487.565 98.3745 487.565 101.627L487.606 121.75Z" fill="#EBEBEB"/>
<path d="M488.72 108.096H461.913C460.174 108.096 458.765 109.506 458.765 111.244V130.897C458.765 132.636 460.174 134.045 461.913 134.045H488.72C490.458 134.045 491.868 132.636 491.868 130.897V111.244C491.868 109.506 490.458 108.096 488.72 108.096Z" fill="#EBEBEB"/>
<path d="M477.856 121.74C478.185 121.406 478.445 121.01 478.62 120.575C478.796 120.14 478.883 119.675 478.878 119.206C478.883 118.526 478.698 117.858 478.343 117.277C477.989 116.697 477.479 116.227 476.872 115.921C476.265 115.615 475.584 115.485 474.907 115.545C474.229 115.605 473.582 115.854 473.038 116.262C472.495 116.67 472.076 117.223 471.829 117.856C471.583 118.49 471.518 119.18 471.643 119.849C471.768 120.517 472.077 121.137 472.535 121.64C472.994 122.142 473.584 122.506 474.238 122.691L473.461 126.145H476.926L476.231 122.691C476.836 122.518 477.386 122.19 477.825 121.74" fill="#FAFAFA"/>
<path d="M67.4516 415.453C63.4823 412.969 58.9969 411.427 54.3393 410.946C52.1931 410.721 49.8528 410.782 48.1358 412.08C47.9365 412.194 47.7715 412.359 47.6582 412.559C47.5449 412.759 47.4875 412.985 47.4919 413.215C47.5966 413.539 47.8143 413.814 48.1051 413.991C50.8893 415.978 54.164 417.164 57.5744 417.422C60.9848 417.679 64.4007 416.998 67.4516 415.453Z" fill="#E0E0E0"/>
<path d="M67.1142 415.085C64.0784 412.853 61.2434 410.36 58.6419 407.634C56.0349 404.888 54.2044 401.499 53.3377 397.813C53.1651 397.267 53.1131 396.69 53.1855 396.121C53.2578 395.553 53.4527 395.008 53.7567 394.522C60.5019 399.796 65.8061 406.623 67.1142 415.085Z" fill="#E0E0E0"/>
<path d="M67.38 415.402C66.758 411.713 66.8134 407.941 67.5436 404.272C68.2941 400.573 70.4058 397.29 73.4609 395.074C74.626 397.803 74.1252 400.95 73.3076 403.792C72.0369 408.207 70.0518 412.384 67.4311 416.158" fill="#E0E0E0"/>
<path d="M74.0025 427.267C70.03 427.909 66.3552 429.77 63.4861 432.592C60.4685 435.334 58.367 438.937 57.4666 442.914C61.4115 442.669 64.7534 439.848 67.1756 436.782C69.5977 433.716 71.2636 430.251 73.9514 427.339" fill="#E0E0E0"/>
<path d="M75.4435 429.158C73.8613 425.143 73.3065 420.797 73.8294 416.514C74.3524 412.231 75.9364 408.146 78.4379 404.63C80.7272 412.806 79.8789 422.004 75.4435 429.158Z" fill="#E0E0E0"/>
<path d="M84.1817 439.572C80.5088 439.349 76.8514 440.21 73.663 442.046C70.4746 443.883 67.8955 446.615 66.2456 449.904C66.0309 450.344 65.8265 450.926 66.1331 451.304C66.2868 451.456 66.4755 451.566 66.6823 451.627C66.8891 451.688 67.1077 451.696 67.3187 451.652C70.8548 451.427 73.9821 449.301 76.5678 446.879C79.1534 444.457 81.412 441.657 84.2634 439.562" fill="#E0E0E0"/>
<path d="M83.9056 439.02C82.0226 432.958 81.9056 426.485 83.5684 420.358C84.2327 417.957 85.3364 415.432 87.5542 414.308C87.6431 414.248 87.7435 414.207 87.849 414.188C87.9545 414.168 88.0629 414.171 88.1674 414.196C88.3467 414.291 88.4822 414.452 88.5455 414.645C89.2952 416.322 89.6182 418.158 89.4857 419.99C89.3547 421.819 89.0744 423.634 88.6477 425.417C87.9527 428.729 87.6257 432.285 85.7554 435.147C85.3285 435.835 84.9429 436.548 84.6006 437.283C84.2633 438.008 84.2633 438.305 83.9465 438.836" fill="#E0E0E0"/>
<path d="M107.054 442.454C106.276 439.047 106.25 435.512 106.979 432.095C107.708 428.678 109.174 425.46 111.275 422.668C111.571 422.269 111.97 421.85 112.471 421.891C113.227 421.963 113.421 422.975 113.39 423.731C113.077 430.44 110.881 436.925 107.054 442.444" fill="#E0E0E0"/>
<path d="M109.139 443.885C113.189 444.84 117.398 444.906 121.476 444.077C125.553 443.247 129.402 441.543 132.757 439.081C128.806 437.094 124.286 436.541 119.972 437.518C115.7 438.54 111.796 440.4 109.139 443.885Z" fill="#E0E0E0"/>
<path d="M110.897 439.541C115.342 432.306 123.856 427.584 132.359 427.144C131.337 430.599 128.547 433.276 125.348 434.901C122.069 436.372 118.602 437.384 115.046 437.906C113.677 438.172 111.796 438.468 110.958 439.541" fill="#E0E0E0"/>
<path d="M107.494 418.457C108.842 414.381 109.76 410.175 110.232 405.907C110.708 401.613 109.836 397.277 107.739 393.5C103.589 401.523 103.17 410.874 107.371 418.897" fill="#E0E0E0"/>
<path d="M121.454 411.426C126.309 402.616 136.202 395.575 146.207 394.583C142.344 404.201 131.817 411.63 121.454 411.426Z" fill="#E0E0E0"/>
<path d="M118.408 413.133C125.634 414.237 131.797 418.856 138.552 421.656C139.971 422.335 141.541 422.634 143.11 422.525C143.839 422.515 144.548 422.283 145.14 421.859C145.733 421.434 146.181 420.838 146.425 420.152C146.669 419.465 146.697 418.719 146.504 418.016C146.312 417.313 145.908 416.686 145.348 416.219C144.392 415.324 143.266 414.629 142.037 414.175C134.679 411.109 126.779 411.038 119.032 412.898" fill="#E0E0E0"/>
<path d="M114.218 418.202C115.853 418.672 116.416 419.52 117.713 420.624C122.147 424.391 127.395 427.078 133.043 428.473C133.626 428.616 134.393 428.677 134.689 428.156C134.985 427.635 134.617 427.134 134.29 426.725C131.844 423.847 128.666 421.683 125.092 420.461C121.566 419.142 118.511 417.558 114.3 417.906" fill="#E0E0E0"/>
<path d="M109.497 387.573C112.463 390.307 115.968 392.39 119.788 393.689C123.607 394.988 127.656 395.474 131.674 395.115C132.047 395.127 132.412 394.999 132.696 394.757C133.258 394.144 132.584 393.204 131.94 392.713C125.419 387.603 117.519 385.559 109.517 387.603" fill="#E0E0E0"/>
<path d="M115.097 385.518C119.023 382.631 123.575 380.714 128.383 379.921C133.191 379.129 138.118 379.485 142.763 380.96C139.142 384.313 134.498 386.35 129.579 386.745C124.717 387.192 119.815 386.776 115.097 385.518Z" fill="#E0E0E0"/>
<path d="M112.869 371.445C112.235 364.935 112.644 359.805 112.195 353.264C112.195 352.743 112.052 352.119 111.561 351.925C110.876 351.67 110.314 352.498 110.089 353.192C109.141 356.223 108.897 359.429 109.377 362.568C109.857 365.707 111.048 368.694 112.859 371.302" fill="#E0E0E0"/>
<path d="M112.399 372.161C116.667 369.423 120.347 365.862 123.222 361.685C125.348 358.773 127.147 355.288 126.666 351.711C125.167 351.75 123.694 352.116 122.351 352.784C121.008 353.451 119.826 354.403 118.889 355.574C117.033 357.93 115.683 360.644 114.924 363.545C114.065 366.407 113.462 369.35 112.44 372.161" fill="#E0E0E0"/>
<path d="M122.997 369.217C132.716 365.631 141.715 360.336 149.569 353.581C146.401 352.303 142.773 353.07 139.605 354.347C132.412 357.072 126.47 362.341 122.905 369.156" fill="#E0E0E0"/>
<path d="M115.383 375.728C120.266 376.421 125.221 376.445 130.11 375.799C134.883 375.002 139.4 373.101 143.856 371.231C144.246 371.114 144.58 370.86 144.796 370.515C144.864 370.308 144.868 370.086 144.807 369.876C144.747 369.667 144.626 369.48 144.459 369.34C144.114 369.07 143.712 368.881 143.284 368.788C138.429 367.439 133.197 368.073 128.424 369.677C123.878 371.234 119.508 373.262 115.383 375.728Z" fill="#E0E0E0"/>
<path d="M87.4522 387.797C84.1102 381.052 84.3862 373.183 87.2171 366.233C89.2611 369.299 89.4962 373.265 89.1282 376.954C88.7603 380.643 87.6361 384.425 87.5544 388.124" fill="#E0E0E0"/>
<path d="M74.0741 381.062C69.8922 381.007 65.7448 381.825 61.8976 383.465C58.0504 385.106 54.5883 387.531 51.7332 390.587C55.9567 391.094 60.2345 390.303 63.9972 388.319C67.7222 386.341 71.2356 383.988 74.4829 381.297" fill="#E0E0E0"/>
<path d="M65.1009 378.058C61.0129 377.731 57.0987 377.23 53.1742 378.426C51.1941 378.983 49.3575 379.961 47.7896 381.292C46.2217 382.624 44.9594 384.278 44.0886 386.142C47.9377 386.45 51.799 385.72 55.2693 384.026C58.719 382.336 62.0095 380.338 65.1009 378.058Z" fill="#E0E0E0"/>
<path d="M78.387 378.201C74.718 375.799 70.9468 373.346 66.6748 372.345C62.4029 371.343 57.4768 372.089 54.4722 375.309C57.9265 377.353 62.1269 377.577 66.1434 377.577C70.1599 377.577 75.0655 377.526 78.8469 378.865" fill="#E0E0E0"/>
<path d="M78.4074 378.395C72.1323 372.263 69.7613 361.164 72.2754 352.743C77.227 360.326 79.3942 369.392 78.4074 378.395Z" fill="#E0E0E0"/>
<path d="M95.6282 360.939C96.8137 358.18 97.6722 355.298 98.6942 352.497C99.6617 349.656 101.148 347.019 103.079 344.72C105.034 342.389 107.827 340.921 110.856 340.632C109.889 344.877 108.048 348.874 105.451 352.369C102.853 355.863 99.557 358.779 95.7713 360.929" fill="#E0E0E0"/>
<path d="M92.5621 364.578C90.6101 361.879 88.3413 358.221 85.6841 356.207C83.0269 354.194 79.5521 352.978 76.3328 353.744C78.0116 356.686 80.3521 359.196 83.169 361.076C85.9859 362.956 89.2018 364.155 92.5621 364.578Z" fill="#E0E0E0"/>
<path d="M93.1651 361.164C91.774 357.946 90.7456 354.584 90.0991 351.138C89.4569 347.652 90.0115 344.05 91.673 340.918C95.1171 347.428 96.2311 354.419 93.3797 361.215" fill="#E0E0E0"/>
<path d="M95.6997 340.908C97.6517 334.459 103.559 329.666 109.946 327.52C110.735 327.196 111.591 327.07 112.44 327.152C112.864 327.196 113.266 327.365 113.594 327.638C113.921 327.911 114.16 328.276 114.28 328.685C114.515 329.778 113.605 330.729 112.747 331.495C107.761 335.756 101.961 338.958 95.6997 340.908Z" fill="#E0E0E0"/>
<path d="M95.7711 335.665C96.0164 331.495 96.2719 327.275 97.6312 323.33C98.9904 319.385 101.597 315.695 105.388 313.968C106.032 318.169 104.182 322.349 101.944 325.966C99.7058 329.584 97.0078 332.998 95.6689 337.035" fill="#E0E0E0"/>
<path d="M95.6281 338.527C94.0133 333.826 93.8498 327.847 91.0291 323.749C89.0566 320.887 85.9191 318.935 84.2124 315.9C83.1874 318.81 83.3303 322.004 84.6109 324.811C85.8923 327.588 87.6571 330.114 89.8231 332.272C91.8671 334.5 93.6863 336.176 95.6281 338.527Z" fill="#E0E0E0"/>
<path d="M95.6996 477.059C95.577 477.059 95.4645 445.683 95.4543 406.98C95.4441 368.277 95.5463 336.892 95.6689 336.892C95.7916 336.892 95.904 368.257 95.9142 406.98C95.9244 445.704 95.8222 477.059 95.6996 477.059Z" fill="#E0E0E0"/>
<path d="M123.12 383.055C122.745 383.246 122.351 383.396 121.945 383.505L118.695 384.599C115.956 385.529 112.195 386.878 108.117 388.554C104.039 390.23 100.258 391.691 98.0911 393.572C97.2131 394.291 96.5136 395.204 96.0471 396.239C95.7303 396.975 95.6792 397.425 95.6383 397.425C95.5974 397.425 95.6383 397.302 95.6383 397.087C95.6902 396.778 95.7688 396.474 95.8733 396.178C96.2826 395.083 96.9568 394.107 97.8356 393.337C99.1464 392.228 100.613 391.319 102.189 390.639C103.927 389.821 105.858 388.973 107.902 388.135C111.99 386.459 115.782 385.15 118.552 384.292C119.941 383.863 121.066 383.546 121.853 383.331C122.265 383.2 122.69 383.107 123.12 383.055Z" fill="#E0E0E0"/>
<path d="M132.113 360.98C132.017 361.111 131.904 361.228 131.776 361.328L130.754 362.278L126.993 365.692L114.484 376.831C109.599 381.185 105.378 385.334 102.455 388.462C100.983 390.025 99.8285 391.323 99.0415 392.223L98.1319 393.245C98.0369 393.373 97.9233 393.487 97.7947 393.582C97.8709 393.439 97.9635 393.305 98.0706 393.183C98.2546 392.928 98.5305 392.55 98.9087 392.09C99.6547 391.15 100.779 389.821 102.22 388.227C105.995 384.1 109.986 380.177 114.177 376.474C119.083 372.14 123.539 368.236 126.779 365.436C128.373 364.067 129.681 362.953 130.632 362.125L131.654 361.246C131.794 361.137 131.949 361.047 132.113 360.98Z" fill="#E0E0E0"/>
<path d="M109.231 381.257C109.098 381.195 110.12 378.845 111.142 375.86C112.164 372.876 112.644 370.372 112.777 370.393C112.671 372.315 112.264 374.208 111.571 376.003C111.132 377.277 110.624 378.526 110.049 379.744C109.843 380.282 109.568 380.79 109.231 381.257Z" fill="#E0E0E0"/>
<path d="M95.7303 400.245C95.4438 399.988 95.1899 399.696 94.974 399.377L93.0424 396.903C91.4277 394.808 89.1895 391.916 86.6754 388.727C84.1612 385.539 81.8617 382.728 80.1857 380.674L78.2541 378.262C77.9955 377.976 77.7661 377.664 77.5693 377.332C77.8677 377.578 78.1415 377.851 78.3869 378.15C78.8877 378.691 79.6031 379.499 80.4309 380.5C82.1683 382.544 84.5189 385.304 87.033 388.472C89.5472 391.64 91.7445 394.604 93.2979 396.709C94.0849 397.731 94.6981 398.661 95.1171 399.274C95.354 399.576 95.5594 399.902 95.7303 400.245Z" fill="#E0E0E0"/>
<path d="M89.7108 392.529C88.499 391.189 87.6356 389.571 87.1967 387.818C86.7185 386.278 86.5246 384.664 86.6243 383.055H86.8287C86.8008 383.25 86.7348 383.438 86.6346 383.607C86.6346 383.607 86.6346 383.393 86.6346 383.025H86.839C86.9345 384.592 87.2018 386.145 87.6361 387.654C88.2093 389.327 88.9026 390.956 89.7108 392.529Z" fill="#E0E0E0"/>
<path d="M81.9536 382.81C81.41 382.401 80.82 382.058 80.1958 381.788C78.6139 381.311 76.9481 381.179 75.3106 381.4C73.6525 381.52 72.0078 381.784 70.3948 382.187C69.7245 382.393 69.0418 382.557 68.3508 382.677C68.9476 382.309 69.5998 382.04 70.2824 381.88C71.9005 381.379 73.5703 381.064 75.2595 380.94C76.9548 380.715 78.6793 380.901 80.2878 381.481C80.9802 381.718 81.569 382.188 81.9536 382.81Z" fill="#E0E0E0"/>
<path d="M80.1142 380.398C80.1142 380.47 79.0922 379.989 77.4161 379.376C73.0484 377.89 68.3746 377.538 63.8337 378.354C62.0963 378.661 61.0539 378.988 61.0232 378.916C61.243 378.775 61.4847 378.671 61.7386 378.61C62.407 378.375 63.0897 378.184 63.7826 378.037C66.0664 377.536 68.411 377.371 70.7424 377.547C73.0697 377.729 75.3587 378.245 77.5387 379.08C78.197 379.332 78.8387 379.626 79.4601 379.959C79.6994 380.071 79.92 380.219 80.1142 380.398Z" fill="#E0E0E0"/>
<path d="M95.6281 370.393C94.8279 368.162 94.1724 365.881 93.6658 363.566C93.0056 361.288 92.4935 358.97 92.1328 356.626C92.9338 358.858 93.5926 361.138 94.1053 363.453C94.7595 365.732 95.2681 368.05 95.6281 370.393Z" fill="#E0E0E0"/>
<path d="M95.7917 370.393C95.1634 368.98 94.436 367.614 93.6148 366.305C92.6946 365.065 91.6157 363.952 90.4058 362.993C90.8619 363.11 91.2851 363.331 91.6424 363.637C92.5532 364.299 93.3447 365.111 93.9828 366.039C94.9592 367.305 95.5833 368.807 95.7917 370.393Z" fill="#E0E0E0"/>
<path d="M95.6997 460.329C95.6997 460.329 95.5566 459.572 95.1989 458.285C94.6979 456.41 94.0133 454.588 93.1549 452.848C90.1332 447.172 86.3963 441.906 82.0356 437.18C79.5521 434.339 77.1402 431.662 75.0962 429.096C73.2563 426.845 71.5955 424.453 70.1293 421.942C69.1431 420.246 68.3054 418.468 67.6254 416.628C67.3903 415.974 67.2268 415.463 67.1348 415.115C67.075 414.939 67.0306 414.758 67.002 414.574C67.002 414.574 67.2677 415.289 67.7889 416.567C68.5315 418.366 69.406 420.108 70.4052 421.779C71.9027 424.25 73.5763 426.61 75.413 428.841C77.457 431.375 79.8894 434.033 82.3728 436.874C86.7653 441.629 90.4922 446.958 93.4513 452.715C94.3055 454.482 94.9668 456.335 95.4238 458.244C95.5448 458.763 95.6369 459.288 95.6997 459.818C95.7154 459.988 95.7154 460.159 95.6997 460.329Z" fill="#E0E0E0"/>
<path d="M120.483 432.346C120.063 432.61 119.63 432.852 119.185 433.072C118.007 433.73 116.88 434.475 115.813 435.3C114.231 436.524 112.751 437.874 111.387 439.337C109.834 440.972 108.24 442.873 106.604 444.917C103.344 449.005 100.288 452.643 98.4283 455.536C97.4983 456.966 96.8238 458.172 96.3843 459.021C96.1743 459.472 95.9353 459.909 95.6689 460.329C95.6689 460.329 95.6689 460.196 95.7916 459.961C95.9142 459.726 96.0164 459.378 96.2208 458.939C96.8008 457.711 97.4562 456.519 98.1831 455.372C100.666 451.645 103.358 448.062 106.247 444.641C107.882 442.597 109.507 440.696 111.091 439.051C112.485 437.593 113.999 436.257 115.618 435.055C116.723 434.228 117.899 433.503 119.134 432.888C119.466 432.718 119.807 432.568 120.156 432.438C120.367 432.357 120.476 432.326 120.483 432.346Z" fill="#E0E0E0"/>
<path d="M120.963 441.422C120.058 441.62 119.139 441.754 118.214 441.82C116.009 442.046 113.829 442.477 111.704 443.108C109.602 443.791 107.632 444.828 105.879 446.174C104.54 447.196 103.906 448.065 103.835 448.024C103.763 447.983 103.937 447.768 104.233 447.39C104.66 446.856 105.139 446.367 105.664 445.929C107.403 444.477 109.405 443.373 111.561 442.679C113.713 442.037 115.932 441.646 118.173 441.514C119.099 441.398 120.033 441.367 120.963 441.422Z" fill="#E0E0E0"/>
<path d="M104.642 447.012C104.499 446.93 105.736 445.04 106.686 442.495C107.637 439.95 107.8 437.681 107.954 437.712C108.041 438.199 108.041 438.697 107.954 439.184C107.814 440.367 107.547 441.532 107.156 442.658C106.736 443.77 106.202 444.835 105.562 445.837C105.324 446.278 105.013 446.675 104.642 447.012Z" fill="#E0E0E0"/>
<path d="M128.506 407.961C128.373 408.062 128.224 408.142 128.066 408.196L126.779 408.779C126.206 409.024 125.522 409.331 124.735 409.74C123.948 410.149 123.048 410.557 122.108 411.119L120.616 411.968C120.095 412.274 119.594 412.622 119.032 412.99C117.928 413.654 116.824 414.482 115.639 415.32C113.134 417.221 110.77 419.301 108.567 421.544C106.404 423.812 104.413 426.237 102.608 428.8C101.801 430.016 101.014 431.151 100.38 432.275C100.064 432.827 99.7264 433.358 99.4402 433.89L98.6941 435.423C98.1627 436.383 97.7845 437.303 97.4064 438.09C97.0283 438.877 96.7421 439.572 96.5173 440.134C96.2924 440.696 96.1187 441.095 95.9756 441.442C95.9195 441.599 95.8476 441.75 95.761 441.892C95.7805 441.726 95.8253 441.564 95.8939 441.411L96.3537 440.073C96.5581 439.49 96.8137 438.775 97.1714 437.978C97.5291 437.18 97.8868 436.24 98.408 435.269C98.6533 434.768 98.919 434.247 99.1847 433.716C99.4504 433.184 99.7877 432.694 100.115 432.081C100.738 430.936 101.515 429.791 102.312 428.565C105.899 423.32 110.346 418.717 115.465 414.952C116.661 414.114 117.785 413.296 118.899 412.642C119.461 412.305 119.982 411.947 120.504 411.62L122.026 410.782C122.987 410.24 123.907 409.842 124.694 409.464C125.359 409.132 126.041 408.835 126.738 408.575L128.066 408.064C128.209 408.015 128.356 407.981 128.506 407.961Z" fill="#E0E0E0"/>
<path d="M108.914 421.104C109.076 420.475 109.434 419.913 109.936 419.5C111.145 418.448 112.687 417.858 114.29 417.834C115.856 417.827 117.409 418.129 118.858 418.723C119.47 418.92 120.052 419.202 120.585 419.561C119.96 419.444 119.347 419.266 118.756 419.03C117.323 418.534 115.817 418.282 114.3 418.284C112.796 418.316 111.343 418.828 110.151 419.745C109.703 420.165 109.29 420.619 108.914 421.104Z" fill="#E0E0E0"/>
<path d="M105.96 424.13C106.542 422.849 106.958 421.499 107.197 420.113C107.28 418.71 107.187 417.303 106.921 415.923C107.184 416.267 107.359 416.671 107.432 417.098C107.961 419.119 107.709 421.264 106.727 423.108C106.339 423.802 106.001 424.16 105.96 424.13Z" fill="#E0E0E0"/>
<path d="M74.0229 464.825C74.6975 476.824 78.3153 489.016 83.875 501.352H108.045C113.35 489.139 116.712 476.967 117.305 464.825H74.0229Z" fill="#E0E0E0"/>
<path d="M113.39 484.233C113.39 484.356 105.429 484.458 95.6178 484.458C85.8066 484.458 77.8452 484.356 77.8452 484.233C77.8452 484.111 85.7964 483.988 95.628 483.988C105.46 483.988 113.39 484.111 113.39 484.233Z" fill="#FAFAFA"/>
<path d="M112.849 488.577C112.849 488.699 105.388 488.802 96.1903 488.802C86.9923 488.802 79.5215 488.699 79.5215 488.577C79.5215 488.454 86.9821 488.352 96.1903 488.352C105.399 488.352 112.849 488.454 112.849 488.577Z" fill="#FAFAFA"/>
<path d="M84.2634 472.746C84.5632 476.45 84.5632 480.172 84.2634 483.876C83.9636 480.172 83.9636 476.45 84.2634 472.746Z" fill="#FAFAFA"/>
<path d="M97.2122 472.746C97.512 476.583 97.512 480.437 97.2122 484.274C96.9124 480.437 96.9124 476.583 97.2122 472.746Z" fill="#FAFAFA"/>
<path d="M109.374 472.603C109.674 476.518 109.674 480.451 109.374 484.366C109.074 480.451 109.074 476.518 109.374 472.603Z" fill="#FAFAFA"/>
<path d="M116.538 472.746C116.538 472.869 107.207 472.971 95.6996 472.971C84.1919 472.971 74.8406 472.869 74.8406 472.746C74.8406 472.623 84.1817 472.521 95.6996 472.521C107.218 472.521 116.538 472.572 116.538 472.746Z" fill="#FAFAFA"/>
<path d="M491.541 360.868C493.753 359.891 495.629 358.287 496.939 356.254C498.249 354.221 498.934 351.849 498.909 349.432C498.909 342.605 493.799 337.045 487.371 337.024C480.943 337.004 475.751 342.502 475.73 349.288C475.684 351.725 476.36 354.121 477.673 356.175C478.986 358.228 480.878 359.847 483.109 360.827C465.275 363.515 466.083 382.892 466.083 382.892L508.261 383.086C508.261 383.086 509.221 363.535 491.541 360.868Z" fill="#EBEBEB"/>
<path d="M301.939 79.0818C303.493 78.7767 304.924 78.0271 306.06 76.9241C307.196 75.821 307.987 74.412 308.337 72.868C308.628 71.8772 308.714 70.8376 308.589 69.8125C308.465 68.7874 308.134 67.7983 307.615 66.9056C307.096 66.0129 306.4 65.2352 305.571 64.62C304.742 64.0048 303.796 63.565 302.791 63.3273C301.786 63.0897 300.743 63.0591 299.726 63.2377C298.709 63.4162 297.739 63.8 296.875 64.3656C296.012 64.9313 295.272 65.667 294.702 66.5279C294.132 67.3887 293.743 68.3567 293.559 69.3728C293.166 70.9223 293.241 72.5537 293.776 74.0601C294.311 75.5666 295.281 76.8804 296.563 77.835C284.78 76.9049 282.439 89.3938 282.439 89.3938L309.318 95.7608C309.318 95.7608 312.834 83.364 301.939 79.0818Z" fill="#EBEBEB"/>
<path d="M492.695 183.121C493.984 182.315 495.008 181.149 495.641 179.766C496.273 178.384 496.485 176.846 496.252 175.344C496.175 174.35 495.895 173.381 495.43 172.499C494.964 171.617 494.323 170.84 493.545 170.216C492.767 169.591 491.869 169.133 490.908 168.869C489.946 168.605 488.94 168.541 487.953 168.681C486.965 168.821 486.017 169.162 485.166 169.683C484.315 170.204 483.581 170.893 483.007 171.709C482.433 172.525 482.033 173.45 481.831 174.427C481.629 175.404 481.629 176.411 481.832 177.388C482.02 178.909 482.656 180.34 483.658 181.499C484.661 182.658 485.985 183.493 487.463 183.898C476.619 187.179 478.858 199.157 478.858 199.157L505.103 195.488C505.103 195.488 503.927 183.193 492.695 183.121Z" fill="#F5F5F5"/>
<path d="M71.5907 186.831L57.4155 175.559L61.34 170.612L70.8548 178.165L84.7336 162.641L89.445 166.851L71.5907 186.831Z" fill="#F5F5F5"/>
<path d="M501.015 501.709C501.015 501.863 398.661 501.975 272.444 501.975C146.227 501.975 43.8535 501.863 43.8535 501.709C43.8535 501.556 146.176 501.444 272.444 501.444C398.712 501.444 501.015 501.566 501.015 501.709Z" fill="#263238"/>
<path d="M90.9268 203.153L59.5821 218.881C58.445 219.377 57.4779 220.194 56.8004 221.233C56.1229 222.272 55.7647 223.487 55.77 224.727V239.393C55.734 252.733 59.6184 265.79 66.9405 276.941C72.5921 285.546 80.0834 296.543 92.5416 302.828H98.1626C112.041 298.597 122.394 287.325 128.72 277.677C136.046 266.527 139.933 253.47 139.901 240.129V224.727C139.899 223.482 139.533 222.264 138.846 221.225C138.159 220.186 137.183 219.371 136.038 218.881L100.278 203.664C98.694 202.989 92.562 202.478 90.9268 203.153Z" fill="#FE5B71"/>
<path opacity="0.3" d="M90.9268 203.153L59.5821 218.881C58.445 219.377 57.4779 220.194 56.8004 221.233C56.1229 222.272 55.7647 223.487 55.77 224.727V239.393C55.734 252.733 59.6184 265.79 66.9405 276.941C72.5921 285.546 80.0834 296.543 92.5416 302.828H98.1626C112.041 298.597 122.394 287.325 128.72 277.677C136.046 266.527 139.933 253.47 139.901 240.129V224.727C139.899 223.482 139.533 222.264 138.846 221.225C138.159 220.186 137.183 219.371 136.038 218.881L100.278 203.664C98.694 202.989 92.562 202.478 90.9268 203.153Z" fill="black"/>
<path d="M89.6697 203.664L53.9508 218.881C52.8057 219.371 51.8294 220.186 51.1427 221.225C50.4561 222.264 50.0893 223.482 50.0876 224.727V239.393C50.0884 252.975 54.1176 266.252 61.6655 277.543C69.2133 288.835 79.9406 297.634 92.4904 302.828C106.359 298.597 116.712 287.325 123.048 277.677C130.373 266.526 134.261 253.47 134.229 240.129V224.727C134.228 223.483 133.863 222.266 133.178 221.227C132.493 220.188 131.519 219.373 130.376 218.881L94.606 203.664C93.8245 203.336 92.9854 203.167 92.1378 203.167C91.2903 203.167 90.4512 203.336 89.6697 203.664Z" fill="#FE5B71"/>
<path opacity="0.3" d="M100.634 270.183C112.69 265.507 118.673 251.942 113.996 239.886C109.32 227.83 95.7559 221.848 83.6998 226.524C71.6437 231.2 65.6612 244.764 70.3374 256.821C75.0137 268.877 88.5779 274.859 100.634 270.183Z" fill="black"/>
<path d="M92.1531 249.654C97.5208 249.654 101.872 245.302 101.872 239.934C101.872 234.567 97.5208 230.215 92.1531 230.215C86.7853 230.215 82.4338 234.567 82.4338 239.934C82.4338 245.302 86.7853 249.654 92.1531 249.654Z" fill="white"/>
<path d="M74.4111 263.614C75.9742 260.344 78.441 257.59 81.5199 255.677C84.5988 253.765 88.1609 252.774 91.7851 252.822C95.5014 252.822 99.1488 253.825 102.343 255.725C105.537 257.624 108.16 260.349 109.936 263.614C109.936 263.614 104.202 272.097 91.5399 271.79C88.2582 271.777 85.0201 271.037 82.0585 269.623C79.0969 268.21 76.4852 266.157 74.4111 263.614Z" fill="white"/>
<path d="M115.567 248.356C115.555 248.23 115.555 248.103 115.567 247.978C115.567 247.702 115.567 247.334 115.475 246.874C115.475 246.629 115.475 246.353 115.475 246.056C115.475 245.76 115.373 245.433 115.322 245.034C115.215 244.223 115.051 243.42 114.831 242.632C114.276 240.45 113.397 238.362 112.225 236.439C110.688 233.887 108.676 231.653 106.298 229.857C103.425 227.673 100.077 226.195 96.5272 225.545C92.4513 224.794 88.249 225.147 84.3552 226.567C83.3015 226.932 82.2767 227.377 81.2892 227.895C80.3019 228.436 79.3526 229.044 78.4481 229.714C77.528 230.407 76.6509 231.154 75.8215 231.953C75.0085 232.796 74.2507 233.69 73.5527 234.63C72.122 236.568 71.0077 238.721 70.2516 241.008C68.6571 245.749 68.6571 250.881 70.2516 255.622C71.0032 257.911 72.1178 260.064 73.5527 261.999C74.2506 262.943 75.0085 263.841 75.8215 264.687C76.6484 265.485 77.5257 266.23 78.4481 266.915C80.2224 268.268 82.1986 269.334 84.3041 270.073C88.1979 271.493 92.4002 271.845 96.4761 271.095C99.7132 270.486 102.785 269.199 105.49 267.32C108.195 265.441 110.473 263.011 112.174 260.19C113.333 258.28 114.198 256.206 114.739 254.038C114.958 253.246 115.122 252.44 115.23 251.626C115.23 251.279 115.352 250.952 115.383 250.604C115.414 250.257 115.383 250.032 115.383 249.786L115.475 248.673C115.465 248.547 115.465 248.42 115.475 248.294C115.486 248.42 115.486 248.547 115.475 248.673C115.475 248.959 115.475 249.327 115.475 249.797C115.475 250.042 115.475 250.318 115.475 250.614C115.475 250.911 115.393 251.248 115.342 251.636C115.261 252.462 115.11 253.279 114.893 254.079C114.374 256.293 113.516 258.413 112.348 260.364C109.571 265.106 105.22 268.724 100.052 270.591C94.884 272.458 89.2252 272.456 84.0588 270.584C83.0068 270.206 81.9824 269.755 80.9928 269.235C79.9868 268.669 79.0236 268.031 78.1108 267.324C77.1602 266.627 76.2587 265.866 75.4127 265.045C74.5992 264.195 73.8413 263.294 73.1439 262.347C71.6727 260.368 70.5272 258.167 69.7508 255.827C68.9747 253.411 68.5648 250.893 68.5347 248.356C68.5631 245.818 68.9766 243.299 69.7611 240.885C70.5297 238.543 71.672 236.341 73.1439 234.365C73.8624 233.404 74.6407 232.489 75.474 231.626C76.317 230.805 77.215 230.044 78.1619 229.346C79.0681 228.655 80.0208 228.027 81.0133 227.466C82.0026 226.943 83.0271 226.488 84.0793 226.107C88.0536 224.667 92.3403 224.314 96.4966 225.085C99.7934 225.719 102.917 227.049 105.658 228.988C108.398 230.927 110.693 233.429 112.389 236.327C113.557 238.281 114.415 240.405 114.933 242.622C115.151 243.419 115.301 244.233 115.383 245.055C115.383 245.412 115.496 245.739 115.516 246.077V246.904C115.516 247.375 115.516 247.742 115.516 248.018C115.542 248.129 115.559 248.242 115.567 248.356Z" fill="#263238"/>
<path d="M134.106 236.153C134.154 236.378 134.178 236.608 134.178 236.838C134.178 237.328 134.178 237.972 134.259 238.78C134.341 239.587 134.341 240.65 134.259 241.846C134.259 242.449 134.259 243.082 134.259 243.767C134.259 244.452 134.259 245.167 134.127 245.913C133.984 247.416 133.881 249.071 133.565 250.829C133.432 251.708 133.319 252.618 133.135 253.548C132.951 254.478 132.726 255.428 132.522 256.409C131.539 260.634 130.171 264.76 128.434 268.734C126.639 272.689 124.495 276.475 122.026 280.048C120.841 281.653 119.747 283.206 118.562 284.545C117.989 285.219 117.458 285.904 116.896 286.507L115.271 288.224C114.249 289.358 113.227 290.268 112.348 291.075C111.612 291.799 110.838 292.481 110.028 293.119L108.515 294.346C108.349 294.495 108.168 294.625 107.974 294.734C108.119 294.563 108.28 294.406 108.454 294.264L109.895 292.966C110.539 292.414 111.305 291.729 112.143 290.922C112.981 290.115 114.003 289.164 114.995 288.03L116.589 286.292C117.141 285.689 117.611 285.005 118.224 284.33C119.379 282.991 120.452 281.438 121.628 279.823C124.053 276.265 126.167 272.504 127.944 268.581C129.671 264.624 131.039 260.519 132.032 256.317L132.665 253.476C132.849 252.556 132.972 251.647 133.125 250.778C133.452 249.04 133.575 247.395 133.738 245.903C133.83 245.157 133.892 244.441 133.912 243.767L134.004 241.856C134.096 240.66 134.076 239.628 134.076 238.79C134.076 237.952 134.076 237.349 134.076 236.848C134.068 236.616 134.078 236.384 134.106 236.153Z" fill="#263238"/>
<path d="M382.616 501.71H140.954C139.37 501.683 137.808 501.345 136.355 500.714C134.903 500.083 133.589 499.172 132.489 498.033C131.389 496.894 130.524 495.549 129.944 494.076C129.364 492.602 129.08 491.029 129.109 489.446V120.074C129.08 118.491 129.364 116.918 129.944 115.444C130.524 113.971 131.389 112.626 132.489 111.487C133.589 110.348 134.903 109.437 136.355 108.806C137.808 108.175 139.37 107.837 140.954 107.81H382.616C384.199 107.837 385.761 108.175 387.212 108.806C388.664 109.437 389.977 110.349 391.077 111.488C392.176 112.627 393.04 113.972 393.619 115.445C394.198 116.918 394.48 118.492 394.451 120.074V489.466C394.478 491.047 394.193 492.618 393.613 494.089C393.033 495.56 392.168 496.902 391.069 498.039C389.97 499.176 388.658 500.086 387.208 500.715C385.757 501.345 384.197 501.683 382.616 501.71Z" fill="#263238"/>
<path d="M266.414 483.794C266.453 486.025 265.826 488.218 264.615 490.092C263.403 491.966 261.661 493.437 259.611 494.318C257.56 495.198 255.294 495.449 253.1 495.037C250.907 494.626 248.886 493.571 247.294 492.006C245.702 490.442 244.612 488.44 244.163 486.254C243.713 484.068 243.924 481.798 244.769 479.732C245.614 477.666 247.054 475.899 248.907 474.655C250.759 473.411 252.941 472.746 255.172 472.746C258.128 472.722 260.972 473.872 263.08 475.943C265.188 478.015 266.387 480.839 266.414 483.794Z" fill="#455A64"/>
<path d="M288.97 128.639H234.804C234.299 128.631 233.801 128.523 233.338 128.323C232.875 128.122 232.456 127.832 232.104 127.47C231.753 127.107 231.477 126.679 231.291 126.21C231.106 125.741 231.014 125.239 231.022 124.735C231.006 123.714 231.395 122.729 232.104 121.996C232.813 121.262 233.784 120.839 234.804 120.82H288.97C289.99 120.839 290.961 121.262 291.67 121.996C292.379 122.729 292.768 123.714 292.751 124.735C292.759 125.239 292.668 125.741 292.482 126.21C292.297 126.679 292.02 127.107 291.669 127.47C291.318 127.832 290.899 128.122 290.436 128.323C289.973 128.523 289.475 128.631 288.97 128.639Z" fill="#455A64"/>
<path d="M385.866 135.926H137.254V464.866H385.866V135.926Z" fill="white"/>
<path d="M385.866 135.926H375.257V464.866H385.866V135.926Z" fill="#F5F5F5"/>
<path d="M380.551 254.11C379.675 254.107 378.835 253.757 378.216 253.136C377.598 252.515 377.25 251.675 377.25 250.798V178.042C377.25 177.166 377.598 176.325 378.216 175.704C378.835 175.084 379.675 174.734 380.551 174.731C381.43 174.731 382.272 175.08 382.893 175.701C383.514 176.322 383.863 177.164 383.863 178.042V250.798C383.863 251.677 383.514 252.519 382.893 253.14C382.272 253.761 381.43 254.11 380.551 254.11Z" fill="#E0E0E0"/>
<path d="M353.438 210.787H170.132C168.733 210.787 167.392 210.231 166.403 209.242C165.414 208.253 164.858 206.912 164.858 205.514C164.858 204.115 165.414 202.774 166.403 201.785C167.392 200.796 168.733 200.24 170.132 200.24H353.438C354.836 200.24 356.178 200.796 357.167 201.785C358.155 202.774 358.711 204.115 358.711 205.514C358.711 206.912 358.155 208.253 357.167 209.242C356.178 210.231 354.836 210.787 353.438 210.787Z" fill="#E0E0E0"/>
<path d="M325.241 172.278H209.928C208.53 172.278 207.188 171.722 206.199 170.733C205.21 169.744 204.655 168.403 204.655 167.004C204.655 165.606 205.21 164.265 206.199 163.276C207.188 162.287 208.53 161.731 209.928 161.731H325.241C326.639 161.731 327.981 162.287 328.97 163.276C329.958 164.265 330.514 165.606 330.514 167.004C330.514 168.403 329.958 169.744 328.97 170.733C327.981 171.722 326.639 172.278 325.241 172.278Z" fill="#FE5B71"/>
<path d="M327.407 232.014H196.162C194.763 232.014 193.422 231.458 192.433 230.469C191.444 229.48 190.888 228.139 190.888 226.74C190.888 225.342 191.444 224 192.433 223.011C193.422 222.023 194.763 221.467 196.162 221.467H327.407C328.1 221.467 328.785 221.603 329.425 221.868C330.065 222.133 330.646 222.522 331.136 223.011C331.626 223.501 332.014 224.083 332.279 224.722C332.544 225.362 332.681 226.048 332.681 226.74C332.681 227.433 332.544 228.119 332.279 228.759C332.014 229.398 331.626 229.98 331.136 230.469C330.646 230.959 330.065 231.348 329.425 231.613C328.785 231.878 328.1 232.014 327.407 232.014Z" fill="#E0E0E0"/>
<path d="M268.152 324.556H167.168C165.769 324.556 164.428 324 163.439 323.012C162.45 322.023 161.894 320.681 161.894 319.283C161.894 318.59 162.031 317.904 162.296 317.264C162.561 316.625 162.949 316.043 163.439 315.554C163.929 315.064 164.51 314.675 165.15 314.41C165.79 314.145 166.475 314.009 167.168 314.009H268.152C268.844 314.009 269.53 314.145 270.17 314.41C270.81 314.675 271.391 315.064 271.881 315.554C272.37 316.043 272.759 316.625 273.024 317.264C273.289 317.904 273.425 318.59 273.425 319.283C273.425 320.681 272.87 322.023 271.881 323.012C270.892 324 269.55 324.556 268.152 324.556Z" fill="#E0E0E0"/>
<path d="M350.474 302.45H167.168C165.769 302.45 164.428 301.895 163.439 300.906C162.45 299.917 161.894 298.575 161.894 297.177C161.894 296.485 162.031 295.799 162.296 295.16C162.561 294.521 162.95 293.94 163.439 293.451C163.929 292.962 164.511 292.575 165.15 292.311C165.79 292.047 166.476 291.912 167.168 291.913H350.474C351.166 291.912 351.851 292.047 352.491 292.311C353.131 292.575 353.712 292.962 354.202 293.451C354.692 293.94 355.08 294.521 355.346 295.16C355.611 295.799 355.747 296.485 355.747 297.177C355.747 297.869 355.611 298.555 355.346 299.195C355.081 299.835 354.692 300.416 354.203 300.906C353.713 301.395 353.132 301.784 352.492 302.049C351.852 302.314 351.166 302.45 350.474 302.45Z" fill="#E0E0E0"/>
<path d="M350.474 363.034H190.03C187.118 363.034 184.757 365.395 184.757 368.308C184.757 371.22 187.118 373.581 190.03 373.581H350.474C353.386 373.581 355.747 371.22 355.747 368.308C355.747 365.395 353.386 363.034 350.474 363.034Z" fill="#E0E0E0"/>
<path d="M350.474 396.096H167.168C165.769 396.096 164.428 395.54 163.439 394.551C162.45 393.562 161.894 392.221 161.894 390.823C161.9 389.427 162.458 388.091 163.446 387.107C164.434 386.122 165.773 385.569 167.168 385.569H350.474C351.166 385.569 351.852 385.706 352.492 385.971C353.132 386.236 353.713 386.624 354.203 387.114C354.692 387.604 355.081 388.185 355.346 388.825C355.611 389.465 355.747 390.15 355.747 390.843C355.742 392.238 355.184 393.574 354.195 394.559C353.207 395.543 351.869 396.096 350.474 396.096Z" fill="#E0E0E0"/>
<path d="M350.474 419.009H167.168C165.769 419.009 164.428 418.454 163.439 417.465C162.45 416.476 161.894 415.134 161.894 413.736C161.894 412.337 162.45 410.996 163.439 410.007C164.428 409.018 165.769 408.462 167.168 408.462H350.474C351.166 408.462 351.852 408.599 352.492 408.864C353.132 409.129 353.713 409.517 354.203 410.007C354.692 410.497 355.081 411.078 355.346 411.718C355.611 412.358 355.747 413.043 355.747 413.736C355.747 415.134 355.192 416.476 354.203 417.465C353.214 418.454 351.872 419.009 350.474 419.009Z" fill="#E0E0E0"/>
<path d="M175.416 368.308C175.416 369.392 175.094 370.451 174.492 371.352C173.889 372.253 173.033 372.955 172.032 373.37C171.03 373.784 169.928 373.892 168.865 373.68C167.802 373.468 166.826 372.945 166.061 372.178C165.295 371.411 164.774 370.434 164.564 369.37C164.354 368.307 164.463 367.205 164.88 366.204C165.296 365.204 166 364.349 166.902 363.748C167.804 363.147 168.864 362.828 169.948 362.83C171.399 362.833 172.79 363.411 173.815 364.438C174.84 365.465 175.416 366.857 175.416 368.308Z" fill="#FE5B71"/>
<path d="M350.474 281.857H190.02C188.621 281.857 187.28 281.301 186.291 280.312C185.302 279.323 184.746 277.982 184.746 276.583C184.746 275.185 185.302 273.843 186.291 272.854C187.28 271.865 188.621 271.31 190.02 271.31H350.474C351.166 271.31 351.852 271.446 352.492 271.711C353.132 271.976 353.713 272.365 354.203 272.854C354.693 273.344 355.081 273.925 355.346 274.565C355.611 275.205 355.747 275.891 355.747 276.583C355.747 277.276 355.611 277.962 355.346 278.601C355.081 279.241 354.693 279.823 354.203 280.312C353.713 280.802 353.132 281.19 352.492 281.455C351.852 281.72 351.166 281.857 350.474 281.857Z" fill="#E0E0E0"/>
<path d="M169.948 282.061C172.973 282.061 175.426 279.609 175.426 276.583C175.426 273.558 172.973 271.105 169.948 271.105C166.922 271.105 164.47 273.558 164.47 276.583C164.47 279.609 166.922 282.061 169.948 282.061Z" fill="#FE5B71"/>
<path d="M345.354 452.541H304.218C301.99 452.541 299.853 451.656 298.278 450.081C296.702 448.505 295.817 446.368 295.817 444.14C295.817 441.912 296.702 439.775 298.278 438.2C299.853 436.624 301.99 435.739 304.218 435.739H345.354C347.582 435.739 349.719 436.624 351.294 438.2C352.869 439.775 353.755 441.912 353.755 444.14C353.755 446.368 352.869 448.505 351.294 450.081C349.719 451.656 347.582 452.541 345.354 452.541Z" fill="#FE5B71"/>
<path d="M133.442 56.1276L90.8042 77.5181C89.244 78.1814 87.9132 79.2888 86.9774 80.7025C86.0415 82.1162 85.542 83.7739 85.5409 85.4693V105.419C85.4904 123.575 90.7788 141.345 100.748 156.519C108.434 168.19 118.613 183.152 135.568 191.696H143.212C162.078 185.942 176.162 170.602 184.777 157.49C194.747 142.316 200.035 124.546 199.984 106.39V85.4693C199.987 83.7785 199.493 82.1241 198.565 80.7109C197.637 79.2977 196.315 78.1876 194.762 77.5181L146.156 56.7919C143.989 55.9028 135.609 55.2078 133.442 56.1276Z" fill="#FE5B71"/>
<path opacity="0.3" d="M133.442 56.1276L90.8042 77.5181C89.244 78.1814 87.9132 79.2888 86.9774 80.7025C86.0415 82.1162 85.542 83.7739 85.5409 85.4693V105.419C85.4904 123.575 90.7788 141.345 100.748 156.519C108.434 168.19 118.613 183.152 135.568 191.696H143.212C162.078 185.942 176.162 170.602 184.777 157.49C194.747 142.316 200.035 124.546 199.984 106.39V85.4693C199.987 83.7785 199.493 82.1241 198.565 80.7109C197.637 79.2977 196.315 78.1876 194.762 77.5181L146.156 56.7919C143.989 55.9028 135.609 55.2078 133.442 56.1276Z" fill="black"/>
<path d="M131.725 56.792L83.1493 77.5181C81.5902 78.1819 80.2608 79.2897 79.3268 80.7035C78.3927 82.1174 77.8952 83.7748 77.8962 85.4693V105.419C77.8987 123.891 83.3793 141.948 93.6449 157.305C103.91 172.663 118.5 184.631 135.568 191.696C154.434 185.942 168.517 170.602 177.122 157.49C187.096 142.318 192.385 124.546 192.33 106.39V85.4693C192.331 83.7748 191.833 82.1174 190.899 80.7035C189.965 79.2897 188.636 78.1819 187.076 77.5181L138.552 56.792C137.473 56.3298 136.312 56.0914 135.138 56.0914C133.965 56.0914 132.804 56.3298 131.725 56.792Z" fill="#FE5B71"/>
<path d="M192.176 101.014C192.189 101.092 192.189 101.171 192.176 101.249C192.176 101.433 192.176 101.658 192.176 101.934C192.176 102.588 192.227 103.467 192.268 104.581C192.309 105.695 192.37 107.125 192.268 108.761C192.268 109.578 192.268 110.447 192.186 111.367C192.186 111.837 192.186 112.307 192.186 112.798C192.186 113.288 192.094 113.82 192.043 114.3C191.839 116.344 191.706 118.592 191.277 120.974C191.083 122.159 190.929 123.406 190.684 124.663C190.439 125.92 190.132 127.218 189.846 128.547C188.496 134.291 186.618 139.899 184.235 145.297C181.8 150.671 178.893 155.818 175.548 160.678C173.933 162.865 172.482 164.981 170.847 166.81C170.06 167.73 169.345 168.66 168.578 169.478L166.371 171.828C165.001 173.361 163.591 174.577 162.416 175.712C161.813 176.264 161.271 176.795 160.75 177.255L159.319 178.41L157.275 180.086L156.733 180.515C156.611 180.607 156.539 180.648 156.539 180.638C156.539 180.628 156.539 180.577 156.692 180.464L157.203 180.004L159.176 178.257L160.617 177C161.138 176.54 161.639 175.978 162.252 175.426C163.407 174.281 164.787 173.055 166.136 171.511L168.312 169.14C169.069 168.323 169.774 167.393 170.54 166.473C172.125 164.654 173.606 162.538 175.18 160.341C178.493 155.491 181.376 150.362 183.796 145.011C186.158 139.64 188.036 134.068 189.407 128.363C189.703 127.044 189.979 125.757 190.265 124.51C190.551 123.263 190.674 122.016 190.878 120.831C191.328 118.459 191.481 116.221 191.706 114.188C191.767 113.687 191.818 113.165 191.87 112.706C191.921 112.246 191.87 111.745 191.931 111.285C191.972 110.365 192.013 109.497 192.054 108.679C192.166 107.054 192.135 105.613 192.135 104.509V101.944V101.249C192.133 101.169 192.147 101.089 192.176 101.014Z" fill="#263238"/>
<path d="M154.352 127.821H149.171V99.624C149.079 96.4931 147.771 93.521 145.525 91.3386C143.278 89.1563 140.269 87.9355 137.136 87.9355C134.004 87.9355 130.995 89.1563 128.748 91.3386C126.502 93.521 125.194 96.4931 125.102 99.624V127.821H119.921V99.624C120.03 95.1307 121.892 90.8584 125.109 87.7192C128.325 84.58 132.642 82.8228 137.136 82.8228C141.631 82.8228 145.948 84.58 149.164 87.7192C152.381 90.8584 154.243 95.1307 154.352 99.624V127.821Z" fill="#F5F5F5"/>
<path d="M154.403 108.689H119.88C116.601 108.689 113.942 111.348 113.942 114.627V139.114C113.942 142.393 116.601 145.052 119.88 145.052H154.403C157.682 145.052 160.341 142.393 160.341 139.114V114.627C160.341 111.348 157.682 108.689 154.403 108.689Z" fill="white"/>
<path d="M154.403 145.052C154.923 144.997 155.438 144.908 155.946 144.786C157.185 144.429 158.272 143.676 159.041 142.642C159.811 141.609 160.221 140.351 160.208 139.063C160.208 137.867 160.208 136.569 160.208 135.169C160.208 132.379 160.208 129.201 160.208 125.685C160.208 122.169 160.208 118.337 160.208 114.208C160.131 113.179 159.777 112.19 159.183 111.346C158.589 110.502 157.778 109.835 156.836 109.415C155.83 109.001 154.741 108.833 153.657 108.924H150.223L119.88 108.914C118.605 108.913 117.366 109.343 116.365 110.133C115.364 110.923 114.658 112.027 114.361 113.268C114.229 113.885 114.174 114.517 114.198 115.148V120.902C114.198 126.012 114.198 130.836 114.198 135.486C114.29 137.796 113.809 140.177 114.995 141.996C115.52 142.89 116.277 143.625 117.185 144.123C118.094 144.621 119.12 144.865 120.156 144.827H131.653L148.302 144.919H152.819H153.994C154.13 144.906 154.267 144.906 154.403 144.919C154.267 144.934 154.13 144.934 153.994 144.919H152.819H148.302L131.653 145.001H120.156C119.312 145.039 118.468 144.903 117.678 144.602C116.888 144.301 116.168 143.842 115.563 143.252C114.958 142.662 114.48 141.954 114.159 141.172C113.838 140.39 113.681 139.55 113.697 138.705V135.486C113.697 130.836 113.697 125.961 113.697 120.902V115.189C113.666 114.503 113.725 113.816 113.871 113.145C114.203 111.806 114.977 110.617 116.068 109.772C117.168 108.902 118.529 108.427 119.931 108.423H150.162H153.596C154.748 108.335 155.904 108.525 156.968 108.975C157.985 109.429 158.859 110.151 159.496 111.064C160.134 111.977 160.51 113.046 160.586 114.157C160.586 118.327 160.586 122.149 160.586 125.664C160.586 129.18 160.586 132.359 160.586 135.149C160.586 136.549 160.586 137.847 160.586 139.042C160.587 140.162 160.276 141.259 159.687 142.211C158.886 143.532 157.597 144.486 156.1 144.868C155.551 145.034 154.975 145.097 154.403 145.052Z" fill="#263238"/>
<path d="M140.698 127.811C141.166 127.344 141.537 126.79 141.789 126.18C142.042 125.569 142.171 124.915 142.17 124.254C142.176 123.302 141.916 122.367 141.419 121.555C140.922 120.743 140.208 120.086 139.357 119.658C138.507 119.23 137.554 119.048 136.605 119.132C135.657 119.217 134.751 119.565 133.99 120.137C133.229 120.709 132.643 121.483 132.297 122.37C131.952 123.257 131.862 124.224 132.037 125.16C132.211 126.096 132.644 126.964 133.286 127.667C133.928 128.371 134.754 128.88 135.67 129.139L134.576 133.984H139.431L138.409 129.139C139.257 128.897 140.028 128.439 140.647 127.811" fill="#FE5B71"/>
<path d="M457.232 164.276V205.687C457.324 212.841 458.377 224.083 447.012 223.715C437.211 222.693 434.605 213.362 434.533 206.679C434.533 203.51 434.462 200.863 434.431 200.547C434.431 200.547 423.7 199.668 422.791 189.059C422.351 183.949 422.31 173.31 422.382 163.693C422.425 158.712 424.342 153.931 427.751 150.299C431.159 146.666 435.81 144.45 440.778 144.091L441.8 144.02C452.909 143.856 457.416 153.187 457.232 164.276Z" fill="#FFBF9D"/>
<path d="M434.462 200.547C439.365 200.17 444.057 198.397 447.983 195.437C447.983 195.437 445.183 203.439 434.523 203.255L434.462 200.547Z" fill="#FF9A6C"/>
<path d="M440.543 168.047C440.757 168.262 441.984 167.27 443.752 167.229C445.52 167.188 446.818 168.047 447.043 167.822C447.268 167.597 446.92 167.321 446.338 166.923C445.56 166.4 444.637 166.136 443.701 166.166C442.772 166.196 441.876 166.522 441.146 167.096C440.614 167.546 440.441 167.945 440.543 168.047Z" fill="#263238"/>
<path d="M440.512 173.065C440.533 173.441 440.702 173.793 440.981 174.046C441.261 174.298 441.628 174.431 442.004 174.414C442.188 174.415 442.369 174.38 442.539 174.31C442.708 174.24 442.862 174.136 442.99 174.006C443.119 173.875 443.22 173.72 443.288 173.55C443.355 173.379 443.388 173.197 443.384 173.014C443.36 172.641 443.193 172.291 442.916 172.039C442.639 171.788 442.276 171.653 441.902 171.665C441.719 171.665 441.537 171.701 441.368 171.772C441.199 171.842 441.045 171.945 440.916 172.075C440.787 172.206 440.684 172.36 440.615 172.53C440.546 172.7 440.511 172.881 440.512 173.065Z" fill="#263238"/>
<path d="M436.097 180.454C435.216 180.249 434.314 180.153 433.409 180.168C432.99 180.168 432.592 180.096 432.5 179.82C432.431 179.392 432.496 178.954 432.684 178.563C433.011 177.541 433.338 176.448 433.706 175.303C435.085 170.663 436.056 166.861 435.872 166.81C435.688 166.759 434.411 170.469 433.031 175.109C432.704 176.254 432.387 177.347 432.081 178.39C431.859 178.91 431.826 179.493 431.989 180.035C432.057 180.179 432.159 180.305 432.285 180.402C432.411 180.5 432.558 180.566 432.714 180.597C432.952 180.625 433.192 180.625 433.43 180.597C434.321 180.656 435.217 180.608 436.097 180.454Z" fill="#263238"/>
<path d="M441.299 160.484C441.473 160.883 442.893 160.586 444.6 160.668C446.307 160.75 447.666 161.128 447.901 160.75C447.983 160.576 447.717 160.208 447.145 159.861C446.382 159.433 445.529 159.191 444.655 159.156C443.781 159.12 442.912 159.292 442.117 159.656C441.514 159.953 441.228 160.3 441.299 160.484Z" fill="#263238"/>
<path d="M424.426 163.141C424.62 163.468 426 163.141 427.686 163.06C429.372 162.978 430.752 163.223 430.936 162.886C431.008 162.722 430.732 162.436 430.149 162.181C429.361 161.866 428.513 161.726 427.666 161.772C426.807 161.795 425.963 162.005 425.192 162.385C424.62 162.681 424.344 162.988 424.426 163.141Z" fill="#263238"/>
<path d="M408.36 154.178C408.42 153.963 408.522 153.761 408.66 153.586C408.799 153.41 408.972 153.264 409.167 153.156C410.015 152.771 410.95 152.619 411.876 152.717C414.706 152.665 417.466 151.826 419.847 150.295C420.959 148.697 422.2 147.193 423.557 145.798C426.777 142.487 429.413 140.228 432.152 139.124C435.688 137.704 441.606 137.08 445.295 138.102C448.985 139.124 452.296 142.068 452.817 145.839C454.861 144.091 457.988 144.112 460.513 145.123H460.574C463.374 146.145 464.969 149.089 465.796 151.95C466.624 154.812 466.982 157.878 468.495 160.443C468.811 160.975 469.19 161.619 468.914 162.181C468.786 162.384 468.599 162.544 468.378 162.639C468.157 162.734 467.913 162.759 467.677 162.712C467.203 162.611 466.757 162.409 466.369 162.119C466.686 162.876 466.992 163.622 467.309 164.368C466.286 164.546 465.235 164.479 464.243 164.174C463.728 166.725 463.062 169.243 462.25 171.716C461.204 171.593 460.148 171.85 459.276 172.442C458.254 173.331 457.856 174.997 456.21 174.363C455.382 174.036 454.626 172.319 454.34 171.45C452.491 165.79 451.881 159.799 452.551 153.882C451.389 152.644 450.001 151.638 448.463 150.918L448.586 151.031C445.622 150.009 442.27 148.987 439.46 150.377C437.283 151.46 436.005 153.718 434.35 155.487C432.851 157.167 431.026 158.526 428.987 159.48C426.947 160.434 424.735 160.963 422.484 161.036C422.331 164.02 422.576 168.241 422.423 171.256L419.909 166.473C419.711 166.142 419.53 165.801 419.367 165.451V165.349C419.115 164.765 418.832 164.195 418.519 163.642C418.171 163.922 417.734 164.068 417.288 164.054C416.842 164.039 416.415 163.866 416.086 163.565C415.756 163.264 415.545 162.854 415.491 162.411C415.437 161.968 415.543 161.52 415.79 161.148C416.042 160.801 416.345 160.495 416.689 160.239C416.325 160.594 415.874 160.848 415.381 160.975C414.888 161.102 414.37 161.099 413.879 160.964C413.392 160.816 412.968 160.511 412.673 160.098C412.377 159.684 412.226 159.184 412.244 158.675C412.286 158.333 412.417 158.008 412.623 157.732C412.829 157.456 413.103 157.239 413.419 157.101C412.103 157.207 410.786 156.915 409.638 156.263C408.82 155.824 408.084 155.119 408.36 154.178Z" fill="#263238"/>
<path d="M449.455 147.075C449.824 147.386 450.166 147.728 450.477 148.097C451.316 149.107 451.877 150.319 452.102 151.613C452.287 152.5 452.38 153.405 452.378 154.311C452.378 155.333 452.306 156.355 452.224 157.439C452.128 158.594 452.104 159.755 452.153 160.913C452.181 161.532 452.26 162.147 452.388 162.753C452.483 163.399 452.74 164.011 453.134 164.531C453.32 164.737 453.556 164.892 453.819 164.98C454.082 165.068 454.364 165.086 454.636 165.032C455.155 164.937 455.626 164.671 455.975 164.276C456.553 163.485 456.906 162.553 456.997 161.578H456.782C457.099 162.38 457.533 163.131 458.07 163.806C458.584 164.426 459.315 164.828 460.114 164.93C460.49 164.967 460.868 164.9 461.208 164.736C461.524 164.57 461.784 164.314 461.954 164C462.107 163.71 462.184 163.387 462.179 163.06C462.162 162.755 462.039 162.465 461.831 162.242L461.719 162.344C462.351 163.066 463.127 163.647 463.998 164.051C464.304 164.187 464.539 164.279 464.703 164.327L464.958 164.388L464.723 164.286C464.56 164.214 464.325 164.122 464.039 163.979C463.195 163.552 462.445 162.961 461.831 162.242L461.719 162.344C461.892 162.567 461.993 162.838 462.006 163.12C462.018 163.402 461.943 163.681 461.79 163.918C461.639 164.195 461.408 164.42 461.126 164.562C460.808 164.715 460.453 164.772 460.104 164.725C459.357 164.64 458.671 164.275 458.182 163.703C457.669 163.04 457.252 162.307 456.946 161.527L456.793 161.189L456.721 161.557C456.612 162.49 456.259 163.378 455.699 164.133C455.379 164.48 454.956 164.716 454.493 164.807C454.262 164.854 454.023 164.84 453.799 164.767C453.575 164.693 453.374 164.563 453.216 164.388C452.848 163.901 452.612 163.327 452.531 162.722C452.405 162.13 452.323 161.528 452.286 160.924C452.237 159.772 452.261 158.618 452.357 157.469C452.418 156.365 452.49 155.323 452.48 154.332C452.473 153.414 452.371 152.499 452.173 151.603C451.924 150.285 451.328 149.057 450.446 148.046C450.173 147.669 449.838 147.34 449.455 147.075Z" fill="#455A64"/>
<path d="M416.638 157.387L416.73 157.459C416.814 157.53 416.903 157.595 416.996 157.653C417.135 157.767 417.286 157.866 417.446 157.95C417.654 158.073 417.869 158.185 418.089 158.287C419.511 158.931 421.07 159.212 422.627 159.104C424.944 158.948 427.166 158.125 429.025 156.733C431.274 155.022 433.146 152.865 434.523 150.397C435.3 149.119 435.923 147.801 436.567 146.585C437.227 145.397 438.053 144.31 439.02 143.355C439.87 142.489 440.924 141.849 442.086 141.495C442.611 141.35 443.156 141.288 443.701 141.311C444.196 141.349 444.684 141.452 445.152 141.618C445.977 141.898 446.733 142.351 447.37 142.947C447.85 143.396 448.254 143.921 448.565 144.5C448.813 145.006 448.995 145.542 449.107 146.094C449.107 146.094 449.107 146.094 449.107 145.982C449.107 145.869 449.107 145.788 449.056 145.655C448.971 145.241 448.834 144.839 448.647 144.459C447.932 143.053 446.702 141.977 445.213 141.454C444.722 141.283 444.21 141.177 443.691 141.138C443.126 141.114 442.561 141.176 442.014 141.322C440.819 141.675 439.732 142.325 438.856 143.212C437.893 144.177 437.076 145.279 436.434 146.483C435.729 147.709 435.096 149.017 434.339 150.295C432.971 152.73 431.125 154.865 428.912 156.57C427.092 157.949 424.914 158.776 422.637 158.951C421.104 159.072 419.565 158.819 418.151 158.215C417.63 157.971 417.125 157.695 416.638 157.387Z" fill="#455A64"/>
<path d="M415.677 152.727C415.677 152.727 415.8 152.84 416.056 152.993C416.416 153.211 416.791 153.402 417.18 153.565C417.758 153.811 418.356 154.006 418.968 154.148C419.716 154.324 420.48 154.426 421.247 154.454C422.017 154.473 422.787 154.422 423.547 154.301C424.162 154.197 424.768 154.04 425.356 153.831C425.756 153.694 426.146 153.527 426.521 153.33C426.662 153.267 426.796 153.188 426.919 153.095C426.919 153.095 426.316 153.351 425.305 153.667C424.715 153.843 424.114 153.98 423.506 154.076C422.761 154.18 422.009 154.224 421.258 154.209C420.505 154.176 419.757 154.083 419.019 153.933C418.418 153.801 417.827 153.623 417.251 153.402C416.27 153.024 415.698 152.686 415.677 152.727Z" fill="#455A64"/>
<path d="M424.354 168.047C424.559 168.261 425.785 167.27 427.563 167.229C429.342 167.188 430.629 168.047 430.854 167.822C431.079 167.597 430.721 167.321 430.149 166.923C429.367 166.401 428.442 166.136 427.502 166.166C426.576 166.195 425.684 166.521 424.957 167.096C424.416 167.546 424.242 167.945 424.354 168.047Z" fill="#263238"/>
<path d="M426.163 173.065C426.187 173.438 426.355 173.787 426.631 174.039C426.908 174.291 427.271 174.425 427.645 174.414C427.829 174.415 428.011 174.38 428.181 174.31C428.351 174.24 428.505 174.137 428.635 174.006C428.764 173.876 428.866 173.721 428.935 173.55C429.004 173.38 429.038 173.198 429.035 173.014C429.009 172.64 428.839 172.29 428.561 172.039C428.282 171.787 427.918 171.653 427.543 171.665C427.36 171.665 427.179 171.701 427.01 171.772C426.841 171.842 426.688 171.946 426.56 172.076C426.432 172.206 426.33 172.361 426.262 172.531C426.194 172.7 426.161 172.882 426.163 173.065Z" fill="#263238"/>
<path d="M456.956 172.196C457.13 172.104 464.11 169.508 464.386 176.775C464.662 184.041 457.324 182.835 457.304 182.631C457.283 182.426 456.956 172.196 456.956 172.196Z" fill="#FFBF9D"/>
<path d="M459.46 179.79C459.46 179.79 459.593 179.871 459.808 179.963C460.113 180.082 460.452 180.082 460.758 179.963C461.215 179.646 461.579 179.213 461.812 178.708C462.046 178.203 462.141 177.645 462.087 177.092C462.086 176.468 461.943 175.853 461.668 175.293C461.588 175.065 461.453 174.861 461.274 174.698C461.096 174.536 460.88 174.421 460.646 174.363C460.5 174.334 460.348 174.356 460.216 174.424C460.084 174.493 459.98 174.605 459.92 174.741C459.828 174.945 459.92 175.088 459.838 175.109C459.756 175.129 459.685 174.997 459.726 174.69C459.764 174.509 459.856 174.345 459.992 174.22C460.189 174.065 460.436 173.989 460.687 174.005C460.987 174.054 461.27 174.177 461.51 174.365C461.749 174.553 461.937 174.798 462.056 175.078C462.398 175.705 462.577 176.408 462.577 177.122C462.577 178.584 461.903 179.984 460.86 180.331C460.668 180.396 460.463 180.417 460.261 180.392C460.06 180.367 459.866 180.298 459.695 180.188C459.46 179.963 459.389 179.8 459.46 179.79Z" fill="#FF9A6C"/>
<path d="M441.269 181.905C441.33 181.905 441.33 182.334 441.085 182.927C440.728 183.725 440.145 184.4 439.408 184.869C438.692 185.352 437.84 185.595 436.976 185.564C436.312 185.503 435.954 185.278 435.954 185.227C435.954 185.176 436.363 185.227 436.976 185.227C437.755 185.169 438.508 184.916 439.163 184.491C439.824 184.066 440.38 183.497 440.788 182.825C441.064 182.263 441.187 181.885 441.269 181.905Z" fill="#263238"/>
<path d="M477.856 469.261L480.023 493.789L487.708 512.757C487.834 513.088 487.889 513.441 487.868 513.794C487.847 514.147 487.751 514.492 487.587 514.805C487.422 515.118 487.193 515.393 486.915 515.611C486.636 515.828 486.314 515.985 485.971 516.069C485.564 516.19 485.135 516.216 484.717 516.145C484.299 516.074 483.903 515.908 483.559 515.66C479.175 512.471 463.364 500.739 463.19 499.216C462.966 497.233 458.929 473.083 458.929 473.083L477.856 469.261Z" fill="#455A64"/>
<path d="M486.032 516.099L462.812 496.446L463.047 498.265C463.201 499.287 463.221 499.798 463.916 500.422C470.087 506.011 476.57 511.245 483.334 516.099C483.75 516.294 484.203 516.394 484.663 516.394C485.122 516.394 485.575 516.294 485.991 516.099H486.032Z" fill="#263238"/>
<path d="M467.33 488.781C467.669 488.957 467.929 489.256 468.054 489.617C468.18 489.979 468.162 490.375 468.004 490.723C467.799 491.06 467.479 491.311 467.103 491.43C466.727 491.548 466.321 491.526 465.96 491.367C465.605 491.179 465.336 490.863 465.207 490.483C465.078 490.103 465.098 489.688 465.265 489.323C465.513 488.991 465.874 488.763 466.279 488.682C466.685 488.601 467.106 488.673 467.462 488.883" fill="white"/>
<path d="M478.817 505.981C478.97 506.043 479.409 504.694 480.861 503.856C481.782 503.406 482.775 503.119 483.794 503.007C483.794 502.946 483.457 502.793 482.843 502.772C482.034 502.766 481.239 502.981 480.544 503.396C479.866 503.788 479.319 504.371 478.97 505.072C478.745 505.603 478.745 505.971 478.817 505.981Z" fill="#263238"/>
<path d="M481.045 509.078C481.178 509.18 481.924 508.291 483.232 507.801C484.057 507.562 484.897 507.374 485.746 507.238C485.316 507.042 484.847 506.945 484.375 506.956C483.902 506.966 483.438 507.084 483.017 507.3C481.525 507.872 480.922 509.027 481.045 509.078Z" fill="#263238"/>
<path d="M474.882 502.129C475.905 501.316 476.988 500.582 478.122 499.931C479.348 499.43 480.608 499.017 481.893 498.695C480.501 498.485 479.078 498.752 477.856 499.451C475.751 500.463 474.79 502.067 474.882 502.129Z" fill="#263238"/>
<path d="M473.564 494.709C473.645 494.852 475.025 494.136 476.885 493.891C478.745 493.646 480.289 493.891 480.329 493.758C479.233 493.232 477.991 493.088 476.803 493.35C475.601 493.421 474.458 493.901 473.564 494.709Z" fill="#263238"/>
<path d="M472.746 487.514C473.821 486.974 474.994 486.654 476.194 486.574C477.394 486.493 478.599 486.653 479.737 487.044C479.737 486.982 479.461 486.707 478.817 486.441C477.969 486.108 477.058 485.969 476.149 486.032C475.243 486.083 474.361 486.346 473.574 486.799C472.961 487.146 472.685 487.463 472.746 487.514Z" fill="#263238"/>
<path d="M475.965 485.204C475.965 485.204 476.027 484.867 475.904 484.274C475.724 483.43 475.377 482.631 474.882 481.924C474.545 481.365 474.036 480.931 473.431 480.687C473.221 480.624 472.997 480.624 472.787 480.685C472.576 480.747 472.388 480.868 472.245 481.034C472.124 481.198 472.036 481.385 471.986 481.583C471.937 481.781 471.928 481.987 471.959 482.189C472.136 483.031 472.6 483.785 473.271 484.324C473.941 484.863 474.778 485.152 475.638 485.143C476.497 485.156 477.342 484.919 478.068 484.46C478.794 484 479.37 483.339 479.726 482.557C479.807 482.366 479.844 482.159 479.833 481.952C479.823 481.745 479.765 481.543 479.665 481.362C479.534 481.184 479.353 481.05 479.146 480.975C478.939 480.901 478.714 480.889 478.5 480.942C477.881 481.142 477.323 481.494 476.875 481.964C476.239 482.55 475.71 483.241 475.311 484.008C475.146 484.279 475.042 484.583 475.005 484.898C475.588 483.901 476.315 482.996 477.161 482.21C477.563 481.814 478.053 481.519 478.592 481.351C478.708 481.319 478.831 481.323 478.944 481.363C479.058 481.403 479.156 481.478 479.226 481.576C479.282 481.7 479.311 481.834 479.311 481.97C479.311 482.105 479.282 482.24 479.226 482.363C478.9 483.026 478.396 483.585 477.769 483.975C477.142 484.365 476.418 484.571 475.679 484.571C474.95 484.573 474.242 484.331 473.667 483.882C473.092 483.434 472.685 482.805 472.511 482.097C472.461 481.817 472.52 481.529 472.675 481.29C472.751 481.195 472.855 481.126 472.971 481.091C473.088 481.057 473.213 481.058 473.329 481.096C473.841 481.302 474.279 481.658 474.586 482.118C475.232 483.053 475.7 484.099 475.965 485.204Z" fill="#263238"/>
<path d="M415.984 470.528L416.945 491.326C416.945 491.326 394.778 499.236 394.563 503.099L437.538 502.783L437.446 470.314L415.984 470.528Z" fill="#455A64"/>
<path d="M430.221 489.476C430.625 489.576 430.977 489.826 431.204 490.175C431.432 490.524 431.519 490.946 431.447 491.357C431.323 491.759 431.053 492.101 430.69 492.315C430.327 492.529 429.897 492.599 429.485 492.511C429.058 492.407 428.688 492.143 428.449 491.775C428.209 491.407 428.119 490.961 428.197 490.529C428.366 490.115 428.685 489.779 429.091 489.59C429.496 489.4 429.958 489.371 430.384 489.507" fill="#E0E0E0"/>
<path d="M437.538 502.783L437.395 499.512L396.239 501.035C396.239 501.035 394.338 501.832 394.563 503.079L437.538 502.783Z" fill="#263238"/>
<path d="M416.25 491.142C416.25 491.336 417.272 491.418 418.294 492.041C419.316 492.665 419.888 493.493 420.082 493.411C420.277 493.329 419.949 492.195 418.682 491.459C417.415 490.723 416.199 490.948 416.25 491.142Z" fill="#263238"/>
<path d="M411.753 492.91C411.753 493.104 412.622 493.431 413.337 494.259C414.053 495.087 414.277 495.976 414.482 495.966C414.686 495.956 414.819 494.831 413.899 493.82C412.98 492.808 411.763 492.726 411.753 492.91Z" fill="#263238"/>
<path d="M409.239 498C409.433 498 409.709 497.059 409.167 495.956C408.626 494.852 407.634 494.463 407.542 494.627C407.45 494.791 408.074 495.363 408.503 496.252C408.932 497.141 409.034 497.989 409.239 498Z" fill="#263238"/>
<path d="M416.587 486.359C416.679 486.543 417.609 486.267 418.825 486.359C420.042 486.451 420.941 486.768 421.043 486.604C421.145 486.441 420.266 485.736 418.866 485.674C417.466 485.613 416.536 486.206 416.587 486.359Z" fill="#263238"/>
<path d="M408.503 321.163C408.503 322.359 413.491 488.618 413.491 488.618H440.063L445.448 346.396C445.448 346.396 451.734 420.757 451.734 422.361C451.734 423.966 457.273 489.415 457.273 489.415L481.903 487.524L480.278 337.842L477.274 315.889L408.503 321.163Z" fill="#263238"/>
<path d="M448.218 341.133C447.881 341.324 447.52 341.468 447.145 341.562C446.44 341.807 445.407 342.145 444.14 342.584L443.905 342.656V342.421C443.762 340.428 443.588 337.75 443.435 334.817C443.261 331.638 443.139 328.767 443.077 326.641C443.077 325.619 443.026 324.75 443.026 324.168C442.996 323.863 443.017 323.556 443.088 323.258C443.173 323.551 443.221 323.853 443.231 324.157C443.302 324.74 443.374 325.588 443.445 326.62C443.609 328.664 443.793 331.577 443.956 334.796C444.12 337.73 444.232 340.407 444.293 342.41L444.038 342.247C445.326 341.889 446.368 341.603 447.104 341.419C447.465 341.288 447.838 341.192 448.218 341.133Z" fill="#455A64"/>
<path d="M446.174 323.851C446.174 323.851 446.256 323.718 446.532 323.626C446.92 323.524 447.332 323.56 447.697 323.728C447.972 323.829 448.206 324.015 448.367 324.26C448.527 324.505 448.604 324.795 448.586 325.087C448.551 325.457 448.397 325.805 448.146 326.078C447.895 326.351 447.561 326.535 447.196 326.6C446.824 326.656 446.445 326.608 446.099 326.462C445.752 326.316 445.453 326.077 445.234 325.772C445.08 325.537 444.999 325.261 444.999 324.98C444.999 324.699 445.08 324.424 445.234 324.188C445.445 323.871 445.754 323.631 446.113 323.503C446.378 323.411 446.532 323.432 446.542 323.452C446.552 323.473 445.939 323.646 445.571 324.341C445.463 324.527 445.411 324.739 445.422 324.954C445.433 325.168 445.506 325.374 445.632 325.547C445.798 325.766 446.018 325.936 446.272 326.04C446.525 326.145 446.802 326.179 447.073 326.14C447.326 326.092 447.559 325.968 447.741 325.786C447.923 325.604 448.047 325.371 448.095 325.118C448.115 324.908 448.07 324.698 447.966 324.515C447.862 324.332 447.703 324.186 447.513 324.096C447.104 323.875 446.635 323.789 446.174 323.851Z" fill="#455A64"/>
<path d="M458.377 325.578C458.234 325.578 458.029 324.863 457.927 323.963C457.825 323.064 457.856 322.318 457.999 322.308C458.142 322.297 458.346 323.013 458.448 323.912C458.551 324.812 458.52 325.578 458.377 325.578Z" fill="#455A64"/>
<path d="M460.216 325.384C460.073 325.384 459.951 324.617 459.951 323.667C459.951 322.716 460.053 321.95 460.206 321.95C460.359 321.95 460.472 322.716 460.472 323.667C460.472 324.617 460.37 325.384 460.216 325.384Z" fill="#455A64"/>
<path d="M428.197 326.528C428.054 326.528 427.829 325.68 427.696 324.607C427.563 323.534 427.574 322.635 427.696 322.624C427.819 322.614 428.064 323.473 428.197 324.556C428.33 325.639 428.34 326.518 428.197 326.528Z" fill="#455A64"/>
<path d="M430.435 326.692C429.963 326.12 429.729 325.388 429.781 324.648C429.671 323.933 429.835 323.203 430.241 322.604C430.394 322.604 430.241 323.544 430.313 324.648C430.384 325.752 430.578 326.651 430.435 326.692Z" fill="#455A64"/>
<path d="M422.034 324.474C422.045 324.72 422.014 324.965 421.942 325.2C421.814 325.863 421.636 326.515 421.411 327.152C420.653 329.298 419.541 331.301 418.12 333.079C416.645 334.913 414.893 336.506 412.928 337.801C412.324 338.2 411.696 338.562 411.048 338.884C410.812 339.017 410.561 339.123 410.302 339.201C410.302 339.14 411.262 338.608 412.724 337.556C414.604 336.221 416.289 334.632 417.732 332.834C419.124 331.081 420.257 329.136 421.094 327.06C421.717 325.476 421.953 324.454 422.034 324.474Z" fill="#455A64"/>
<path d="M479.471 335.675C479.209 335.753 478.937 335.795 478.663 335.798C477.922 335.857 477.177 335.857 476.435 335.798C474.009 335.565 471.675 334.751 469.629 333.427C467.691 332.158 466.128 330.394 465.101 328.317C464.803 327.713 464.57 327.079 464.407 326.426C464.324 326.197 464.286 325.954 464.294 325.711C464.376 325.711 464.601 326.733 465.408 328.194C466.487 330.171 468.034 331.852 469.915 333.09C471.897 334.369 474.138 335.193 476.476 335.502C478.306 335.706 479.461 335.594 479.471 335.675Z" fill="#455A64"/>
<path d="M436.189 419.868C436.189 419.98 431.754 419.02 426.357 417.742C420.961 416.465 416.608 415.32 416.648 415.208C416.689 415.095 421.084 416.046 426.48 417.333C431.876 418.621 436.22 419.755 436.189 419.868Z" fill="#455A64"/>
<path d="M478.991 413.817C479.052 413.92 475.219 415.913 470.436 418.284C465.653 420.655 461.709 422.484 461.647 422.372C461.586 422.259 465.418 420.266 470.201 417.905C474.984 415.545 478.929 413.715 478.991 413.817Z" fill="#455A64"/>
<path d="M395.605 264.861L399.234 269.409V261.591H410.68C410.68 261.591 411.947 279.486 411.702 283.298C411.431 285.285 410.961 287.24 410.302 289.134C409.96 290.236 409.34 291.231 408.501 292.024C407.663 292.817 406.634 293.38 405.514 293.659C404.395 293.938 403.222 293.925 402.109 293.619C400.997 293.313 399.982 292.726 399.162 291.913C397.881 290.667 396.686 289.336 395.585 287.928C390.475 281.387 382.054 265.444 382.054 265.444L390.884 260.17L395.605 264.861Z" fill="#FFBF9D"/>
<path d="M394.88 264.023C395.312 264.749 395.812 265.434 396.372 266.067C397.394 267.263 398.682 268.908 400.204 270.686C401.727 272.465 403.179 274.038 404.292 275.112C404.857 275.731 405.512 276.261 406.234 276.685C405.716 276.037 405.156 275.422 404.558 274.846C403.536 273.722 402.126 272.117 400.603 270.339C397.588 266.721 395.013 263.9 394.88 264.023Z" fill="#FF9A6C"/>
<path d="M421.707 209.888L433.777 205.145L456.006 203.888L466.45 207.864L452.132 215.815L439.786 215.365L421.707 209.888Z" fill="#FFBF9D"/>
<path d="M407.471 323.432C408.564 323.616 481.392 326.712 481.392 326.712L478.878 261.192L478.663 248.335L474.575 209.387C474.575 209.387 463.681 205.636 458.131 203.848C458.131 203.848 452.286 209.98 441.166 209.775C430.302 209.622 428.033 207.169 428.033 207.169L412.847 212.994C412.847 212.994 402.044 216.868 400.184 221.651C398.324 226.434 395.074 252.873 395.074 252.873H410.823L410.404 299.854L407.471 323.432Z" fill="#455A64"/>
<g opacity="0.2">
<path d="M453.267 236.03L455.525 252.546L466.45 257.421L474.524 250.543V235.213L453.267 236.03Z" fill="black"/>
</g>
<path d="M474.238 240.752C474.238 240.885 469.7 240.997 464.1 240.997C458.499 240.997 453.951 240.885 453.951 240.752C457.328 240.496 460.715 240.41 464.1 240.497C467.481 240.41 470.865 240.496 474.238 240.752Z" fill="#263238"/>
<path d="M402.565 228.488C402.617 228.631 402.658 228.778 402.688 228.927C402.759 229.255 402.851 229.663 402.974 230.185C403.367 231.762 403.851 233.314 404.425 234.835C405.151 236.787 406.173 239.086 407.43 241.662C408.687 244.237 409.689 247.313 410.803 250.584C410.803 254.508 410.803 258.76 410.721 263.287C410.619 273.303 410.516 282.368 410.455 288.98C410.394 292.23 410.353 294.877 410.312 296.768C410.312 297.647 410.292 298.352 410.251 298.883C410.255 299.13 410.238 299.376 410.2 299.619C410.182 299.371 410.182 299.122 410.2 298.873C410.2 298.355 410.2 297.65 410.2 296.758C410.2 294.877 410.2 292.22 410.2 288.97C410.2 282.358 410.281 273.293 410.332 263.287C410.332 258.801 410.414 254.508 410.445 250.584V250.655C409.351 247.385 408.299 244.349 407.154 241.743C406.061 239.499 405.085 237.2 404.231 234.855C403.679 233.32 403.231 231.75 402.892 230.154C402.79 229.592 402.708 229.132 402.667 228.866C402.622 228.744 402.588 228.617 402.565 228.488Z" fill="#263238"/>
<path d="M479.777 220.844C479.813 221.31 479.813 221.778 479.777 222.244C479.777 223.266 479.696 224.512 479.634 226.045C479.501 229.336 479.328 233.731 479.134 238.585C478.939 243.44 478.715 247.845 478.571 251.136C478.479 252.669 478.408 253.946 478.347 254.937C478.344 255.404 478.296 255.87 478.204 256.327C478.167 255.861 478.167 255.393 478.204 254.927C478.204 253.905 478.204 252.658 478.275 251.125C478.357 247.906 478.5 243.471 478.704 238.575C478.909 233.68 479.134 229.234 479.338 226.035C479.44 224.431 479.542 223.133 479.634 222.233C479.641 221.767 479.689 221.302 479.777 220.844Z" fill="#263238"/>
<g opacity="0.3">
<path d="M402.606 230.89C402.329 238.081 404.9 245.092 409.76 250.4C408.278 243.644 404.579 237.359 402.606 230.89Z" fill="black"/>
</g>
<g opacity="0.3">
<path d="M434.595 295.715C438.019 295.259 441.142 293.52 443.333 290.85C445.638 288.276 447.612 285.423 449.209 282.358C451.27 278.189 452.439 273.636 452.643 268.99C448.402 280.365 442.188 289.358 434.595 295.715Z" fill="black"/>
</g>
<path d="M453.992 264.033C453.986 264.174 453.965 264.315 453.931 264.452C453.859 264.779 453.768 265.168 453.665 265.638C453.563 266.108 453.4 266.772 453.175 267.487C452.95 268.203 452.735 269.02 452.408 269.91C451.692 272.002 450.853 274.049 449.894 276.042C447.549 280.92 444.54 285.449 440.952 289.501C439.487 291.155 437.917 292.711 436.25 294.162C435.566 294.806 434.881 295.317 434.298 295.787C433.716 296.257 433.205 296.635 432.765 296.931L431.743 297.616C431.508 297.759 431.386 297.841 431.375 297.82C431.465 297.713 431.568 297.617 431.682 297.534L432.633 296.778C433.052 296.471 433.552 296.073 434.114 295.582C434.677 295.092 435.341 294.56 436.015 293.916C437.63 292.434 439.161 290.865 440.604 289.215C442.352 287.179 443.98 285.043 445.479 282.817C446.945 280.575 448.282 278.251 449.485 275.858C450.452 273.891 451.315 271.875 452.071 269.818C452.418 268.949 452.664 268.131 452.899 267.426C453.134 266.721 453.328 266.108 453.471 265.607C453.614 265.106 453.716 264.769 453.819 264.452C453.921 264.135 453.972 264.023 453.992 264.033Z" fill="#263238"/>
<path d="M451.887 243.532C451.871 243.758 451.84 243.984 451.795 244.206C451.713 244.687 451.601 245.32 451.468 246.107C451.335 246.894 451.131 247.937 450.834 249.092C450.538 250.246 450.272 251.585 449.812 253.016C449.608 253.731 449.383 254.488 449.148 255.275C448.913 256.062 448.606 256.859 448.32 257.687C447.779 259.373 447.043 261.11 446.276 262.95C442.919 270.89 438.408 278.291 432.888 284.913C431.59 286.405 430.374 287.856 429.127 289.103C428.514 289.736 427.941 290.37 427.349 290.932C426.756 291.494 426.194 292.046 425.642 292.557C424.62 293.579 423.516 294.468 422.576 295.245C421.636 296.022 420.879 296.666 420.205 297.166L418.662 298.332C418.493 298.479 418.308 298.606 418.11 298.71C418.259 298.545 418.423 298.394 418.6 298.26L420.082 297.023C420.736 296.502 421.534 295.858 422.402 295.051C423.271 294.244 424.324 293.385 425.376 292.312L427.052 290.677C427.635 290.104 428.197 289.471 428.8 288.837C430.037 287.58 431.232 286.129 432.52 284.626C437.992 278.016 442.493 270.658 445.888 262.776C446.644 260.947 447.38 259.23 447.932 257.564C448.228 256.726 448.535 255.939 448.78 255.162C449.025 254.386 449.25 253.639 449.475 252.924C449.945 251.503 450.242 250.185 450.558 249.03C450.875 247.875 451.1 246.884 451.264 246.066C451.427 245.249 451.58 244.666 451.683 244.186C451.727 243.961 451.795 243.742 451.887 243.532Z" fill="#263238"/>
<path d="M394.338 223.163L422.382 265.801C422.516 266.003 422.589 266.238 422.592 266.48C422.596 266.722 422.529 266.96 422.401 267.165C422.272 267.37 422.087 267.533 421.868 267.636C421.649 267.738 421.405 267.776 421.166 267.743L388.871 263.655C388.701 263.631 388.537 263.574 388.39 263.486C388.242 263.398 388.114 263.282 388.012 263.144L357.168 221.017C357.015 220.822 356.923 220.587 356.902 220.34C356.882 220.093 356.934 219.846 357.052 219.629C357.171 219.411 357.351 219.233 357.569 219.117C357.788 219 358.035 218.95 358.282 218.973L391.507 221.426C392.081 221.478 392.635 221.662 393.126 221.963C393.617 222.265 394.032 222.675 394.338 223.163Z" fill="#E0E0E0"/>
<path d="M394.338 223.163C394.269 223.024 394.183 222.894 394.083 222.775C393.798 222.422 393.452 222.125 393.061 221.896C392.395 221.549 391.655 221.37 390.904 221.375L387.92 221.13L368.768 219.627L362.421 219.137L359.049 218.881C358.752 218.881 358.497 218.881 358.159 218.881C357.814 218.893 357.485 219.027 357.229 219.259C356.97 219.496 356.803 219.817 356.758 220.165C356.713 220.513 356.793 220.866 356.984 221.16L365.957 233.475C372.294 242.132 379.243 251.647 386.551 261.642C387.021 262.265 387.44 262.868 387.951 263.522C388.108 263.696 388.304 263.829 388.523 263.911C388.724 263.981 388.934 264.022 389.146 264.033L390.291 264.176L394.808 264.749L403.638 265.852L420.338 267.896C420.685 267.896 420.972 267.988 421.36 268.009C421.559 268.01 421.756 267.972 421.941 267.897C422.125 267.821 422.292 267.71 422.433 267.569C422.701 267.295 422.857 266.931 422.872 266.547C422.857 266.174 422.721 265.815 422.484 265.525L420.317 262.214L416.229 256.082L408.912 245.014C404.436 238.279 400.818 232.811 398.293 229.019L395.381 224.676C395.054 224.206 394.798 223.828 394.604 223.562C394.522 223.429 394.429 223.303 394.328 223.184C394.398 223.325 394.477 223.461 394.563 223.593L395.289 224.737C395.943 225.759 396.893 227.241 398.109 229.132L408.595 245.228L415.862 256.327L419.95 262.51L422.075 265.75C422.259 265.965 422.367 266.234 422.382 266.517C422.372 266.785 422.263 267.04 422.075 267.232C421.885 267.421 421.628 267.527 421.36 267.528C421.084 267.528 420.706 267.447 420.389 267.416L403.659 265.28L394.829 264.166L390.312 263.594L389.177 263.451C389.008 263.436 388.84 263.406 388.676 263.359C388.533 263.303 388.403 263.216 388.298 263.103C387.848 262.49 387.399 261.887 386.949 261.264C379.632 251.289 372.641 241.784 366.325 233.128C363.147 228.815 360.142 224.707 357.321 220.864C357.216 220.712 357.154 220.535 357.141 220.35C357.129 220.166 357.166 219.982 357.25 219.817C357.334 219.653 357.461 219.514 357.618 219.416C357.774 219.317 357.954 219.263 358.139 219.259C358.374 219.259 358.701 219.259 358.977 219.31L362.35 219.556L368.706 220.005L387.92 221.334L390.925 221.538C391.657 221.514 392.384 221.672 393.04 221.998C393.552 222.289 393.994 222.686 394.338 223.163Z" fill="#263238"/>
<path d="M357.168 221.048C357.389 221.105 357.615 221.139 357.842 221.15L359.805 221.354L367.102 221.998L391.916 224.042L391.722 223.93C393.275 226.24 394.88 228.631 396.484 231.084C403.035 241.151 408.748 250.41 413.071 256.992C415.218 260.293 417.006 262.929 418.253 264.749L419.704 266.793C419.861 267.042 420.042 267.275 420.246 267.488C420.111 267.227 419.961 266.974 419.796 266.731L418.427 264.595L413.388 256.757C409.157 250.124 403.485 240.844 396.934 230.767C395.329 228.284 393.715 225.892 392.151 223.613L392.079 223.511H392.008L367.184 221.671L359.876 221.181L357.904 221.068C357.659 221.043 357.413 221.036 357.168 221.048Z" fill="#263238"/>
<path d="M376.392 227.558C376.411 227.473 376.447 227.393 376.498 227.322C376.549 227.252 376.613 227.192 376.688 227.147C376.762 227.103 376.845 227.073 376.931 227.061C377.017 227.049 377.105 227.055 377.189 227.078C377.518 227.153 377.819 227.319 378.058 227.558C378.209 227.696 378.308 227.884 378.336 228.087C378.364 228.291 378.32 228.498 378.211 228.672C377.894 229.071 377.189 228.917 376.841 228.59C376.685 228.471 376.561 228.313 376.482 228.133C376.404 227.952 376.372 227.754 376.392 227.558Z" fill="white"/>
<path d="M391.477 251.452C391.477 251.452 392.744 248.386 389.514 248.018C385.61 247.815 381.697 247.815 377.792 248.018C377.792 248.018 373.142 248.509 374.123 251.841C374.123 251.841 371.384 254.293 372.856 256.951C374.328 259.608 374.9 258.811 374.9 258.811C374.9 258.811 374.512 262.05 376.944 262.531C376.944 262.531 379.601 265.668 382.054 265.474C384.507 265.28 394.88 260.282 395.565 259.342C396.249 258.402 397.231 257.809 396.648 256.716C396.648 256.716 397.915 253.844 395.176 253.404C395.197 253.353 395.003 250.972 391.477 251.452Z" fill="#FFBF9D"/>
<path d="M376.739 252.546C377.458 252.696 378.193 252.751 378.926 252.709C380.275 252.709 382.135 252.709 384.19 252.709C385.96 252.761 387.731 252.658 389.484 252.403C390.874 252.076 391.425 251.258 391.364 251.238C390.764 251.618 390.099 251.885 389.402 252.025C388.124 252.239 386.234 252.106 384.179 252.178C382.125 252.249 380.265 252.27 378.916 252.331C378.185 252.315 377.454 252.387 376.739 252.546Z" fill="#FF9A6C"/>
<path d="M379.049 257.451C379.265 257.578 379.505 257.658 379.754 257.687C380.426 257.823 381.114 257.868 381.798 257.819C382.796 257.743 383.782 257.562 384.742 257.278C385.825 256.981 386.98 256.562 388.196 256.194C389.326 255.82 390.495 255.577 391.681 255.469C392.706 255.564 393.736 255.358 394.645 254.876C395 254.636 395.252 254.271 395.35 253.854C395.416 253.542 395.372 253.218 395.227 252.934C394.972 252.474 394.624 252.444 394.635 252.464C394.645 252.485 394.88 252.607 395.033 253.026C395.131 253.31 395.124 253.62 395.014 253.899C394.903 254.179 394.696 254.409 394.43 254.549C393.557 254.933 392.598 255.078 391.65 254.968C390.423 255.044 389.211 255.278 388.043 255.663L384.609 256.797C383.681 257.086 382.73 257.298 381.768 257.431C380.863 257.493 379.955 257.5 379.049 257.451Z" fill="#FF9A6C"/>
<path d="M382.524 261.591C383.268 261.548 384.004 261.407 384.711 261.172C386.039 260.834 387.859 260.313 389.821 259.669C391.783 259.025 393.582 258.361 394.849 257.84C395.569 257.614 396.256 257.294 396.893 256.889C396.832 256.746 393.643 257.911 389.739 259.148C385.835 260.385 382.483 261.448 382.524 261.591Z" fill="#FF9A6C"/>
<path d="M381.696 265.433C382.307 265.487 382.922 265.417 383.505 265.229C384.931 264.883 386.317 264.393 387.644 263.767C389.198 263.062 390.557 262.337 391.538 261.815C392.098 261.579 392.622 261.262 393.091 260.875C391.134 261.508 389.236 262.311 387.419 263.277C384.364 264.748 381.676 265.28 381.696 265.433Z" fill="#FF9A6C"/>
<path d="M484.938 236.214C484.938 236.214 478.336 262.664 470.089 272.434C462.097 281.898 449.577 277.544 445.244 265.28C440.911 253.016 433.184 225.105 433.184 225.105L442.668 217.849L459.02 249.623L466.41 227.967L484.938 236.214Z" fill="#FFBF9D"/>
<path d="M433.624 225.861L426.664 215.774C425.651 215.556 424.659 215.248 423.7 214.855C422.913 214.395 422.137 210.388 422.157 209.612C422.178 208.835 420.808 207.006 421.36 206.484C421.912 205.963 423.772 205.932 423.67 205.186C423.67 205.023 422.29 203.347 423.373 202.12C423.971 201.726 424.636 201.445 425.335 201.293L425.223 197.44C425.223 197.44 427.267 192.902 429.423 194.547C429.423 194.547 437.426 200.679 438.233 201.701C439.041 202.723 442.127 215.488 442.669 217.89" fill="#FFBF9D"/>
<path d="M442.669 217.869C442.658 217.642 442.623 217.416 442.566 217.195C442.454 216.704 442.321 216.071 442.147 215.274C441.779 213.598 441.217 211.186 440.461 208.212C440.073 206.719 439.654 205.146 439.112 203.357C438.979 202.928 438.836 202.488 438.652 202.039C438.441 201.581 438.117 201.183 437.712 200.884C436.976 200.24 436.209 199.606 435.423 198.962C433.838 197.685 432.152 196.356 430.405 194.997C429.963 194.604 429.468 194.277 428.933 194.026C428.62 193.951 428.295 193.951 427.982 194.026C427.67 194.1 427.379 194.248 427.134 194.455C426.221 195.25 425.492 196.233 424.998 197.338V197.399C424.998 197.777 424.998 198.176 424.998 198.574C424.998 199.473 424.998 200.373 425.08 201.252L425.264 201.006C424.781 201.123 424.309 201.28 423.854 201.477C423.599 201.582 423.367 201.735 423.169 201.926C422.992 202.132 422.86 202.372 422.78 202.631C422.65 203.142 422.693 203.681 422.903 204.164C422.988 204.395 423.094 204.618 423.22 204.829L423.394 205.125V205.197C423.399 205.22 423.399 205.245 423.394 205.268C423.394 205.35 423.189 205.473 422.995 205.544C422.801 205.616 422.586 205.687 422.372 205.759C422.15 205.818 421.931 205.89 421.718 205.973C421.449 206.051 421.215 206.216 421.053 206.444C420.946 206.706 420.946 206.999 421.053 207.261C421.115 207.482 421.193 207.697 421.288 207.905C421.462 208.314 421.656 208.702 421.799 209.08C421.872 209.252 421.913 209.436 421.922 209.622C421.926 209.841 421.947 210.06 421.983 210.276C422.045 210.695 422.116 211.104 422.208 211.513C422.367 212.3 422.582 213.076 422.852 213.833C422.981 214.228 423.19 214.593 423.465 214.906C423.799 215.122 424.164 215.284 424.548 215.386C425.254 215.601 425.949 215.774 426.592 215.928L426.48 215.856L431.59 223.174L433.021 225.156C433.179 225.395 433.357 225.621 433.552 225.831C433.421 225.577 433.275 225.331 433.113 225.095L431.764 223.051C430.548 221.242 428.841 218.718 426.746 215.631V215.57H426.756C426.102 215.406 425.417 215.222 424.712 215.008C424.385 214.915 424.072 214.777 423.782 214.599C423.562 214.33 423.395 214.021 423.291 213.69C423.031 212.95 422.826 212.191 422.678 211.421C422.596 211.022 422.525 210.623 422.464 210.215C422.464 210.021 422.464 209.806 422.464 209.622C422.455 209.384 422.406 209.149 422.321 208.927C422.167 208.508 421.973 208.12 421.81 207.721C421.72 207.534 421.648 207.339 421.595 207.138C421.539 206.987 421.539 206.82 421.595 206.668C421.712 206.546 421.861 206.458 422.024 206.413C422.228 206.333 422.436 206.264 422.648 206.208C422.862 206.137 423.087 206.076 423.312 205.984C423.593 205.897 423.828 205.702 423.966 205.442C424.003 205.359 424.021 205.268 424.017 205.176C424.014 205.112 423.997 205.049 423.966 204.992V204.911L423.792 204.614C423.682 204.42 423.587 204.219 423.506 204.011C423.341 203.627 423.306 203.201 423.404 202.795C423.458 202.598 423.556 202.417 423.69 202.264C423.844 202.128 424.02 202.021 424.211 201.947C424.641 201.762 425.086 201.611 425.54 201.497L425.724 201.446V201.252C425.724 200.373 425.673 199.484 425.642 198.584C425.642 198.186 425.642 197.777 425.642 197.409V197.521C426.096 196.49 426.769 195.569 427.614 194.823C427.796 194.656 428.016 194.536 428.254 194.473C428.493 194.411 428.744 194.408 428.984 194.466C429.46 194.699 429.903 194.995 430.302 195.345C432.06 196.704 433.746 198.022 435.331 199.29C436.128 199.923 436.894 200.547 437.62 201.17C437.987 201.431 438.28 201.783 438.468 202.192C438.642 202.611 438.785 203.05 438.928 203.47C439.47 205.186 439.95 206.811 440.318 208.283C441.084 211.216 441.718 213.598 442.158 215.304C442.372 216.091 442.536 216.725 442.658 217.205C442.639 217.426 442.642 217.649 442.669 217.869Z" fill="#FF9A6C"/>
<path d="M425.335 201.293C425.335 201.374 426.143 201.293 427.379 201.436C428.12 201.55 428.85 201.717 429.567 201.936C430.505 202.07 431.459 202.07 432.397 201.936C433.203 201.823 434.024 201.895 434.798 202.146C435.572 202.398 436.278 202.822 436.864 203.388C437.317 203.891 437.68 204.468 437.937 205.094C437.941 204.73 437.871 204.369 437.731 204.034C437.59 203.698 437.382 203.394 437.119 203.142C436.587 202.558 435.931 202.1 435.198 201.804C434.298 201.454 433.326 201.332 432.367 201.446C431.468 201.558 430.558 201.558 429.659 201.446C428.92 201.24 428.164 201.107 427.4 201.047C426.702 200.992 426.001 201.075 425.335 201.293Z" fill="#FF9A6C"/>
<path d="M428.166 201.078C428.279 201.139 428.606 200.669 428.565 200.005C428.524 199.341 428.146 198.922 428.044 198.983C427.942 199.044 428.044 199.494 428.044 200.005C428.044 200.516 428.033 201.027 428.166 201.078Z" fill="#FF9A6C"/>
<path d="M423.424 205.329C425.446 205.523 427.486 205.363 429.454 204.859C430.169 204.625 430.921 204.528 431.672 204.573C432.253 204.701 432.766 205.04 433.113 205.524C433.414 206.005 433.68 206.507 433.91 207.026C433.945 206.407 433.769 205.794 433.409 205.289C433.041 204.694 432.454 204.268 431.774 204.103C430.963 204.008 430.14 204.088 429.362 204.338C426.122 205.074 423.424 205.186 423.424 205.329Z" fill="#FF9A6C"/>
<path d="M422.361 208.968C422.849 209.082 423.356 209.082 423.843 208.968C424.753 208.866 425.979 208.549 427.308 208.283C427.921 208.146 428.549 208.084 429.178 208.099C429.667 208.108 430.138 208.28 430.517 208.59C430.856 208.902 431.088 209.313 431.181 209.765C431.181 209.765 431.273 209.632 431.263 209.356C431.221 208.967 431.044 208.605 430.762 208.334C430.348 207.926 429.799 207.682 429.219 207.649C428.534 207.602 427.845 207.654 427.175 207.803C425.805 208.068 424.62 208.436 423.741 208.62C423.27 208.689 422.808 208.805 422.361 208.968Z" fill="#FF9A6C"/>
<path d="M424.712 211.85C424.63 211.911 425.315 212.627 426.562 212.627L426.317 212.412C426.317 212.627 426.317 212.841 426.388 213.056C426.421 213.932 426.615 214.795 426.961 215.601C427.096 214.738 427.069 213.857 426.879 213.005L426.787 212.361V212.136H426.572C425.943 212.11 425.32 212.014 424.712 211.85Z" fill="#FF9A6C"/>
<path d="M474.494 209.428C474.494 209.428 488.015 212.698 487.984 230.634C487.953 248.57 483.896 257.421 483.896 257.421L458.969 243.818L464.57 229.888L474.494 209.428Z" fill="#455A64"/>
<path d="M483.896 257.421C483.717 257.369 483.545 257.293 483.385 257.196L481.934 256.46L476.619 253.66L458.847 244.084L458.642 243.982L458.724 243.767L460.063 240.272C461.657 236.133 463.129 232.188 464.56 228.6C465.255 226.812 465.909 225.105 466.532 223.49C467.076 221.99 467.736 220.535 468.505 219.137C469.531 217.045 471.08 215.253 473.001 213.935C473.541 213.597 474.136 213.358 474.759 213.23C474.917 213.196 475.078 213.175 475.24 213.168H475.413C474.596 213.338 473.816 213.657 473.114 214.108C471.27 215.457 469.797 217.25 468.832 219.321C468.097 220.714 467.465 222.159 466.941 223.644C466.338 225.248 465.694 226.955 465.009 228.754L460.553 240.445L459.215 243.941L459.092 243.614L476.834 253.353L482.067 256.297L483.467 257.114C483.621 257.2 483.765 257.303 483.896 257.421Z" fill="#263238"/>
</svg>
