<svg width="549" height="503" viewBox="0 0 549 503" fill="none" xmlns="http://www.w3.org/2000/svg">
<rect width="549" height="503" rx="12" fill="#F7F8FA"/>
<g clip-path="url(#clip0_270_19798)">
<path d="M404.079 165.193C407.606 163.07 411.4 161.424 415.361 160.298L417.687 149.148L436.553 148.824L439.268 159.877C443.266 160.867 447.114 162.382 450.713 164.383L460.244 158.137L473.82 171.265L467.902 180.989C470.038 184.508 471.686 188.298 472.803 192.258L483.967 194.581L484.302 213.425L473.257 216.104C472.275 220.098 470.761 223.943 468.757 227.536L475.01 237.054L461.899 250.614L452.163 244.704C448.618 246.845 444.796 248.492 440.804 249.599L438.479 260.76L419.613 261.084L416.898 250.02C412.899 249.039 409.05 247.527 405.453 245.525L395.922 251.77L382.389 238.675L388.296 228.951C386.17 225.443 384.522 221.668 383.396 217.725L372.232 215.402L371.907 196.559L382.974 193.847C383.965 189.854 385.482 186.01 387.485 182.415L381.232 172.897L394.289 159.294L404.025 165.193H404.079Z" fill="white"/>
<path d="M404.079 165.193L403.452 164.836L401.591 163.756L394.289 159.38H394.397L381.308 172.95V172.777C383.212 175.652 385.322 178.861 387.572 182.286L387.636 182.361L387.582 182.458C385.595 186.04 384.093 189.87 383.115 193.847V193.955H383.007L371.929 196.677L372.081 196.483C372.189 202.415 372.308 208.703 372.438 215.315L372.254 215.11L383.472 217.455H383.601V217.595C384.726 221.53 386.37 225.298 388.491 228.8L388.567 228.918L388.491 229.048L382.585 238.772V238.47L396.172 251.543H395.847L405.377 245.298L405.507 245.212L405.648 245.287C409.218 247.275 413.038 248.779 417.006 249.76H417.168V249.923C418.012 253.391 418.943 257.172 419.884 260.986L419.613 260.781L438.468 260.446L438.198 260.662L440.524 249.512V249.35L440.686 249.296C444.622 248.187 448.391 246.555 451.893 244.445L452.044 244.358L452.185 244.445L461.921 250.344H461.575L474.675 236.784V237.13L468.433 227.611L468.336 227.471L468.422 227.319C470.41 223.748 471.916 219.929 472.901 215.964V215.802H473.063L484.14 213.1L484.075 213.403C483.967 206.971 483.859 200.689 483.751 194.56L483.967 194.808L472.803 192.485H472.652V192.345C471.537 188.406 469.9 184.635 467.784 181.129L467.708 181L467.784 180.881C469.818 177.542 471.786 174.312 473.701 171.157V171.449L460.093 158.299H460.363L450.822 164.523L450.714 164.598L450.616 164.534C447.036 162.538 443.205 161.026 439.226 160.039H439.107V159.931C438.122 155.901 437.246 152.281 436.413 148.856L436.575 148.986L417.709 149.277L417.828 149.18C416.887 153.642 416.119 157.294 415.47 160.32H415.416C412.428 161.158 409.529 162.287 406.762 163.691C405.853 164.145 405.193 164.523 404.75 164.771C404.306 165.02 404.079 165.128 404.079 165.128L404.728 164.728C405.161 164.469 405.81 164.08 406.719 163.648C409.48 162.208 412.379 161.05 415.373 160.19L415.308 160.266C415.924 157.23 416.682 153.567 417.601 149.105V149.007H417.709L436.564 148.629H436.705V148.759C437.549 152.173 438.436 155.793 439.431 159.812L439.301 159.682C443.316 160.668 447.182 162.18 450.8 164.177H450.584L460.114 157.921L460.255 157.835L460.385 157.954L473.972 171.027L474.101 171.157L474.004 171.319L468.108 181.043V180.795C470.25 184.333 471.909 188.141 473.041 192.118L472.847 191.934L484.075 194.3H484.281V194.516C484.403 200.639 484.519 206.917 484.627 213.349V213.565H484.421L473.258 216.363L473.463 216.169C472.474 220.186 470.95 224.053 468.931 227.665V227.384C471 230.517 473.085 233.69 475.183 236.903L475.313 237.087L475.151 237.249L462.051 250.809L461.899 250.971L461.704 250.852L451.969 244.952H452.25C448.709 247.091 444.896 248.745 440.913 249.869L441.108 249.663C440.307 253.488 439.518 257.291 438.782 260.814V261.03H438.555L419.7 261.365H419.473L419.419 261.149C418.488 257.335 417.558 253.585 416.714 250.085L416.909 250.29C412.881 249.314 408.999 247.81 405.366 245.817H405.648L396.107 252.051L395.934 252.17L395.782 252.019L382.217 238.923L382.076 238.783L382.174 238.61C384.24 235.228 386.263 231.9 388.091 228.886V229.134C385.947 225.569 384.295 221.732 383.18 217.725L383.353 217.898L372.189 215.564H372.016V215.38C371.908 208.768 371.8 202.469 371.702 196.537V196.386H371.854L382.931 193.684L382.801 193.825C383.797 189.82 385.321 185.965 387.334 182.361V182.534L381.103 172.994L381.038 172.896L381.124 172.821L394.289 159.228H394.354L401.57 163.658L403.43 164.804L404.079 165.193Z" fill="#E0E0E0"/>
<path d="M166.654 192.766C170.426 190.467 174.49 188.686 178.738 187.472L181.182 175.587L201.39 175.241L204.3 187.126C208.584 188.184 212.709 189.804 216.567 191.945L226.779 185.257L241.317 199.303L234.989 209.73C237.267 213.506 239.031 217.568 240.236 221.809L252.2 224.294L252.557 244.477L240.657 247.384C239.601 251.66 237.978 255.777 235.833 259.625L242.529 269.836L228.466 284.357L218.027 278.026C214.285 280.267 210.262 282.004 206.063 283.19L203.575 295.14L183.346 295.518L180.436 283.633C176.162 282.58 172.048 280.963 168.201 278.825L157.989 285.502L143.44 271.456L149.779 261.019C147.492 257.25 145.724 253.191 144.522 248.95L132.622 246.465L132.179 226.369L144.078 223.462C145.13 219.184 146.753 215.067 148.903 211.221L142.207 201.01L156.269 186.489L166.719 192.82L166.654 192.766Z" fill="white"/>
<path d="M166.655 192.766L165.984 192.377L163.983 191.199L156.162 186.51H156.27L142.239 201.064V200.88L148.946 211.069V211.156V211.242C146.817 215.083 145.205 219.188 144.154 223.451V223.559H144.046L132.147 226.476L132.298 226.282C132.417 232.635 132.547 239.377 132.677 246.465L132.504 246.249L144.468 248.723H144.598V248.853C145.834 253.104 147.635 257.17 149.952 260.943L150.028 261.062L149.952 261.192L143.624 271.629V271.316L158.163 285.362H157.838L168.05 278.674L168.191 278.587L168.331 278.663C172.165 280.791 176.265 282.401 180.523 283.449H180.685V283.601C181.594 287.317 182.589 291.369 183.595 295.486L183.325 295.28L203.532 294.924L203.261 295.14C204.051 291.369 204.895 287.296 205.749 283.201V283.028H205.912C210.127 281.829 214.165 280.078 217.919 277.82L218.071 277.734L218.211 277.82L228.65 284.141H228.304L242.367 269.619V269.965L235.671 259.755L235.584 259.614L235.66 259.474C237.796 255.646 239.411 251.551 240.463 247.297V247.135H240.625L252.525 244.239L252.319 244.499C252.197 237.612 252.081 230.885 251.973 224.316L252.179 224.564L240.214 222.079H240.063V221.928C238.864 217.708 237.107 213.668 234.838 209.913L234.762 209.783L234.838 209.664L241.177 199.238V199.53L226.649 185.484H226.919L216.697 192.161L216.589 192.226L216.48 192.172C212.646 190.029 208.543 188.408 204.278 187.353H204.17V187.245C203.088 182.923 202.18 179.055 201.282 175.36L201.444 175.489L181.183 175.695L181.302 175.597C180.296 180.373 179.474 184.241 178.781 187.537V187.591H178.727C175.536 188.486 172.442 189.695 169.489 191.199C168.515 191.696 167.812 192.096 167.325 192.355L166.611 192.755C166.611 192.755 166.839 192.593 167.293 192.312C167.747 192.031 168.472 191.621 169.456 191.113C172.403 189.573 175.498 188.335 178.695 187.418L178.63 187.483C179.29 184.241 180.101 180.319 181.085 175.533V175.435H181.194L201.401 175.036H201.531V175.165C202.439 178.828 203.391 182.729 204.462 187.05L204.322 186.921C208.625 187.972 212.769 189.593 216.643 191.74H216.426L226.638 185.041L226.779 184.943L226.909 185.062L241.458 199.108L241.588 199.238L241.491 199.4L235.271 209.773V209.524C237.563 213.313 239.342 217.39 240.56 221.647L240.366 221.474L252.33 223.948H252.525V224.208C252.64 230.777 252.759 237.508 252.882 244.401V244.607H252.665L240.766 247.513L240.961 247.319C239.906 251.623 238.276 255.766 236.114 259.636V259.344L242.843 269.587L242.962 269.781L242.81 269.933L228.748 284.465L228.585 284.627L228.391 284.508L217.962 278.231H218.244C214.434 280.507 210.338 282.265 206.063 283.46L206.269 283.244C205.414 287.35 204.56 291.423 203.781 295.194L203.727 295.41H203.51L183.303 295.767H183.076V295.55C182.081 291.466 181.085 287.415 180.177 283.665L180.371 283.871C176.065 282.812 171.921 281.18 168.05 279.019H168.321L158.109 285.707L157.936 285.816L157.784 285.675L143.245 271.629L143.105 271.489L143.213 271.327L149.541 260.9V261.149C147.261 257.366 145.487 253.301 144.262 249.058L144.446 249.22L132.504 246.714H132.33V246.53C132.211 239.453 132.103 232.7 131.995 226.347V226.185H132.147L144.046 223.289L143.905 223.43C144.956 219.117 146.578 214.963 148.73 211.08V211.242L142.055 201.032L141.991 200.934L142.066 200.848L156.129 186.359H156.183H156.248L163.983 191.102L166.038 192.334C166.428 192.604 166.655 192.766 166.655 192.766Z" fill="#E0E0E0"/>
<path d="M215.463 228.292C215.459 224.163 214.344 220.111 212.236 216.559C210.128 213.007 207.104 210.086 203.479 208.1C199.854 206.115 195.762 205.138 191.631 205.272C187.499 205.406 183.479 206.645 179.99 208.861C176.502 211.077 173.674 214.188 171.8 217.868C169.927 221.549 169.078 225.665 169.341 229.785C169.604 233.906 170.97 237.881 173.297 241.294C175.624 244.707 178.825 247.433 182.567 249.188C182.567 251.911 182.567 255.001 182.567 255.001H202.796C202.796 255.001 202.915 251.759 202.958 248.82C206.733 246.88 209.898 243.937 212.105 240.315C214.311 236.692 215.474 232.532 215.463 228.292Z" fill="#F5F5F5"/>
<path d="M195.495 254.893C195.49 254.799 195.49 254.705 195.495 254.612C195.495 254.406 195.549 254.136 195.581 253.78C195.678 253.045 195.797 251.965 196.003 250.538C196.208 249.112 196.479 247.47 196.922 245.525C197.398 243.324 198.097 241.177 199.01 239.118C199.533 237.91 200.167 236.752 200.903 235.66C201.299 235.061 201.843 234.573 202.483 234.245C202.823 234.083 203.196 234.005 203.572 234.016C203.949 234.027 204.317 234.128 204.646 234.31C205 234.512 205.263 234.842 205.381 235.232C205.5 235.621 205.465 236.041 205.284 236.406C204.903 237.123 204.266 237.67 203.5 237.94C202.718 238.204 201.892 238.31 201.07 238.253C200.247 238.195 199.444 237.975 198.707 237.605C197.935 237.219 197.248 236.679 196.691 236.02C196.133 235.361 195.715 234.595 195.462 233.77C195.166 232.914 195.118 231.993 195.321 231.112C195.431 230.642 195.7 230.226 196.083 229.932C196.465 229.639 196.938 229.487 197.42 229.502C197.669 229.528 197.906 229.616 198.112 229.758C198.318 229.899 198.486 230.09 198.599 230.312C198.822 230.753 198.887 231.256 198.783 231.738C198.499 232.654 197.931 233.456 197.16 234.029C196.42 234.655 195.555 235.118 194.623 235.388C193.691 235.658 192.713 235.729 191.752 235.596C190.794 235.444 189.888 235.063 189.11 234.486C188.332 233.908 187.705 233.151 187.284 232.279C187.066 231.848 186.939 231.378 186.911 230.896C186.883 230.415 186.955 229.933 187.122 229.48C187.211 229.249 187.347 229.04 187.522 228.865C187.698 228.69 187.907 228.554 188.139 228.465C188.37 228.383 188.617 228.353 188.861 228.375C189.106 228.397 189.343 228.472 189.556 228.594C189.979 228.817 190.32 229.169 190.529 229.599C190.732 230.015 190.853 230.466 190.886 230.928C190.947 231.821 190.829 232.717 190.54 233.564C189.992 235.22 188.831 236.603 187.295 237.432C185.834 238.212 184.142 238.446 182.524 238.091C181.73 237.973 180.999 237.593 180.447 237.011C180.176 236.712 180.016 236.329 179.992 235.926C179.969 235.524 180.083 235.125 180.317 234.796C180.453 234.642 180.619 234.517 180.805 234.429C180.991 234.342 181.194 234.294 181.399 234.288C181.772 234.266 182.145 234.34 182.481 234.504C183.117 234.857 183.616 235.412 183.898 236.082C184.482 237.335 184.98 238.545 185.423 239.701C187.273 244.347 188.582 248.172 189.469 250.83C189.902 252.159 190.226 253.186 190.443 253.888C190.551 254.234 190.627 254.504 190.691 254.698L190.756 254.968L190.659 254.698L190.389 253.909L189.307 250.863C188.398 248.226 187.057 244.38 185.185 239.777C184.709 238.632 184.223 237.4 183.649 236.179C183.381 235.559 182.917 235.043 182.33 234.71C182.041 234.508 181.686 234.424 181.337 234.475C180.989 234.526 180.672 234.708 180.453 234.983C180.234 235.259 180.128 235.607 180.157 235.958C180.186 236.308 180.348 236.635 180.61 236.871C181.129 237.414 181.813 237.772 182.557 237.886C184.118 238.217 185.746 237.987 187.154 237.238C188.63 236.437 189.744 235.104 190.27 233.51C190.555 232.7 190.669 231.839 190.605 230.982C190.608 230.55 190.5 230.125 190.292 229.747C190.083 229.369 189.782 229.05 189.415 228.821C189.236 228.719 189.037 228.656 188.832 228.638C188.627 228.619 188.42 228.645 188.225 228.713C188.03 228.789 187.853 228.905 187.706 229.054C187.558 229.203 187.444 229.381 187.371 229.577C187.22 229.994 187.157 230.438 187.185 230.88C187.213 231.322 187.331 231.754 187.533 232.149C187.934 232.978 188.531 233.698 189.271 234.247C190.011 234.797 190.873 235.159 191.784 235.304C192.7 235.428 193.631 235.358 194.518 235.099C195.405 234.84 196.228 234.398 196.933 233.802C197.664 233.265 198.203 232.507 198.469 231.641C198.557 231.224 198.5 230.789 198.307 230.409C198.215 230.227 198.079 230.072 197.91 229.956C197.742 229.841 197.547 229.77 197.344 229.75C196.929 229.72 196.518 229.852 196.198 230.118C195.867 230.396 195.639 230.776 195.549 231.198C195.359 232.026 195.404 232.89 195.678 233.694C195.922 234.488 196.324 235.224 196.859 235.859C197.394 236.494 198.052 237.014 198.794 237.389C200.223 238.098 201.874 238.218 203.391 237.724C204.097 237.475 204.686 236.975 205.046 236.319C205.198 236.007 205.226 235.65 205.126 235.317C205.026 234.985 204.805 234.703 204.506 234.526C204.206 234.36 203.871 234.268 203.529 234.257C203.187 234.245 202.847 234.316 202.537 234.461C201.931 234.775 201.414 235.236 201.033 235.801C200.303 236.876 199.673 238.015 199.151 239.204C198.219 241.252 197.494 243.388 196.987 245.579C196.533 247.502 196.252 249.188 196.025 250.571C195.797 251.954 195.668 253.013 195.559 253.747C195.559 254.104 195.462 254.385 195.43 254.579C195.397 254.774 195.495 254.893 195.495 254.893Z" fill="#E0E0E0"/>
<path d="M201.249 258.718H183.887C183.542 258.718 183.21 258.581 182.965 258.338C182.72 258.096 182.581 257.766 182.578 257.421C182.578 257.076 182.715 256.745 182.958 256.5C183.201 256.255 183.531 256.116 183.876 256.114H201.249C201.596 256.114 201.929 256.251 202.175 256.497C202.42 256.742 202.558 257.074 202.558 257.421C202.555 257.766 202.416 258.096 202.171 258.338C201.926 258.581 201.595 258.718 201.249 258.718Z" fill="#E0E0E0"/>
<path d="M201.249 259.863H183.887C183.706 259.846 183.523 259.868 183.351 259.926C183.178 259.984 183.02 260.077 182.885 260.199C182.751 260.322 182.644 260.471 182.57 260.637C182.497 260.803 182.459 260.983 182.459 261.165C182.459 261.346 182.497 261.526 182.57 261.692C182.644 261.859 182.751 262.008 182.885 262.13C183.02 262.253 183.178 262.346 183.351 262.404C183.523 262.462 183.706 262.483 183.887 262.467H185.791L188.333 267.275C188.473 267.546 188.685 267.774 188.947 267.932C189.209 268.091 189.509 268.173 189.815 268.172H196.013C196.321 268.171 196.623 268.086 196.887 267.926C197.15 267.766 197.364 267.537 197.506 267.264L199.962 262.467H201.26C201.441 262.483 201.624 262.462 201.796 262.404C201.968 262.346 202.127 262.253 202.261 262.13C202.396 262.008 202.503 261.859 202.576 261.692C202.65 261.526 202.688 261.346 202.688 261.165C202.688 260.983 202.65 260.803 202.576 260.637C202.503 260.471 202.396 260.322 202.261 260.199C202.127 260.077 201.968 259.984 201.796 259.926C201.624 259.868 201.441 259.846 201.26 259.863H201.249Z" fill="#E0E0E0"/>
<path d="M185.715 209.535C184.484 209.712 183.287 210.076 182.166 210.615C180.467 211.375 178.906 212.412 177.547 213.684C175.848 215.251 174.47 217.133 173.491 219.227C172.536 221.326 171.993 223.589 171.89 225.893C171.798 227.749 172.014 229.607 172.528 231.393C172.857 232.591 173.367 233.731 174.042 234.774C174.529 235.498 174.919 235.855 175.124 235.736C175.503 235.542 174.843 233.802 174.529 230.993C174.026 227.386 174.575 223.71 176.11 220.406C177.644 217.102 180.1 214.311 183.183 212.366C185.542 210.799 187.283 210.205 187.186 209.751C187.088 209.524 186.591 209.438 185.715 209.535Z" fill="#FAFAFA"/>
<path d="M194.878 208.422C194.21 208.074 193.467 207.893 192.714 207.893C191.961 207.893 191.219 208.074 190.551 208.422C190.031 208.746 189.761 209.157 189.826 209.502C189.977 210.28 191.265 210.68 192.725 210.691C193.947 210.691 195.256 210.388 195.646 209.524C195.667 209.157 195.397 208.746 194.878 208.422Z" fill="#FAFAFA"/>
<path d="M197.181 267.675C197.181 267.675 196.727 267.512 195.991 267.307C195.032 267.034 194.036 266.91 193.038 266.94C192.046 266.968 191.064 267.15 190.128 267.48C189.746 267.651 189.352 267.795 188.949 267.912C189.273 267.648 189.638 267.44 190.031 267.296C190.978 266.9 191.99 266.684 193.017 266.659C194.038 266.625 195.058 266.779 196.024 267.113C196.443 267.223 196.836 267.413 197.181 267.675Z" fill="#EBEBEB"/>
<path d="M199.994 262.521C199.994 262.607 196.857 262.672 192.984 262.672C189.112 262.672 185.975 262.672 185.975 262.543C185.975 262.413 189.112 262.391 192.984 262.391C196.857 262.391 199.994 262.445 199.994 262.521Z" fill="#EBEBEB"/>
<path d="M198.913 264.584C198.349 264.689 197.777 264.747 197.204 264.758C196.122 264.822 194.683 264.887 193.06 264.909C191.438 264.931 189.977 264.909 188.917 264.909C188.341 264.916 187.766 264.873 187.197 264.779C187.768 264.711 188.343 264.685 188.917 264.703L193.06 264.649L197.193 264.584C197.765 264.535 198.34 264.535 198.913 264.584Z" fill="#EBEBEB"/>
<path d="M324.246 230.453C327.102 229.107 330.125 228.147 333.235 227.6L335.896 219.281L350.305 220.523L351.506 229.167C354.478 230.226 357.294 231.68 359.879 233.489L367.646 229.48L376.981 240.555L371.702 247.513C373.047 250.37 374.003 253.393 374.547 256.503L382.877 259.15L381.644 273.552L372.99 274.741C371.925 277.708 370.47 280.52 368.663 283.104L372.665 290.861L361.599 300.175L354.632 294.902C351.774 296.24 348.751 297.195 345.643 297.744L342.982 306.063L328.573 304.821L327.372 296.177C324.4 295.118 321.583 293.664 318.999 291.855L311.232 295.864L301.918 284.811L307.197 277.853C305.848 274.998 304.891 271.974 304.352 268.863L296.022 266.216L297.256 251.813L305.91 250.625C306.977 247.659 308.432 244.847 310.237 242.262L306.223 234.504L317.301 225.191L324.267 230.474L324.246 230.453Z" fill="#F5F5F5"/>
<path d="M80.2216 136.366C83.0446 134.726 86.0754 133.472 89.2327 132.638L91.2447 123.8H106.292L108.282 132.638C111.462 133.477 114.514 134.738 117.358 136.387L125.028 131.569L135.64 142.179L130.794 149.828C132.439 152.662 133.694 155.704 134.526 158.872L143.375 160.871V175.868L134.526 177.866C133.681 181.027 132.419 184.061 130.772 186.888L135.608 194.56L124.931 205.148L117.261 200.308C114.427 201.951 111.385 203.208 108.218 204.046L106.205 212.873H91.2123L89.2327 204.024C86.0688 203.185 83.0312 201.928 80.2 200.286L72.5195 205.105L61.9182 194.495L66.7537 186.845C65.1179 184.007 63.8631 180.967 63.0216 177.802L54.1729 175.803V160.806L63.0216 158.807C63.8623 155.647 65.121 152.613 66.7645 149.785L61.9399 142.092L72.5519 131.504L80.2216 136.344V136.366Z" fill="#F5F5F5"/>
<path d="M327.155 160.611C328.88 159.566 330.74 158.759 332.682 158.213L333.818 152.811L343.046 152.648L344.376 158.051C346.332 158.518 348.217 159.245 349.98 160.212L354.642 157.154L361.284 163.561L358.396 168.326C359.435 170.048 360.239 171.901 360.787 173.836L366.249 174.971L366.412 184.198L361.003 185.516C360.531 187.468 359.803 189.35 358.839 191.113L361.89 195.781L355.486 202.415L350.715 199.519C348.989 200.563 347.13 201.369 345.188 201.918L344.052 207.32L334.824 207.482L333.494 202.08C331.538 201.612 329.653 200.885 327.89 199.919L323.228 202.976L316.586 196.569L319.431 191.794C318.393 190.069 317.586 188.217 317.029 186.283L311.567 185.203L311.404 175.976L316.813 174.647C317.286 172.698 318.013 170.82 318.977 169.061L315.915 164.393L322.33 157.759L327.101 160.655L327.155 160.611ZM332.077 172.896C330.715 174.305 329.803 176.085 329.454 178.011C329.106 179.937 329.337 181.924 330.119 183.719C330.901 185.514 332.199 187.037 333.847 188.096C335.496 189.154 337.422 189.701 339.382 189.666C341.341 189.631 343.246 189.017 344.856 187.9C346.466 186.784 347.709 185.216 348.426 183.394C349.144 181.572 349.305 179.579 348.888 177.666C348.471 175.753 347.496 174.007 346.085 172.648C345.15 171.744 344.045 171.034 342.834 170.557C341.624 170.081 340.331 169.847 339.029 169.87C337.728 169.894 336.444 170.173 335.251 170.692C334.058 171.211 332.98 171.96 332.077 172.896Z" fill="#F5F5F5"/>
<path d="M159.547 107.323C161.395 106.204 163.385 105.34 165.464 104.752L166.719 98.8738L176.606 98.7009L178.034 104.503C180.131 105.018 182.15 105.811 184.038 106.858L189.036 103.617L196.154 110.478L193.082 115.589C194.201 117.434 195.067 119.422 195.656 121.499L201.508 122.709L201.682 132.584L195.872 134.01C195.356 136.105 194.563 138.122 193.514 140.007L196.76 144.999L189.89 152.108L184.774 149.007C182.929 150.124 180.942 150.989 178.867 151.579L177.645 157.424L167.758 157.597L166.33 151.816C164.233 151.301 162.214 150.509 160.326 149.461L155.328 152.702L148.21 145.842L151.315 140.731C150.195 138.885 149.329 136.897 148.74 134.821L142.888 133.611L142.715 123.724L148.524 122.298C149.045 120.211 149.842 118.201 150.893 116.323L147.648 111.332L154.474 104.276L159.547 107.323ZM164.858 120.483C163.401 121.992 162.424 123.898 162.052 125.961C161.68 128.025 161.928 130.152 162.766 132.074C163.604 133.996 164.994 135.627 166.76 136.76C168.526 137.893 170.588 138.478 172.687 138.44C174.786 138.402 176.826 137.744 178.55 136.548C180.274 135.352 181.604 133.672 182.372 131.721C183.14 129.77 183.311 127.635 182.865 125.587C182.418 123.538 181.373 121.668 179.862 120.213C177.837 118.262 175.118 117.194 172.304 117.245C169.491 117.295 166.812 118.46 164.858 120.483Z" fill="#F5F5F5"/>
<path d="M439.02 237.731C454.697 231.373 462.244 213.526 455.879 197.868C449.513 182.21 431.645 174.672 415.969 181.029C400.292 187.387 392.744 205.234 399.11 220.892C405.475 236.55 423.344 244.089 439.02 237.731Z" fill="#E0E0E0"/>
<path d="M439.027 234.359C454.703 228.001 462.251 210.154 455.886 194.496C449.52 178.839 431.652 171.3 415.975 177.658C400.299 184.015 392.751 201.863 399.117 217.52C405.482 233.178 423.351 240.717 439.027 234.359Z" fill="#EBEBEB"/>
<path d="M433.976 225.478C444.73 221.906 450.55 210.303 446.975 199.562C443.399 188.82 431.782 183.007 421.028 186.578C410.273 190.15 404.453 201.753 408.029 212.494C411.604 223.236 423.221 229.049 433.976 225.478Z" fill="white"/>
<path d="M437.56 206.034C437.56 208.019 436.971 209.96 435.866 211.611C434.762 213.261 433.193 214.548 431.356 215.308C429.52 216.067 427.499 216.266 425.55 215.879C423.6 215.491 421.81 214.535 420.404 213.132C418.999 211.728 418.042 209.939 417.654 207.992C417.266 206.045 417.465 204.027 418.226 202.193C418.987 200.359 420.275 198.791 421.927 197.688C423.58 196.585 425.523 195.997 427.51 195.997C430.176 195.997 432.732 197.054 434.617 198.936C436.501 200.819 437.56 203.372 437.56 206.034Z" fill="#EBEBEB"/>
<path d="M448.14 184.068L447.307 177.542L453.959 170.433L454.435 177.477L448.14 184.068Z" fill="#EBEBEB"/>
<path d="M462.418 178.882L455.668 178.331L448.907 184.835L455.668 185.548L462.418 178.882Z" fill="#EBEBEB"/>
<path d="M454.262 177.045L445.132 186.262L430.626 200.88L427.294 204.23C426.212 205.31 427.889 206.942 428.938 205.872L438.09 196.666L452.575 182.069C453.693 180.96 454.803 179.84 455.907 178.709C456.091 178.485 456.185 178.201 456.171 177.912C456.156 177.622 456.035 177.349 455.83 177.144C455.625 176.939 455.351 176.818 455.061 176.803C454.771 176.789 454.487 176.883 454.262 177.067V177.045Z" fill="#E0E0E0"/>
<path d="M361.022 441.762L302.661 441.548L302.575 465.015L360.936 465.229L361.022 441.762Z" fill="#EBEBEB"/>
<path d="M375.228 452.693L367.256 461.823L359.294 470.942L359.359 452.639L359.424 434.336L367.321 443.52L375.228 452.693Z" fill="#EBEBEB"/>
<path d="M146.384 39.8459L82.626 39.6125L82.5319 65.2517L146.29 65.4851L146.384 39.8459Z" fill="#F5F5F5"/>
<path d="M161.883 51.798L153.175 61.7599L144.467 71.7326L144.543 51.7332L144.618 31.7338L153.251 41.7713L161.883 51.798Z" fill="#F5F5F5"/>
<path d="M429.952 417.985L402.107 417.883L402.066 429.076L429.911 429.178L429.952 417.985Z" fill="#EBEBEB"/>
<path d="M436.737 423.196L432.94 427.54L429.132 431.894L429.164 423.164L429.197 414.434L432.972 418.81L436.737 423.196Z" fill="#EBEBEB"/>
<path d="M85.543 391.744L49.9209 391.613L49.8683 405.94L85.4904 406.071L85.543 391.744Z" fill="#EBEBEB"/>
<path d="M94.2417 398.432L89.3738 403.997L84.5059 409.572L84.5491 398.4L84.5924 387.228L89.417 392.825L94.2417 398.432Z" fill="#EBEBEB"/>
<path d="M378.066 109.908L342.444 109.778L342.392 124.104L378.014 124.235L378.066 109.908Z" fill="#EBEBEB"/>
<path d="M386.728 116.561L381.86 122.136L376.992 127.701L377.035 116.529L377.079 105.357L381.903 110.964L386.728 116.561Z" fill="#EBEBEB"/>
<path d="M471.516 73.0453L412.042 72.6202L411.871 96.541L471.344 96.9661L471.516 73.0453Z" fill="#F5F5F5"/>
<path d="M485.947 84.2767L477.79 93.5471L469.634 102.817L469.764 84.1579L469.904 65.5091L477.92 74.8983L485.947 84.2767Z" fill="#F5F5F5"/>
<path d="M501.674 320.282H384.769V367.304H501.674V320.282Z" fill="#FE5B71"/>
<path d="M529 343.944L513.033 362.215L497.077 380.486L497.207 343.826L497.337 307.165L513.174 325.555L529 343.944Z" fill="#FE5B71"/>
<path d="M138.171 322.162H21.2656V369.184H138.171V322.162Z" fill="#FE5B71"/>
<path d="M165.497 344.517L149.53 362.788L133.574 381.069L133.704 344.398L133.834 307.738L149.671 326.128L165.497 344.517Z" fill="#FE5B71"/>
<path d="M323.054 72.8348L324.277 65.1743C320.404 58.8827 319.028 51.3719 320.418 44.1182C321.808 36.8645 325.865 30.3926 331.79 25.9746C337.716 21.5566 345.081 19.512 352.439 20.2429C359.797 20.9737 366.615 24.427 371.554 29.9241C376.492 35.4211 379.193 42.5642 379.126 49.9493C379.058 57.3345 376.228 64.4274 371.191 69.834C366.153 75.2406 359.274 78.5697 351.904 79.1669C344.533 79.7642 337.206 77.5864 331.362 73.0616L323.054 72.8348Z" fill="white"/>
<path d="M323.055 72.8346H323.574L325.153 72.9103L331.362 73.1588C331.392 73.1589 331.421 73.1479 331.443 73.1279C331.465 73.1079 331.479 73.0803 331.481 73.0507C331.489 73.0397 331.494 73.0265 331.494 73.0129C331.494 72.9993 331.489 72.9861 331.481 72.9751L331.319 73.1264C335.12 76.12 339.601 78.1315 344.365 78.9825C347.485 79.5271 350.672 79.5818 353.809 79.1445C357.386 78.6307 360.839 77.4701 363.999 75.7195C367.477 73.7576 370.535 71.1329 372.999 67.9942C375.691 64.6019 377.591 60.6522 378.56 56.4332C379.575 51.9425 379.556 47.2803 378.506 42.7978C377.395 38.0933 375.131 33.7382 371.918 30.1239C370.294 28.2709 368.453 26.6203 366.433 25.2078C365.405 24.5595 364.389 23.9005 363.318 23.3494L361.684 22.5715L360.83 22.1609L359.986 21.8584C355.618 20.2536 350.941 19.6697 346.312 20.1512C341.965 20.6033 337.776 22.0289 334.056 24.3218C330.616 26.4195 327.63 29.1818 325.272 32.4469C323.162 35.3816 321.607 38.6773 320.685 42.1711C320.505 42.9994 320.332 43.8206 320.166 44.6345C320.015 45.4449 319.972 46.2552 319.874 47.0332C319.723 48.5557 319.702 50.0882 319.809 51.6143C320.137 56.4174 321.642 61.0663 324.19 65.1525V65.0769C323.823 67.5512 323.541 69.4744 323.347 70.8034C323.26 71.43 323.184 71.8838 323.141 72.2728L323.076 72.759C323.076 72.759 323.076 72.5753 323.184 72.2404C323.293 71.9054 323.336 71.3868 323.444 70.7493L324.418 65.1201C324.424 65.0953 324.424 65.0693 324.418 65.0445C321.954 60.9636 320.514 56.3488 320.22 51.5927C320.115 50.0877 320.144 48.5763 320.307 47.0764C320.404 46.2985 320.458 45.4989 320.61 44.6994C320.761 43.8998 320.956 43.1003 321.129 42.2791C322.059 38.8289 323.606 35.5749 325.694 32.6738C328.027 29.4773 330.968 26.7714 334.348 24.7108C338.002 22.4892 342.11 21.1156 346.366 20.6915C350.914 20.2344 355.506 20.822 359.791 22.4094L360.624 22.7011L361.414 23.0793L363.015 23.8356C364.096 24.3867 365.059 25.0349 366.076 25.6724C368.063 27.0594 369.879 28.677 371.485 30.4913C374.647 34.0352 376.878 38.3087 377.975 42.9274C379.011 47.3269 379.037 51.9034 378.051 56.3144C377.112 60.4561 375.265 64.3382 372.642 67.6808C370.231 70.779 367.232 73.3713 363.815 75.3089C360.717 77.0531 357.326 78.2175 353.809 78.7448C350.711 79.191 347.562 79.1582 344.473 78.6475C339.751 77.8331 335.296 75.8867 331.492 72.9751C331.472 72.9553 331.445 72.9442 331.417 72.9442C331.388 72.9442 331.361 72.9553 331.341 72.9751C331.327 72.996 331.32 73.0204 331.32 73.0453C331.32 73.0702 331.327 73.0946 331.341 73.1155L331.438 72.9319L325.294 72.813H323.682L323.055 72.8346Z" fill="#263238"/>
<path d="M343.035 39.4483C343.98 38.8751 344.999 38.4317 346.063 38.1302L346.691 35.1265L351.754 35.04L352.478 38.0113C353.554 38.2701 354.588 38.6774 355.55 39.2214L358.114 37.5467L361.749 41.0582L360.17 43.6621C360.738 44.6082 361.178 45.6255 361.479 46.6874L364.475 47.3141L364.562 52.3707L361.598 53.0946C361.33 54.166 360.923 55.1977 360.386 56.1631L362.063 58.713L358.59 62.3758L355.972 60.7875C355.015 61.3764 353.981 61.8308 352.9 62.1381L352.273 65.1309L347.21 65.2174L346.485 62.2461C345.423 61.9896 344.4 61.5898 343.446 61.0576L340.893 62.7323L337.247 59.2208L338.837 56.6169C338.265 55.6713 337.821 54.6539 337.518 53.5916L334.521 52.9649L334.435 47.9192L337.409 47.1844C337.673 46.1134 338.077 45.0817 338.61 44.1159L336.955 41.512L340.471 37.8709L343.035 39.4483ZM345.728 46.1796C344.989 46.9495 344.495 47.9207 344.308 48.9707C344.12 50.0207 344.249 51.1025 344.676 52.0799C345.103 53.0573 345.811 53.8865 346.709 54.4631C347.607 55.0396 348.656 55.3376 349.724 55.3196C350.792 55.3015 351.83 54.9683 352.709 54.3618C353.587 53.7553 354.266 52.9027 354.66 51.9114C355.054 50.9201 355.145 49.8346 354.923 48.7915C354.7 47.7484 354.173 46.7945 353.409 46.05C352.897 45.5527 352.291 45.1616 351.627 44.8994C350.963 44.6371 350.253 44.5088 349.539 44.5218C348.825 44.5349 348.121 44.689 347.467 44.9754C346.812 45.2618 346.222 45.6748 345.728 46.1904V46.1796Z" fill="#FE5B71"/>
<path d="M260.907 101.597L260.149 60.593C259.619 50.3935 265.115 41.5985 275.294 41.35H276.235C280.823 41.5051 285.185 43.3799 288.452 46.6012C291.72 49.8225 293.653 54.1542 293.868 58.7346C294.279 67.5728 294.614 77.3402 294.398 82.0726C293.943 91.8508 284.089 93.0393 284.089 93.0393C284.089 93.0393 284.089 98.9927 284.089 101.867L283.591 108.62L277.533 110.154L260.907 101.597Z" fill="#FFBF9D"/>
<path d="M284.089 92.7368C279.562 92.5713 275.177 91.1127 271.454 88.5338C271.454 88.5338 274.277 95.9998 284.078 95.4488L284.089 92.7368Z" fill="#FF9A6C"/>
<path d="M290.525 67.5404C290.514 67.9035 290.363 68.2482 290.102 68.502C289.842 68.7559 289.494 68.8992 289.13 68.9018C288.951 68.909 288.773 68.8808 288.606 68.8189C288.438 68.757 288.285 68.6625 288.154 68.5409C288.023 68.4194 287.918 68.2731 287.844 68.1107C287.77 67.9482 287.729 67.7727 287.724 67.5944C287.732 67.2275 287.884 66.8785 288.147 66.6221C288.41 66.3657 288.762 66.2221 289.13 66.2222C289.309 66.215 289.487 66.2436 289.655 66.3063C289.822 66.3691 289.976 66.4647 290.106 66.5875C290.236 66.7103 290.34 66.8579 290.412 67.0216C290.484 67.1852 290.523 67.3616 290.525 67.5404Z" fill="#263238"/>
<path d="M291.628 62.6783C291.455 62.862 290.417 62.0409 288.913 61.9868C287.409 61.9328 286.274 62.6567 286.122 62.4731C285.971 62.2894 286.23 62.0625 286.728 61.7275C287.392 61.2948 288.175 61.083 288.967 61.1225C289.754 61.1403 290.513 61.4134 291.131 61.9004C291.574 62.2678 291.726 62.6027 291.628 62.6783Z" fill="#263238"/>
<path d="M277.382 67.2379C277.382 67.4204 277.346 67.6011 277.275 67.7696C277.205 67.9381 277.102 68.0911 276.972 68.2196C276.843 68.3482 276.689 68.4498 276.519 68.5187C276.35 68.5876 276.169 68.6223 275.986 68.6209C275.808 68.6296 275.63 68.6024 275.462 68.5409C275.295 68.4793 275.141 68.3848 275.011 68.2628C274.881 68.1408 274.776 67.9939 274.704 67.8308C274.632 67.6677 274.594 67.4918 274.591 67.3135C274.599 66.9495 274.75 66.6032 275.011 66.3488C275.272 66.0944 275.622 65.952 275.986 65.9521C276.163 65.9434 276.339 65.9699 276.505 66.0301C276.672 66.0903 276.824 66.183 276.954 66.3026C277.084 66.4223 277.189 66.5667 277.262 66.7273C277.336 66.8878 277.376 67.0614 277.382 67.2379Z" fill="#263238"/>
<path d="M276.863 62.527C276.679 62.6999 275.64 61.8788 274.137 61.8355C272.633 61.7923 271.508 62.5054 271.346 62.3109C271.184 62.1165 271.454 61.9112 271.952 61.5762C272.617 61.1457 273.399 60.9306 274.191 60.9604C274.976 60.988 275.732 61.26 276.354 61.7383C276.798 62.1381 276.949 62.4514 276.863 62.527Z" fill="#263238"/>
<path d="M281.871 74.2717C282.671 74.0487 283.497 73.9289 284.327 73.9152C284.716 73.9152 285.084 73.8179 285.149 73.5586C285.2 73.1636 285.124 72.7626 284.933 72.4133C284.608 71.4733 284.262 70.4901 283.851 69.4529C282.891 66.9359 282.125 64.3497 281.558 61.7167C281.731 61.6519 283.04 65.0338 284.478 69.28C284.814 70.3604 285.149 71.3112 285.463 72.2621C285.689 72.7329 285.743 73.2684 285.614 73.7747C285.552 73.9084 285.46 74.0264 285.346 74.1199C285.232 74.2135 285.098 74.2801 284.954 74.3149C284.742 74.3655 284.524 74.3873 284.305 74.3798C283.493 74.4457 282.675 74.4094 281.871 74.2717Z" fill="#263238"/>
<path d="M277.511 57.8162C277.284 58.1944 275.845 57.7406 274.06 57.6433C272.275 57.5461 270.815 57.7622 270.631 57.3624C270.555 57.1787 270.869 56.833 271.507 56.5521C272.346 56.1938 273.26 56.0455 274.169 56.1199C275.078 56.1635 275.962 56.4307 276.743 56.8978C277.338 57.2868 277.609 57.6542 277.511 57.8162Z" fill="#263238"/>
<path d="M291.856 58.2592C291.531 58.5942 290.309 58.2592 288.838 58.1728C287.367 58.0863 286.112 58.3565 285.83 57.9891C285.711 57.8162 285.906 57.4705 286.458 57.1571C287.22 56.7713 288.072 56.596 288.924 56.6493C289.774 56.6671 290.602 56.9216 291.315 57.384C291.834 57.7406 291.996 58.0971 291.856 58.2592Z" fill="#263238"/>
<path d="M260.658 67.5404C260.496 67.4648 253.994 65.3254 253.983 72.0243C253.973 78.7232 260.701 77.351 260.712 77.1565C260.723 76.962 260.658 67.5404 260.658 67.5404Z" fill="#FFBF9D"/>
<path d="M258.667 74.6066C258.667 74.6066 258.548 74.693 258.353 74.7795C258.215 74.8374 258.066 74.8673 257.915 74.8673C257.765 74.8673 257.616 74.8374 257.477 74.7795C257.046 74.5033 256.695 74.1178 256.462 73.6623C256.228 73.2067 256.119 72.6975 256.147 72.1864C256.135 71.6139 256.25 71.0459 256.482 70.5224C256.544 70.313 256.656 70.1217 256.809 69.9654C256.961 69.8091 257.15 69.6925 257.358 69.6257C257.493 69.592 257.636 69.6058 257.762 69.6649C257.888 69.7239 257.99 69.8245 258.051 69.9498C258.137 70.1335 258.051 70.2739 258.137 70.2847C258.224 70.2956 258.278 70.1659 258.224 69.8958C258.185 69.7308 258.094 69.5829 257.964 69.4744C257.873 69.4044 257.768 69.353 257.657 69.3234C257.545 69.2937 257.429 69.2863 257.315 69.3015C257.034 69.3587 256.774 69.4887 256.559 69.6783C256.344 69.868 256.184 70.1106 256.093 70.382C255.802 70.9574 255.661 71.5963 255.682 72.2404C255.656 72.8307 255.803 73.4157 256.105 73.9241C256.406 74.4324 256.849 74.8422 257.38 75.1036C257.562 75.1568 257.755 75.168 257.942 75.1361C258.129 75.1043 258.307 75.0304 258.462 74.9199C258.656 74.7687 258.689 74.6174 258.667 74.6066Z" fill="#FF9A6C"/>
<path d="M307.336 49.5183C307.221 49.1249 306.957 48.7916 306.6 48.5891C305.815 48.232 304.949 48.0903 304.091 48.1785C301.973 48.1143 299.896 47.5791 298.011 46.6118C298.676 46.2877 299.286 45.8611 299.818 45.3477C300.385 44.8316 300.801 44.1699 301.018 43.4346C301.236 42.6992 301.247 41.9184 301.051 41.1771C301.018 41.0372 300.955 40.9063 300.865 40.7941C300.775 40.6819 300.661 40.5913 300.532 40.5288C300.088 40.3992 299.71 40.8205 299.45 41.1555C299.061 41.6786 298.539 42.0879 297.937 42.3406C297.336 42.5934 296.678 42.6804 296.032 42.5925C295.134 42.5319 294.261 42.2696 293.479 41.8254L293.403 41.7281L292.321 40.6477C290.38 38.4931 288.035 36.7386 285.42 35.4831C281.533 34.0534 277.33 33.7061 273.261 34.4782C269.842 35.3642 266.77 38.1194 266.272 41.6093C264.358 39.9778 261.491 39.9778 259.154 40.907H259.089C256.493 41.8146 255 44.5589 254.232 47.1953C254.232 47.3357 254.146 47.487 254.113 47.6275C253.233 49.028 252.027 50.1956 250.598 51.0309C250.349 51.1714 250.057 51.3443 250.024 51.636C249.992 51.9277 250.241 52.1654 250.468 52.3275C251.093 52.7753 251.81 53.078 252.566 53.2135C252.331 53.8423 252.041 54.4497 251.701 55.0286C251.409 55.5256 251.052 56.1091 251.312 56.6385C251.427 56.8277 251.598 56.9768 251.801 57.0657C252.004 57.1546 252.23 57.179 252.447 57.1355C252.884 57.0407 253.297 56.8568 253.659 56.5953L252.783 58.6698C253.724 58.8347 254.692 58.7755 255.606 58.4969C256.147 60.9712 256.547 65.5523 257.175 67.2379C258.96 67.2379 259.338 67.0758 260.29 67.3783C261.448 67.7673 260.993 69.8202 262.454 69.2475C263.222 68.9558 264.423 66.0061 264.682 65.2606C266.419 60.0453 267.009 54.5174 266.413 49.0537C267.498 47.9127 268.79 46.9886 270.221 46.3309L270.102 46.4389C272.849 45.4989 275.954 44.5697 278.55 45.8663C280.562 46.8819 281.742 48.978 283.245 50.6528C284.512 52.1807 286.089 53.4232 287.871 54.2985C289.654 55.1737 291.602 55.6619 293.587 55.7309C293.955 58.6914 294.052 63.5211 294.182 66.2871L296.572 60.7767C296.758 60.459 296.924 60.1307 297.07 59.7935L297.124 59.6962C297.373 59.1776 297.6 58.6158 297.914 58.1296C298.231 58.4054 298.639 58.5553 299.06 58.551C299.481 58.5468 299.885 58.3885 300.197 58.1063C300.509 57.8241 300.707 57.4375 300.752 57.0197C300.798 56.6018 300.689 56.1818 300.445 55.839C300.216 55.5143 299.934 55.2296 299.612 54.9962C299.951 55.3247 300.369 55.56 300.826 55.6792C301.283 55.7985 301.763 55.7977 302.219 55.6769C302.677 55.5362 303.075 55.2477 303.351 54.8566C303.627 54.4655 303.766 53.994 303.744 53.516C303.707 53.1985 303.587 52.8962 303.398 52.6386C303.208 52.3811 302.955 52.1771 302.663 52.0466C303.879 52.1541 305.1 51.8944 306.168 51.301C306.892 51.0309 307.574 50.3934 307.336 49.5183Z" fill="#263238"/>
<path d="M269.312 42.787C268.961 43.0592 268.631 43.3591 268.328 43.6838C267.545 44.6128 267.019 45.7303 266.802 46.9252C266.628 47.742 266.541 48.575 266.543 49.4102C266.543 50.3178 266.597 51.2794 266.673 52.3059C266.758 53.3842 266.776 54.4667 266.727 55.5473C266.694 56.1176 266.618 56.6846 266.5 57.2436C266.408 57.8416 266.166 58.4067 265.796 58.8859C265.625 59.0753 265.407 59.2175 265.165 59.2989C264.922 59.3802 264.663 59.398 264.412 59.3505C263.931 59.2539 263.494 59.0036 263.168 58.6374C262.64 57.9034 262.319 57.0416 262.237 56.1415H262.443C262.141 56.8809 261.733 57.5725 261.231 58.1944C260.753 58.7743 260.065 59.1429 259.317 59.2208C258.972 59.2569 258.624 59.197 258.311 59.048C258.018 58.8969 257.78 58.6591 257.629 58.3673C257.479 58.1009 257.408 57.7974 257.424 57.4921C257.433 57.2104 257.545 56.9418 257.737 56.7358L257.845 56.8222C257.242 57.4926 256.505 58.0298 255.682 58.3997C255.472 58.4989 255.255 58.5819 255.033 58.6482H254.795L255.022 58.5617L255.65 58.2808C256.441 57.9096 257.151 57.3843 257.737 56.7358L257.845 56.833C257.683 57.0361 257.588 57.285 257.574 57.5447C257.561 57.8045 257.629 58.0619 257.77 58.2808C257.909 58.5405 258.124 58.7515 258.386 58.8859C258.673 59.0188 258.991 59.0711 259.306 59.0372C259.999 58.9482 260.633 58.6008 261.08 58.0647C261.558 57.4524 261.948 56.7759 262.237 56.0551L262.378 55.7417L262.443 56.0767C262.546 56.942 262.874 57.7652 263.395 58.4645C263.675 58.7905 264.055 59.0147 264.477 59.102C264.69 59.1449 264.911 59.1316 265.118 59.0634C265.324 58.9952 265.51 58.8744 265.656 58.713C265.993 58.2623 266.212 57.7351 266.294 57.1788C266.417 56.6315 266.493 56.0749 266.521 55.5148C266.587 54.4534 266.587 53.3889 266.521 52.3275C266.467 51.247 266.402 50.3394 266.413 49.421C266.427 48.5707 266.524 47.7238 266.705 46.8927C266.951 45.6905 267.506 44.5732 268.317 43.6514C268.6 43.3121 268.936 43.0203 269.312 42.787Z" fill="#455A64"/>
<path d="M299.634 52.4139L299.558 52.4787L299.309 52.6624C299.179 52.7596 299.042 52.8463 298.898 52.9217C298.703 53.0393 298.501 53.144 298.292 53.2351C296.977 53.8287 295.534 54.0814 294.095 53.9698C291.955 53.8343 289.901 53.0838 288.178 51.8088C286.109 50.2128 284.386 48.213 283.115 45.9311C282.401 44.7426 281.828 43.5217 281.19 42.398C280.618 41.3005 279.889 40.2923 279.026 39.4051C278.251 38.5997 277.283 38.0048 276.214 37.6764C275.728 37.5404 275.224 37.482 274.721 37.5035C274.258 37.5277 273.8 37.6112 273.358 37.752C272.003 38.2054 270.87 39.1553 270.188 40.41C269.964 40.8801 269.79 41.3726 269.669 41.8794C269.666 41.8434 269.666 41.8073 269.669 41.7713C269.669 41.6957 269.669 41.5985 269.723 41.4688C269.803 41.0942 269.931 40.7312 270.102 40.3884C270.372 39.8353 270.739 39.3342 271.183 38.9081C271.778 38.3339 272.49 37.8952 273.271 37.6224C273.727 37.4709 274.199 37.3765 274.678 37.3414C275.199 37.3199 275.721 37.3782 276.224 37.5143C277.33 37.8497 278.333 38.455 279.145 39.2755C280.031 40.1744 280.782 41.1971 281.374 42.3116C282.023 43.4461 282.596 44.6562 283.299 45.8339C284.554 48.0958 286.254 50.0806 288.297 51.6684C289.983 52.9269 291.995 53.6768 294.095 53.8293C295.513 53.9463 296.938 53.7202 298.249 53.1702C298.725 52.9462 299.188 52.6936 299.634 52.4139Z" fill="#455A64"/>
<path d="M300.554 48.1569C300.443 48.2488 300.324 48.3285 300.197 48.3946C299.853 48.6038 299.491 48.781 299.115 48.924C298.583 49.1484 298.033 49.3256 297.471 49.4535C296.76 49.612 296.035 49.7025 295.307 49.7236C294.583 49.7445 293.858 49.6939 293.144 49.5723C292.573 49.4717 292.012 49.3235 291.467 49.1293C291.096 48.9989 290.735 48.8436 290.385 48.6647C290.136 48.5351 290.006 48.4594 290.017 48.4378C290.028 48.4162 290.58 48.6863 291.51 48.9781C292.052 49.1475 292.605 49.2775 293.165 49.367C293.857 49.462 294.555 49.5053 295.253 49.4967C295.948 49.4737 296.639 49.3906 297.319 49.2482C297.878 49.1281 298.427 48.9693 298.963 48.7728C300.002 48.427 300.532 48.0921 300.554 48.1569Z" fill="#455A64"/>
<path d="M281.785 78.8528C281.698 78.6043 280.119 79.231 278.464 78.3234C276.809 77.4158 276.3 75.6763 276.095 75.7411C275.889 75.8059 275.932 76.2381 276.192 76.962C276.558 77.8768 277.226 78.6392 278.085 79.1229C278.919 79.5859 279.901 79.7061 280.822 79.4579C281.493 79.285 281.785 78.9501 281.785 78.8528Z" fill="#263238"/>
<path d="M318.403 335.149L321.962 353.658C321.962 353.658 342.515 360.238 342.699 364.063L303.615 364.776L300.543 335.268L318.403 335.149Z" fill="#263238"/>
<path d="M303.615 364.776L303.323 362.01L341.39 362.193C341.804 362.398 342.159 362.704 342.423 363.081C342.688 363.459 342.853 363.896 342.905 364.354L303.615 364.776Z" fill="#E0E0E0"/>
<path d="M322.61 353.463C322.61 353.669 321.626 353.733 320.652 354.338C319.679 354.944 319.138 355.765 318.965 355.678C318.792 355.592 319.095 354.479 320.295 353.766C321.496 353.053 322.654 353.29 322.61 353.463Z" fill="#455A64"/>
<path d="M326.775 355.289C326.775 355.473 325.964 355.797 325.282 356.607C324.601 357.418 324.395 358.293 324.201 358.282C324.006 358.271 323.909 357.202 324.774 356.121C325.639 355.041 326.775 355.106 326.775 355.289Z" fill="#455A64"/>
<path d="M329.069 360.346C328.896 360.346 328.636 359.406 329.155 358.347C329.675 357.288 330.605 356.877 330.691 357.04C330.778 357.202 330.194 357.763 329.772 358.639C329.35 359.514 329.264 360.346 329.069 360.346Z" fill="#455A64"/>
<path d="M320.956 349.163C320.869 349.336 319.982 349.055 318.879 349.163C317.775 349.271 316.899 349.541 316.802 349.368C316.704 349.195 317.548 348.526 318.846 348.482C320.144 348.439 321.064 349.012 320.956 349.163Z" fill="#263238"/>
<path d="M223.273 330.72L206.949 342.032C206.949 342.032 218.567 360.227 216.241 363.274L184.968 338.24L209.848 317.657L223.273 330.72Z" fill="#263238"/>
<path d="M184.968 338.24L187.499 336.143L216.436 360.994C216.619 361.416 216.694 361.876 216.657 362.334C216.619 362.792 216.469 363.233 216.22 363.62L184.968 338.24Z" fill="#E0E0E0"/>
<path d="M207.576 342.302C207.436 342.443 206.646 341.87 205.499 341.719C204.353 341.567 203.433 341.848 203.336 341.719C203.238 341.589 204.212 340.876 205.586 341.092C206.96 341.308 207.717 342.194 207.576 342.302Z" fill="#455A64"/>
<path d="M209.61 346.354C209.523 346.527 208.669 346.224 207.62 346.419C206.57 346.613 205.856 347.143 205.716 347.013C205.575 346.883 206.202 345.932 207.511 345.749C208.82 345.565 209.729 346.213 209.61 346.354Z" fill="#455A64"/>
<path d="M208.128 351.702C207.966 351.616 208.398 350.697 209.48 350.211C210.562 349.725 211.535 350.006 211.492 350.211C211.449 350.416 210.648 350.449 209.761 350.859C208.874 351.27 208.29 351.832 208.128 351.702Z" fill="#455A64"/>
<path d="M210.389 338.499C210.205 338.585 209.708 337.797 208.821 337.127C207.934 336.457 207.047 336.165 207.079 335.971C207.111 335.776 208.161 335.787 209.243 336.587C210.324 337.386 210.573 338.445 210.389 338.499Z" fill="#263238"/>
<path d="M233.701 126.296C233.701 126.296 213.775 139.262 212.845 147.905C211.915 156.549 208.702 174.917 212.055 186.121C215.409 197.326 218.632 210.324 227.86 210.54C233.221 210.736 238.518 209.325 243.069 206.488L254.19 172.68L250.566 134.68L249.268 121.013L233.701 126.296Z" fill="#263238"/>
<path d="M235.357 209.762C235.357 209.762 235.357 209.762 235.249 209.589L234.978 209.081C234.74 208.616 234.405 207.947 233.983 207.061C233.15 205.31 231.982 202.739 230.64 199.497C229.299 196.256 227.774 192.431 226.313 188.055C224.667 183.333 223.482 178.463 222.776 173.512C222.221 168.545 222.037 163.543 222.224 158.548C222.343 153.945 222.624 149.807 222.917 146.339C223.209 142.87 223.533 140.072 223.771 138.149C223.901 137.209 223.998 136.463 224.063 135.923C224.063 135.696 224.139 135.502 224.161 135.35C224.156 135.285 224.156 135.221 224.161 135.156C224.161 135.156 224.161 135.221 224.161 135.35C224.161 135.48 224.161 135.707 224.161 135.934C224.161 136.485 224.042 137.219 223.944 138.159C223.76 140.093 223.49 142.903 223.23 146.36C222.971 149.818 222.733 153.923 222.635 158.548C222.47 163.525 222.665 168.509 223.219 173.458C223.92 178.383 225.086 183.231 226.703 187.936C228.12 192.258 229.602 196.169 230.911 199.389C232.22 202.609 233.345 205.181 234.156 206.953L235.076 208.995C235.162 209.211 235.249 209.384 235.303 209.535C235.357 209.686 235.357 209.762 235.357 209.762Z" fill="#455A64"/>
<path d="M223.37 176.084C222.799 176.493 222.194 176.854 221.564 177.164C220.482 177.78 218.881 178.634 217.237 179.66C215.592 180.687 214.1 181.67 213.039 182.404C212.494 182.818 211.911 183.18 211.298 183.485C211.761 182.964 212.288 182.503 212.866 182.113C214.192 181.081 215.575 180.125 217.01 179.249C218.443 178.37 219.924 177.57 221.445 176.851C222.052 176.516 222.699 176.258 223.37 176.084Z" fill="#455A64"/>
<path d="M242.377 201.604C242.253 203.098 242.326 204.602 242.593 206.077C243.426 210.626 242.658 217.962 246.541 223.635C252.469 232.279 262.53 242.748 262.53 242.748L282.229 290.764L299.721 353.431L323.768 349.876L311.317 273.271L291.348 201.248L242.377 201.604Z" fill="#263238"/>
<path d="M195.244 325.069L237.93 270.57L246.433 219.788L279.286 234.915L268.793 279.862C267.496 285.403 264.586 290.437 260.431 294.33L213.785 342.95L195.244 325.069Z" fill="#263238"/>
<path d="M276.657 277.15C276.657 277.15 276.657 277.085 276.538 276.945L276.236 276.329C275.987 275.778 275.587 274.978 275.154 273.93C274.223 271.77 272.99 268.733 271.606 264.865C270.221 260.997 268.739 256.33 266.738 251.295C264.736 246.26 262.032 240.847 257.564 236.438C255.401 234.169 253.237 232.041 251.214 229.837C250.717 229.286 250.241 228.756 249.797 228.14C249.354 227.525 248.943 226.963 248.532 226.379C248.121 225.796 247.742 225.202 247.363 224.618C247.18 224.316 246.985 224.024 246.801 223.732L246.303 222.835C245.017 220.586 244.031 218.177 243.372 215.672C242.834 213.481 242.605 211.227 242.69 208.973C242.69 207.893 242.842 206.963 242.939 206.034C243.036 205.105 243.22 204.251 243.437 203.463C243.653 202.674 243.794 201.928 244.01 201.302C244.226 200.675 244.389 200.016 244.583 199.476C244.94 198.395 245.265 197.552 245.492 196.991L245.752 196.353C245.776 196.276 245.813 196.203 245.86 196.137L245.795 196.364L245.579 197.012C245.373 197.585 245.081 198.428 244.746 199.519C244.562 200.07 244.389 200.686 244.205 201.356C244.021 202.026 243.848 202.76 243.675 203.517C243.502 204.273 243.372 205.17 243.209 206.077C243.047 206.985 242.993 207.957 242.993 208.973C242.933 211.2 243.177 213.424 243.718 215.585C244.385 218.054 245.371 220.426 246.649 222.641L247.147 223.527C247.331 223.819 247.515 224.11 247.71 224.402C248.088 224.975 248.434 225.591 248.867 226.152L250.122 227.892C250.565 228.454 251.031 228.972 251.528 229.556C253.497 231.717 255.704 233.878 257.878 236.136C262.389 240.598 265.137 246.108 267.106 251.143C269.074 256.178 270.535 260.868 271.898 264.757C273.261 268.647 274.418 271.748 275.305 273.866C275.738 274.946 276.106 275.735 276.387 276.297C276.495 276.556 276.582 276.761 276.647 276.934C276.659 277.005 276.663 277.078 276.657 277.15Z" fill="#455A64"/>
<path d="M284.619 106.232L292.191 115.2C292.191 115.2 311.479 156.992 311.349 162.113C311.22 167.235 299.753 173.231 299.753 173.231L284.619 106.232Z" fill="#FE5B71"/>
<path d="M259.815 89.9708L259.804 87.583L284.1 101.413L284.619 106.232L293.706 130.726L297.968 196.061L293.717 205.613L274.462 210.583L267.993 106.675L259.815 89.9708Z" fill="#FAFAFA"/>
<path d="M256.526 94.3683L246.606 99.9543L244.8 152.476L246.725 175.003L239.488 211.944L239.726 217.12L296.41 216.914L296.941 197.012C296.941 197.012 297.46 187.094 297.492 184.274C297.6 176.041 294.442 153.534 292.906 141.617C290.818 125.41 280.227 107.042 280.227 107.042L258.733 89.0632L256.526 94.3683Z" fill="#FE5B71"/>
<path d="M293.684 160.082C293.684 160.082 293.684 160.028 293.576 159.909L293.327 159.358C293.1 158.84 292.775 158.126 292.386 157.197L289 149.364L277.977 123.433C277.133 121.423 276.304 119.46 275.489 117.544V117.479V117.458C275.803 115.967 276.106 114.497 276.398 113.136L276.636 113.374L273.801 113.903H273.693L273.618 113.827L260.312 100.581L256.537 96.7129L255.541 95.6324C255.423 95.5196 255.314 95.3967 255.217 95.2651C255.351 95.3633 255.478 95.4716 255.595 95.5892L256.677 96.5724L260.561 100.322L273.964 113.449L273.791 113.395L276.625 112.866L276.928 112.801L276.874 113.104C276.582 114.53 276.279 115.999 275.976 117.49V117.361C276.787 119.273 277.62 121.25 278.475 123.249L289.379 149.18L292.624 157.068C292.992 157.986 293.284 158.699 293.489 159.228L293.706 159.79L293.684 160.082Z" fill="#263238"/>
<g opacity="0.3">
<path d="M245.265 182.469L268.49 183.636C268.49 183.636 281.547 193.36 286.48 193.458C289.111 193.579 291.693 192.712 293.717 191.027L297.492 185.624V182.199L283.05 183.204L275.392 180.114L245.535 179.52L245.265 182.469Z" fill="black"/>
</g>
<path d="M279.232 123.627L253.346 165.203C252.932 165.864 252.654 166.601 252.529 167.371C252.404 168.14 252.434 168.927 252.617 169.685C252.801 170.443 253.134 171.156 253.597 171.784C254.06 172.411 254.644 172.94 255.314 173.339L284.078 191.048C285.46 191.897 287.114 192.189 288.703 191.864C290.293 191.539 291.699 190.621 292.635 189.298L319.971 149.526C320.419 148.875 320.731 148.14 320.888 147.365C321.045 146.591 321.043 145.793 320.884 145.019C320.724 144.245 320.409 143.511 319.959 142.862C319.508 142.212 318.931 141.66 318.262 141.239L288.048 121.715C287.344 121.261 286.557 120.951 285.732 120.801C284.908 120.652 284.062 120.666 283.243 120.844C282.424 121.022 281.648 121.359 280.96 121.837C280.272 122.314 279.684 122.923 279.232 123.627Z" fill="#E0E0E0"/>
<path d="M290.168 153.977C290.168 154.815 289.92 155.634 289.454 156.331C288.988 157.027 288.326 157.57 287.551 157.89C286.776 158.211 285.923 158.295 285.101 158.131C284.278 157.968 283.523 157.565 282.93 156.972C282.336 156.38 281.933 155.625 281.769 154.804C281.605 153.982 281.689 153.131 282.01 152.357C282.331 151.583 282.875 150.921 283.572 150.456C284.269 149.99 285.089 149.742 285.928 149.742C286.485 149.741 287.037 149.849 287.552 150.062C288.068 150.274 288.536 150.586 288.93 150.979C289.324 151.373 289.636 151.84 289.849 152.355C290.061 152.869 290.17 153.421 290.168 153.977Z" fill="white"/>
<g opacity="0.3">
<path d="M269.442 112.747L271.616 115.902L274.461 115.016L273.087 117.674L276.7 127.701L278.68 124.513L275.716 117.501L276.625 113.125L273.78 113.644L269.117 109.052L269.442 112.747Z" fill="black"/>
</g>
<g opacity="0.3">
<path d="M260.583 155.836L286.729 160.082L293.111 160.687L303.269 153.329L302.598 156.862L297.493 162.675L293.717 170.573L292.603 174.949L263.796 173.231L258.906 169.806L260.583 155.836Z" fill="black"/>
</g>
<path d="M246.087 100.289C247.732 98.6651 249.497 97.1663 251.366 95.8053C252.458 95.1284 253.681 94.6907 254.954 94.5212C256.228 94.3517 257.523 94.4542 258.754 94.8221C260.096 95.3515 266.889 97.3396 269.431 110.564C271.011 118.744 259.912 158.256 259.912 158.256L251.755 157.1C251.755 157.1 259.328 126.199 260.063 119.727C260.799 113.255 263.06 96.9398 246.087 100.289Z" fill="#263238"/>
<path d="M251.215 97.2857C251.215 97.4047 250.771 97.5453 250.219 97.5994C249.668 97.6535 249.138 97.5994 249.138 97.502C249.138 97.4047 249.57 97.2316 250.144 97.1775C250.717 97.1234 251.215 97.1667 251.215 97.2857Z" fill="#455A64"/>
<path d="M259.003 98.6145C258.346 98.5165 257.703 98.3387 257.088 98.0851C256.43 97.964 255.793 97.7493 255.195 97.4476C255.874 97.3372 256.57 97.4157 257.207 97.6745C257.888 97.798 258.514 98.1259 259.003 98.6145Z" fill="#455A64"/>
<path d="M263.796 104.752C263.366 104.238 263.022 103.658 262.779 103.034C262.415 102.472 262.145 101.855 261.979 101.208C262.076 101.143 262.649 101.845 263.158 102.839C263.54 103.407 263.76 104.068 263.796 104.752Z" fill="#455A64"/>
<path d="M264.996 112.574C264.833 111.925 264.775 111.254 264.823 110.586C264.723 109.924 264.723 109.25 264.823 108.587C265.136 109.197 265.274 109.881 265.224 110.564C265.325 111.243 265.246 111.935 264.996 112.574Z" fill="#455A64"/>
<path d="M263.687 120.483C263.621 119.813 263.691 119.137 263.893 118.495C263.98 117.824 264.193 117.175 264.52 116.583C264.606 117.252 264.536 117.933 264.315 118.571C264.244 119.245 264.03 119.897 263.687 120.483Z" fill="#455A64"/>
<path d="M261.784 128.165C261.727 127.491 261.82 126.812 262.054 126.177C262.154 125.51 262.389 124.87 262.746 124.297C262.803 124.972 262.71 125.65 262.476 126.285C262.376 126.953 262.141 127.592 261.784 128.165Z" fill="#455A64"/>
<path d="M259.793 135.89C259.845 134.548 260.184 133.233 260.788 132.033C260.837 132.705 260.741 133.379 260.507 134.01C260.406 134.681 260.162 135.322 259.793 135.89Z" fill="#455A64"/>
<path d="M257.781 143.605C257.739 142.933 257.838 142.259 258.073 141.628C258.183 140.96 258.426 140.32 258.787 139.748C258.836 140.424 258.736 141.102 258.495 141.736C258.392 142.402 258.149 143.039 257.781 143.605Z" fill="#455A64"/>
<path d="M255.747 151.319C255.706 150.646 255.809 149.972 256.05 149.342C256.154 148.673 256.398 148.032 256.764 147.462C256.806 148.139 256.702 148.817 256.461 149.45C256.353 150.115 256.11 150.751 255.747 151.319Z" fill="#455A64"/>
<path d="M254.19 157.219C254.071 157.219 254.103 156.711 254.19 156.138C254.276 155.566 254.547 155.177 254.666 155.198C254.785 155.22 254.752 155.706 254.666 156.279C254.579 156.851 254.298 157.219 254.19 157.219Z" fill="#455A64"/>
<path d="M256.201 194.905C256.138 195.066 256.062 195.222 255.974 195.37L255.26 196.667L252.577 201.399L252.458 201.194C257.975 201.269 266.326 201.421 275.662 201.637H278.193L277.977 201.864C277.793 199.562 277.631 197.326 277.468 195.24L277.663 195.424L262.302 195.078L257.834 194.938L256.634 194.884H256.201C256.334 194.867 256.468 194.867 256.601 194.884H262.216L277.674 195.067H277.858V195.262C278.02 197.347 278.193 199.584 278.377 201.885V202.123H278.139L275.608 202.058C266.283 201.853 257.921 201.637 252.404 201.475H252.166L252.285 201.269C253.486 199.292 254.449 197.693 255.119 196.559L255.887 195.316C255.983 195.173 256.088 195.036 256.201 194.905Z" fill="#263238"/>
<path d="M303.821 152.173C303.882 152.072 303.966 151.987 304.067 151.925C304.167 151.863 304.281 151.827 304.399 151.818C304.517 151.81 304.635 151.83 304.743 151.876C304.852 151.923 304.947 151.995 305.022 152.087C305.598 152.843 305.935 153.754 305.991 154.702C306.047 155.651 305.819 156.595 305.336 157.413C304.606 159.005 303.53 160.415 302.188 161.541L309.652 165.355C309.652 165.355 312.097 167.17 311.069 168.672C310.041 170.174 309.706 169.925 309.706 169.925C309.951 170.043 310.169 170.21 310.346 170.417C310.523 170.623 310.655 170.864 310.735 171.123C310.814 171.383 310.838 171.657 310.806 171.927C310.775 172.196 310.687 172.457 310.55 172.691C310.303 173.061 309.984 173.378 309.612 173.623C309.241 173.868 308.824 174.036 308.386 174.117C308.386 174.117 308.051 176.278 307.586 176.581C306.738 176.845 305.856 176.987 304.968 177.002C304.968 177.002 304.849 178.417 303.821 178.72C302.793 179.023 298.218 178.45 298.218 178.45C298.218 178.45 293.133 176.786 291.229 176.084L288.157 175.803L289.239 163.388C290.308 163.414 291.376 163.308 292.419 163.075C293.663 162.416 298.499 158.353 298.499 158.353C299.937 157.537 301.213 156.464 302.263 155.188C302.834 154.21 303.354 153.204 303.821 152.173Z" fill="#FFBF9D"/>
<path d="M305.173 168.088C305.914 168.455 306.681 168.769 307.466 169.028C308.232 169.344 309.021 169.604 309.824 169.806C309.086 169.43 308.319 169.112 307.531 168.855C306.768 168.534 305.979 168.278 305.173 168.088Z" fill="#FF9A6C"/>
<path d="M302.588 172.345C302.848 172.49 303.124 172.606 303.41 172.691C303.918 172.875 304.632 173.112 305.433 173.339C306.233 173.566 306.969 173.761 307.499 173.88C307.784 173.961 308.079 174.008 308.375 174.02C308.103 173.905 307.82 173.815 307.532 173.75L305.487 173.166L303.453 172.561C303.172 172.464 302.882 172.391 302.588 172.345Z" fill="#FF9A6C"/>
<path d="M301.646 176.386C302.165 176.565 302.702 176.685 303.247 176.743C303.785 176.854 304.332 176.912 304.881 176.916C304.363 176.737 303.825 176.617 303.28 176.559C302.743 176.443 302.196 176.385 301.646 176.386Z" fill="#FF9A6C"/>
<path d="M284.586 161.951L289.303 162.448L288.946 177.24L283.667 176.721L284.586 161.951Z" fill="#F5F5F5"/>
<path d="M284.587 161.951C284.587 161.951 284.587 162.383 284.587 163.107C284.587 163.831 284.511 164.944 284.446 166.219C284.327 168.855 284.143 172.518 283.895 176.732L283.7 176.516L288.708 176.991H288.99L288.763 177.197C288.903 171.243 289.055 165.917 289.184 162.416L289.314 162.556L285.885 162.113C285.456 162.071 285.03 162.006 284.609 161.919C285.013 161.912 285.418 161.934 285.82 161.984L289.347 162.275H289.466V162.405C289.466 165.917 289.325 171.232 289.184 177.197V177.434H288.946H288.665L283.667 176.937H283.462V176.667C283.743 172.345 284.024 168.639 284.23 166.025C284.327 164.771 284.414 163.745 284.479 162.967C284.491 162.626 284.528 162.287 284.587 161.951Z" fill="#263238"/>
<path d="M248.327 99.0899C248.327 99.0899 239.305 102.515 236.936 114C234.567 125.486 223.727 164.112 225.934 171.092C228.141 178.072 235.67 178.936 250.89 179.984C266.111 181.032 283.343 182.059 283.343 182.059L284.695 161.53L252.015 156.895C252.015 156.895 261.524 123.022 262.227 118.128C262.93 113.233 264.477 95.4704 248.327 99.0899Z" fill="#FE5B71"/>
<path d="M225.935 171.049C225.935 171.049 225.935 171.135 226.064 171.33L226.421 172.172C226.639 172.614 226.881 173.043 227.146 173.458L227.719 174.204C227.958 174.469 228.211 174.722 228.477 174.96C229.884 176.159 231.539 177.033 233.323 177.521C235.682 178.193 238.097 178.652 240.538 178.893C245.947 179.52 252.503 179.844 259.74 180.308L283.333 181.799L283.106 182.005C283.106 181.648 283.106 181.259 283.181 180.87C283.625 174.074 284.068 167.537 284.469 161.487L284.642 161.703L251.973 156.97H252.048L246.001 160.212L244.411 161.055L244 161.26L243.859 161.325C243.859 161.325 243.859 161.325 243.989 161.238L244.379 161L245.936 160.104L251.94 156.733L284.631 161.281H284.826V161.476C284.436 167.526 284.003 174.063 283.56 180.859C283.56 181.248 283.56 181.627 283.484 181.994V182.199H283.268L259.685 180.676C252.438 180.179 245.925 179.833 240.473 179.163C238.015 178.898 235.586 178.414 233.215 177.715C231.408 177.197 229.738 176.286 228.325 175.047C228.062 174.797 227.813 174.534 227.579 174.258L227.006 173.491C226.703 172.983 226.475 172.54 226.302 172.172L225.999 171.308C225.973 171.223 225.951 171.136 225.935 171.049Z" fill="#263238"/>
<path d="M127.667 426.351L146.76 396.844C151.639 383.813 156.961 370.988 160.661 365.932C167.995 355.916 183.724 345.23 208.366 347.121C215.116 347.64 223.63 350.243 230.164 351.961C239.402 354.392 243.588 355.03 254.525 355.376C274.31 356.002 321.929 349.412 323.043 371.799C324.158 394.186 289.617 391.679 279.07 391.247C268.523 390.815 248.316 389.518 240.44 391.895C232.565 394.272 207.988 394.921 207.988 394.921L185.336 470.553L127.667 426.351Z" fill="#FFBF9D"/>
<path d="M192.097 461.013L212.888 430.576C229.396 427.702 263.06 421.705 288.611 417.935C306.114 415.341 326.473 412.424 337.215 410.89C342.215 410.144 346.894 407.976 350.693 404.645L416.8 347.143C416.8 347.143 414.463 330.752 394.007 336.241C394.007 336.241 381.696 326.344 360.548 340.768L331.611 363.771L285.095 361.74L190.03 371.313L153.997 433.374L192.097 461.013Z" fill="#FFBF9D"/>
<path d="M303.681 410.123C303.883 410.026 304.093 409.947 304.308 409.885L306.136 409.258L313.114 406.957L337.886 398.929L337.799 398.983C344.29 392.879 351.927 385.888 360.051 378.552C375.888 364.225 390.243 351.799 399.449 344.247V344.441C398.354 341.192 396.217 338.393 393.369 336.478C392.614 335.977 391.818 335.54 390.989 335.171L390.351 334.89C390.274 334.866 390.201 334.829 390.135 334.782C391.32 335.118 392.445 335.639 393.467 336.327C394.708 337.122 395.83 338.09 396.798 339.201C398.116 340.702 399.126 342.445 399.773 344.333V344.441L399.687 344.517C390.568 352.156 376.267 364.646 360.441 378.962C352.317 386.299 344.701 393.278 338.146 399.351H338.037L313.211 407.184L306.19 409.345L304.33 409.896C304.119 409.987 303.902 410.063 303.681 410.123Z" fill="#FF9A6C"/>
<path d="M231.029 392.382L231.311 392.317L232.154 392.198L235.4 391.776L247.299 390.167C252.329 389.486 258.333 388.665 265.04 388.071C272.309 387.368 279.623 387.241 286.913 387.692C290.786 387.908 294.561 388.092 298.207 387.962C301.7 387.885 305.169 387.354 308.527 386.385C311.565 385.492 314.404 384.025 316.889 382.063C319.049 380.365 320.69 378.097 321.627 375.516C322.31 373.359 322.425 371.063 321.962 368.849C321.589 367.178 320.879 365.601 319.874 364.214C318.982 363.055 317.908 362.048 316.694 361.232L316.953 361.372L317.678 361.815C317.981 362.031 318.338 362.334 318.76 362.68C319.219 363.116 319.646 363.586 320.036 364.084C321.1 365.476 321.856 367.078 322.254 368.784C322.767 371.055 322.677 373.42 321.994 375.645C321.051 378.309 319.38 380.656 317.17 382.42C314.651 384.426 311.768 385.927 308.678 386.839C305.276 387.831 301.76 388.376 298.217 388.459C294.539 388.611 290.742 388.459 286.87 388.211C279.606 387.763 272.319 387.875 265.072 388.546C258.387 389.108 252.383 389.896 247.342 390.523C242.301 391.15 238.212 391.604 235.378 391.949C233.972 392.111 232.868 392.198 232.133 392.273L231.289 392.338C231.205 392.364 231.117 392.379 231.029 392.382Z" fill="#FF9A6C"/>
<path d="M209.137 444.191L139.239 394.613L120.931 420.363L190.829 469.941L209.137 444.191Z" fill="#EBEBEB"/>
<path d="M190.085 483L108.985 426.838L126.402 401.133L207.166 458.409L190.085 483Z" fill="#FE5B71"/>
</g>
<defs>
<clipPath id="clip0_270_19798">
<rect width="509" height="463" fill="white" transform="translate(20 20)"/>
</clipPath>
</defs>
</svg>
