<svg width="28" height="28" viewBox="0 0 28 28" fill="none" xmlns="http://www.w3.org/2000/svg">
<rect width="28" height="28" rx="1.2" fill="white"/>
<path d="M14 1.16675L23.5864 3.29706C24.1202 3.41568 24.5 3.88913 24.5 4.43595V16.0871C24.5 18.4276 23.3303 20.6132 21.3829 21.9115L14 26.8334L6.6171 21.9115C4.66971 20.6132 3.5 18.4276 3.5 16.0871V4.43595C3.5 3.88913 3.87979 3.41568 4.41358 3.29706L14 1.16675ZM14 3.557L5.83333 5.37181V16.0871C5.83333 17.6474 6.61313 19.1045 7.9114 19.97L14 24.0291L20.0886 19.97C21.3869 19.1045 22.1667 17.6474 22.1667 16.0871V5.37181L14 3.557ZM19.1945 9.59222L20.8444 11.2421L13.4197 18.6667L8.46999 13.717L10.1199 12.067L13.4189 15.3661L19.1945 9.59222Z" fill="#111111"/>
</svg>
