<svg width="16" height="21" viewBox="0 0 16 21" fill="none" xmlns="http://www.w3.org/2000/svg">
<path d="M7.6085 6.5L9.7245 11.5875L15.2169 12.0279L11.0323 15.6125L12.3107 20.9721L7.6085 18.1L2.90617 20.9721L4.18465 15.6125L0 12.0279L5.49243 11.5875L7.6085 6.5ZM7.6085 11.707L6.8699 13.4835L4.95345 13.637L6.4135 14.8883L5.9665 16.759L7.6085 15.7564L9.2495 16.759L8.8034 14.8883L10.2625 13.637L8.347 13.4835L7.6085 11.707ZM3.60845 0V9H1.60845V0H3.60845ZM13.6085 0V9H11.6085V0H13.6085ZM8.6085 0V5H6.6085V0H8.6085Z" fill="#043953"/>
</svg>
